<svg width="60" height="48" viewBox="0 0 60 48" fill="none" xmlns="http://www.w3.org/2000/svg">
<path d="M13.7753 21.0156C13.1767 21.0172 12.5787 21.0556 11.9851 21.1305C9.43422 21.4577 7.02788 22.4777 5.03879 24.0749C3.04971 25.6721 1.5573 27.7828 0.730586 30.1677C-0.0961284 32.5526 -0.224067 35.1165 0.361259 37.5689C0.946585 40.0214 2.22171 42.2644 4.04245 44.0438C5.31976 45.3009 6.83896 46.2979 8.51228 46.9769C10.1854 47.656 11.9796 48.004 13.7909 48.0004C14.3895 47.999 14.9875 47.9606 15.5811 47.8855C18.5844 47.4818 21.3699 46.127 23.5128 44.0279C25.6557 41.9287 27.0377 39.2008 27.4483 36.2606C27.7005 34.3569 27.5352 32.4223 26.9636 30.586C26.3921 28.7496 25.4271 27.0537 24.1334 25.6111C22.8396 24.1687 21.2465 23.0126 19.4604 22.2203C17.6743 21.4277 15.7363 21.0172 13.7753 21.0156ZM24.9466 35.9699C24.6113 38.3717 23.4823 40.6001 21.732 42.3151C19.9815 44.0299 17.7062 45.137 15.2529 45.4672C14.7681 45.5279 14.2796 45.5585 13.7909 45.5591C12.1853 45.5585 10.5984 45.2224 9.13628 44.573C7.67433 43.9235 6.37079 42.9758 5.31308 41.7933C4.25536 40.6108 3.46799 39.2207 3.00342 37.7162C2.53885 36.2116 2.40805 34.6274 2.61959 33.0693C2.95491 30.6674 4.08393 28.4388 5.83422 26.724C7.58468 25.0091 9.86005 23.902 12.3134 23.5718C12.8007 23.5106 13.2917 23.4799 13.7832 23.4799C15.3879 23.4815 16.974 23.8185 18.4352 24.4685C19.8963 25.1184 21.1988 26.0663 22.2557 27.2486C23.3126 28.4309 24.0992 29.8207 24.5633 31.3247C25.0274 32.8288 25.1582 34.4124 24.9466 35.9699Z" fill="#FF0A00"/>
<path d="M12.6814 29.8847C11.5219 30.1479 10.5021 30.8202 9.81702 31.7732C9.13199 32.7261 8.82977 33.8929 8.96811 35.0502C9.10645 36.2075 9.67559 37.2745 10.567 38.0468C11.4583 38.8192 12.6091 39.2428 13.7995 39.2368C14.1543 39.2351 14.5082 39.1967 14.8548 39.122C15.6977 38.9336 16.4734 38.5275 17.1017 37.946C17.73 37.3645 18.1875 36.6289 18.427 35.8155C18.6663 35.0022 18.6789 34.1411 18.463 33.3215C18.2474 32.5019 17.8113 31.7538 17.2001 31.1552C16.6159 30.5896 15.8961 30.177 15.1065 29.955C14.317 29.733 13.483 29.7088 12.6814 29.8847ZM16.0587 34.9434C15.9675 35.3401 15.7704 35.7059 15.4875 36.0035C15.2047 36.3011 14.8462 36.5199 14.4487 36.6375C14.0511 36.7549 13.6287 36.7671 13.2249 36.6724C12.821 36.5778 12.45 36.38 12.1498 36.099C11.8831 35.8341 11.6861 35.5098 11.5759 35.1537C11.4655 34.7979 11.4453 34.4211 11.5167 34.0557C11.6073 33.6243 11.8229 33.2276 12.1375 32.9127C12.4522 32.5979 12.8527 32.3783 13.2912 32.2801C13.4383 32.2539 13.5874 32.241 13.7369 32.2419C14.0786 32.2453 14.4154 32.3219 14.7237 32.4661C15.0321 32.6103 15.3045 32.8187 15.5218 33.0767C15.7394 33.3349 15.8966 33.6363 15.9825 33.9601C16.0685 34.2837 16.0812 34.622 16.0197 34.9511L16.0587 34.9434Z" fill="#FF0A00"/>
<path d="M56.601 30.5664L56.4291 30.4133V24C56.427 22.2794 55.7277 20.6299 54.4851 19.4133C53.2422 18.1966 51.5572 17.5123 49.7997 17.5102H45.6954V8.24229C45.6985 7.77 45.8502 7.31006 46.13 6.9252C46.4097 6.54034 46.804 6.24926 47.259 6.09189L47.4621 6.03069V3.52046L47.1183 3.58166C46.0052 3.78206 44.9989 4.35823 44.2748 5.20971C43.5507 6.0612 43.1543 7.13434 43.1547 8.24229V17.5102H34.3989L29.7867 2.472H32.9137V0H5.36443V2.472H8.94489V14.5407L8.54631 14.6403C5.85557 15.3274 3.3294 16.5262 1.11173 18.1683L0.869385 18.3674L2.4798 20.273L2.70643 20.1046C5.4414 18.0914 8.69494 16.8636 12.1028 16.5593C15.5104 16.2549 18.9373 16.8859 21.9992 18.3814C25.0611 19.877 27.6368 22.1779 29.4376 25.0263C31.2383 27.8746 32.193 31.1578 32.1945 34.5077V39.245H39.6524V39.3826C40.0014 41.5725 41.0689 43.5917 42.6935 45.1353C44.3183 46.6788 46.412 47.6628 48.6584 47.9388C49.0451 47.9801 49.4339 48.0005 49.8231 48C52.3311 48.0043 54.7506 47.093 56.6087 45.4438C57.6824 44.5104 58.5417 43.3649 59.1303 42.0826C59.7188 40.8005 60.0231 39.4107 60.0231 38.005C60.0231 36.5995 59.7188 35.2097 59.1303 33.9274C58.5417 32.6453 57.6824 31.4998 56.6087 30.5664H56.601ZM11.47 2.472H27.1521L31.7644 17.5102H25.5104L25.3775 17.4261C21.9447 15.1863 17.9094 13.9958 13.784 14.005C13.2133 14.005 12.627 14.005 12.0407 14.0817L11.47 14.1276V2.472ZM34.3989 31.0944L34.2975 30.4821H42.9983L42.2166 31.3776C40.9283 32.7811 40.0743 34.5142 39.754 36.3749L39.6837 36.8035H34.7195V34.5077C34.7099 33.3631 34.6028 32.2214 34.3989 31.0944ZM51.0975 45.4209C50.0833 45.6403 49.0341 45.6562 48.0135 45.4677C46.9928 45.2791 46.0218 44.8899 45.1592 44.3235C44.2964 43.7573 43.5599 43.0257 42.9942 42.173C42.4285 41.3203 42.0452 40.3641 41.8674 39.3622C41.6898 38.3606 41.7213 37.3339 41.9603 36.3442C42.1993 35.3547 42.6407 34.4229 43.2579 33.6051C43.8752 32.7873 44.6552 32.1003 45.5512 31.5861C46.4471 31.0716 47.4404 30.7404 48.4707 30.6122C48.9021 30.5417 49.3388 30.5059 49.7763 30.505C50.8941 30.5074 51.9983 30.7483 53.0115 31.2108C54.0248 31.6735 54.9227 32.3467 55.6431 33.1838C56.3634 34.0207 56.8887 35.0014 57.1823 36.0574C57.4761 37.1134 57.5312 38.2195 57.3436 39.2985C57.0697 40.823 56.3233 42.228 55.2061 43.3233C54.0887 44.4185 52.6544 45.1507 51.0975 45.4209ZM53.1925 28.5842C52.1031 28.2053 50.9557 28.0113 49.7997 28.0102H33.6172L33.4923 27.6658C32.5791 25.1436 31.1687 22.8214 29.3411 20.8317L28.5592 19.9745H49.7997C50.8876 19.9766 51.9303 20.4005 52.6995 21.1536C53.4688 21.9065 53.9019 22.9274 53.9039 23.9923V28.8214L53.1925 28.5842Z" fill="#FF0A00"/>
</svg>
