<svg width="46" height="55" viewBox="0 0 46 55" fill="none" xmlns="http://www.w3.org/2000/svg">
<path d="M22.9453 0C25.7483 1.11289 28.5513 2.22865 31.3557 3.33724C35.6254 5.02305 39.8993 6.70312 44.169 8.38893C44.9869 8.7112 45.2117 9.04206 45.2103 9.93438C45.206 14.0322 45.2361 18.1314 45.1745 22.2277C45.11 26.4215 44.7362 30.5852 43.5245 34.6314C41.9533 39.8764 38.8509 44.0731 34.6944 47.5492C31.1609 50.504 27.2193 52.8172 23.1286 54.8954C23.0656 54.927 23.0069 54.9656 22.9467 55.0014H22.3022C18.7415 53.1624 15.2568 51.1944 12.0628 48.7552C8.27292 45.8605 5.0875 42.4546 3.04362 38.0818C1.63568 35.0697 0.890887 31.8799 0.497006 28.5971C-0.0730457 23.8563 -0.00286339 19.0953 0.0100272 14.3358C0.0143241 12.8677 0.0243502 11.401 0.0358085 9.93294C0.0429699 9.02344 0.272137 8.70833 1.12865 8.37175C8.1082 5.62318 15.0892 2.87318 22.0688 0.123177C22.149 0.0916667 22.2234 0.0415365 22.3008 0C22.5156 0 22.7305 0 22.9453 0ZM42.6365 18.1801C42.6365 15.7996 42.625 13.4191 42.6465 11.0387C42.6508 10.6376 42.4889 10.4858 42.1509 10.354C35.7643 7.84896 29.3835 5.32956 22.9954 2.82878C22.7892 2.74857 22.497 2.73997 22.2936 2.81875C15.8727 5.33385 9.45885 7.86758 3.03789 10.3827C2.68412 10.5216 2.60247 10.7035 2.60247 11.0516C2.60391 13.074 2.56237 15.0964 2.57383 17.1187C2.59961 21.3598 2.62253 25.5979 3.26563 29.8089C4.19375 35.8904 6.91224 40.9664 11.5586 45.0112C14.8328 47.8615 18.5023 50.103 22.3395 52.091C22.5042 52.177 22.7964 52.1583 22.9682 52.0695C26.0362 50.4754 28.9753 48.6807 31.7525 46.6125C38.2207 41.7971 41.6911 35.3533 42.2813 27.3482L42.6365 18.1801Z" fill="#FF0A00"/>
<path d="M20.247 32.1476C20.0808 31.9614 19.9605 31.8296 19.8431 31.695C18.2045 29.8244 16.5689 27.9495 14.926 26.0818C14.2972 25.3671 13.5567 25.2583 12.9595 25.771C12.3651 26.2809 12.3651 27.0629 12.9752 27.7605C14.9991 30.0793 17.0243 32.3968 19.0553 34.7085C19.7199 35.4662 20.4504 35.4977 21.188 34.8002C25.6754 30.5592 30.1584 26.3167 34.6415 22.0714C35.3118 21.4355 35.3748 20.6491 34.8234 20.0891C34.2806 19.5391 33.53 19.5778 32.8726 20.1994C30.1813 22.7446 27.4929 25.2926 24.8017 27.8378C23.2963 29.2629 21.7896 30.6866 20.247 32.1461V32.1476Z" fill="#1B1B24"/>
<path d="M20.247 32.1481C21.7896 30.6886 23.2963 29.2649 24.8017 27.8398C27.4915 25.2931 30.1813 22.7465 32.8726 20.2014C33.53 19.5797 34.2806 19.5411 34.8234 20.0911C35.3748 20.6511 35.3132 21.4374 34.6415 22.0734C30.1599 26.3187 25.6754 30.5625 21.188 34.8021C20.4504 35.4997 19.7199 35.4681 19.0553 34.7105C17.0243 32.3987 14.9991 30.0813 12.9752 27.7624C12.3651 27.0635 12.3651 26.2829 12.9595 25.773C13.5567 25.2602 14.2972 25.3691 14.926 26.0838C16.5689 27.9515 18.2045 29.8249 19.8431 31.6969C19.9605 31.8316 20.0808 31.9633 20.247 32.1495V32.1481Z" fill="#FF0A00"/>
</svg>
