<svg width="57" height="58" viewBox="0 0 57 58" fill="none" xmlns="http://www.w3.org/2000/svg">
<path d="M7.24234 36.2293C6.49569 35.3116 5.70237 34.4405 5.0335 33.4916C-3.63075 21.4052 3.18243 4.29449 17.7576 1.43233C28.5218 -0.683172 39.0683 6.06778 41.666 16.7386C41.7438 17.0809 41.8993 17.252 42.226 17.392C49.6769 20.5186 54.0946 26.1029 55.1368 34.0827C55.9612 40.3825 54.0013 45.9358 49.6925 50.6334C49.5525 50.789 49.4125 50.9445 49.2258 51.1312C50.828 52.1578 52.3991 53.1534 53.9701 54.1489C54.5301 54.5067 55.0746 54.8644 55.6501 55.2066C56.0857 55.4711 56.3656 55.8289 56.2101 56.3577C56.0545 56.8866 55.6501 57.0422 55.1212 57.0422C51.5124 57.0422 47.8881 57.0422 44.2793 57.0422C41.1993 57.0422 38.135 57.0422 35.0706 57.0422C25.7375 57.0422 18.0065 51.3801 15.1599 42.4981C15.1288 42.3892 15.0822 42.2803 15.0199 42.1092H14.3511C10.0734 42.1092 5.7957 42.1092 1.51802 42.0936C1.20692 42.0936 0.833594 42.0158 0.600266 41.8447C0.0558341 41.4559 0.180276 40.7248 0.833594 40.3048C2.8091 39.0292 4.80017 37.7848 6.77568 36.5093C6.93123 36.4315 7.08678 36.3226 7.24234 36.2293ZM4.5824 40.1492L4.61351 40.2581H5.04905C10.6023 40.2581 16.171 40.2737 21.7242 40.2425C22.7664 40.2425 23.8242 40.1648 24.8508 39.9781C34.8528 38.2826 41.6349 28.9339 40.1882 18.8697C38.6483 8.13662 28.1641 0.965679 17.6021 3.37673C5.08016 6.23889 -0.893032 20.5808 5.92014 31.4694C6.85346 32.9627 7.97343 34.2849 9.28007 35.4671C9.98005 36.1049 9.91783 36.696 9.12451 37.2248C8.76674 37.4582 8.40898 37.6759 8.03565 37.9093C6.90012 38.6715 5.73348 39.4026 4.5824 40.1492ZM42.1793 19.3675C42.1793 19.5697 42.1637 19.6941 42.1793 19.803C42.5371 23.8007 41.806 27.6117 39.8927 31.1116C36.5639 37.1937 31.4618 40.8803 24.5708 41.8603C22.362 42.1714 20.0754 42.0314 17.8199 42.1092C17.571 42.1092 17.3221 42.1092 17.0266 42.1092C17.1043 42.3892 17.151 42.5914 17.2288 42.7936C19.8576 50.1668 26.8419 55.1444 34.6817 55.1755C40.2971 55.2066 45.9126 55.1755 51.5435 55.1755C51.6835 55.1755 51.8235 55.1444 52.0724 55.1289C50.5013 54.1178 49.0236 53.1845 47.5458 52.2512C46.5814 51.6445 46.5503 51.0845 47.3903 50.3223C55.0435 43.2758 55.5879 31.6405 48.6036 23.9251C46.7992 21.9341 44.6681 20.4408 42.1793 19.3675Z" fill="#FF0A00"/>
<path d="M55.1365 57.2907C52.5077 57.2907 49.8788 57.2907 47.25 57.2907H35.0547C30.4348 57.2907 26.0949 55.9063 22.5328 53.3085C18.9707 50.6953 16.3418 46.9931 14.9263 42.5755C14.9108 42.5132 14.8796 42.4355 14.8485 42.3577H11.9242C8.50201 42.3577 4.97098 42.3577 1.50217 42.3421C1.29996 42.3421 0.80219 42.311 0.444421 42.0466C0.148872 41.8288 -0.00667917 41.5333 0.00887603 41.1911C0.0244312 40.7866 0.273313 40.3822 0.693304 40.1177C2.04661 39.2467 3.41546 38.3756 4.76877 37.52C5.39097 37.1311 6.01318 36.7267 6.63539 36.3378C6.71316 36.2912 6.8065 36.2289 6.88427 36.1823C6.69761 35.949 6.51095 35.7312 6.32429 35.5134C5.82652 34.9068 5.29764 34.2845 4.83099 33.6468C0.724415 27.9069 -0.162232 20.5493 2.45104 13.9539C5.07987 7.34295 10.7731 2.58306 17.7107 1.22976C22.9839 0.203113 28.3816 1.22976 32.9081 4.12302C37.4347 7.01629 40.6235 11.4962 41.899 16.7072C41.9612 16.9716 42.0701 17.0805 42.319 17.1894C49.9255 20.3938 54.3276 26.0714 55.3854 34.0668C56.2098 40.2888 54.3587 45.9198 49.8788 50.8042C49.7855 50.8975 49.7077 50.9908 49.5988 51.0997L54.1098 53.9774C54.281 54.0863 54.4521 54.1952 54.6076 54.3041C54.9965 54.553 55.3854 54.8018 55.7743 55.0507C56.3809 55.4241 56.5987 55.9063 56.4276 56.4663C56.272 57.0107 55.8365 57.2907 55.1365 57.2907ZM50.2366 56.824C51.8699 56.824 53.5032 56.824 55.1365 56.824C55.6343 56.824 55.8831 56.6685 55.992 56.3107C56.1009 55.9529 55.9609 55.6885 55.5409 55.4241C55.152 55.1752 54.7476 54.9263 54.3743 54.6774C54.2032 54.5685 54.0476 54.4596 53.8765 54.3507L48.8989 51.1775L49.21 50.8353C49.3344 50.6953 49.4433 50.5864 49.5522 50.4619C53.9232 45.6865 55.7431 40.1955 54.9343 34.0979C53.9076 26.2736 49.5988 20.7204 42.1635 17.5783C41.7746 17.4072 41.5724 17.1738 41.4635 16.7694C38.8813 6.19186 28.506 -0.465761 17.8196 1.63419C11.0375 2.95638 5.46875 7.60738 2.90214 14.0783C0.335535 20.5338 1.20663 27.7203 5.21987 33.3357C5.67097 33.9734 6.16873 34.5645 6.69761 35.1867C6.91538 35.4512 7.13315 35.7156 7.35093 35.9801H8.00425L7.24204 36.4934C7.13315 36.5712 7.02427 36.6489 6.91538 36.7112C6.29317 37.1 5.67097 37.5045 5.04876 37.8933C3.6799 38.7644 2.3266 39.62 0.973298 40.4911C0.693304 40.6777 0.522197 40.9266 0.506642 41.1755C0.506642 41.3622 0.584418 41.5177 0.755525 41.6422C0.926632 41.7666 1.22218 41.8444 1.53328 41.8444C5.00209 41.8599 8.53312 41.8599 11.9553 41.8599H15.2063L15.3152 42.1555C15.3463 42.2488 15.3774 42.3266 15.4085 42.4044C18.2085 51.1464 25.9238 56.7929 35.0858 56.7929H47.2811C48.2611 56.824 49.2411 56.824 50.2366 56.824ZM41.1679 55.4241C39.0058 55.4241 36.828 55.4241 34.6659 55.4085C26.7638 55.3618 19.6706 50.3375 16.9951 42.871C16.9485 42.731 16.9174 42.6066 16.8707 42.451C16.8552 42.3732 16.824 42.2799 16.7929 42.1866L16.6996 41.891H17.0107C17.1196 41.891 17.2129 41.891 17.3218 41.891C17.4929 41.891 17.6485 41.891 17.804 41.891C18.504 41.8755 19.2195 41.8755 19.904 41.8599C21.4284 41.8599 23.015 41.8599 24.5239 41.6422C31.2437 40.6933 36.3458 37.1156 39.6746 31.018C41.5412 27.6114 42.2879 23.847 41.9301 19.8338C41.9301 19.7404 41.9301 19.6627 41.9301 19.5693C41.9301 19.5382 41.9301 19.5071 41.9301 19.4604L41.1368 18.6671L42.2568 19.1493C44.8078 20.2538 46.9389 21.7626 48.7433 23.7537C52.1655 27.5336 53.9076 32.3713 53.6743 37.38C53.441 42.3888 51.2477 47.0398 47.5144 50.4931C47.1411 50.8353 46.97 51.0997 47.0011 51.333C47.0167 51.5508 47.2345 51.7997 47.6544 52.0641C48.65 52.7019 49.6611 53.3397 50.6877 54.0085L52.741 55.3152L52.0721 55.3774C51.9943 55.3929 51.9166 55.3929 51.8543 55.4085C51.7299 55.4241 51.621 55.4396 51.5277 55.4396C49.8944 55.4396 48.2611 55.4396 46.6434 55.4396C44.839 55.4241 43.0034 55.4241 41.1679 55.4241ZM17.3218 42.3577C17.3529 42.4977 17.3996 42.6066 17.4307 42.7155C20.0284 49.9953 26.9505 54.9107 34.6659 54.9418C38.648 54.9574 42.7079 54.9574 46.6278 54.9574C48.1989 54.9574 49.7544 54.9574 51.3255 54.9574L50.4388 54.3974C49.3966 53.7441 48.4011 53.1063 47.4056 52.453C46.8456 52.0952 46.5811 51.753 46.55 51.3797C46.5189 50.9908 46.7211 50.6019 47.2189 50.1508C54.7943 43.1666 55.3232 31.7179 48.4166 24.0803C46.7367 22.2137 44.7767 20.7982 42.4123 19.7404C42.4123 19.7715 42.4123 19.7871 42.4123 19.8027C42.7857 23.9092 42.0079 27.7669 40.0946 31.2513C36.688 37.4889 31.477 41.1444 24.6016 42.1088C23.0617 42.3266 21.4595 42.3266 19.9195 42.3266C19.2351 42.3266 18.5196 42.3266 17.8196 42.3577C17.664 42.3577 17.4929 42.3577 17.3218 42.3577ZM13.3552 40.4911C11.9708 40.4911 10.5864 40.4911 9.21755 40.4911C7.83314 40.4911 6.43317 40.4911 5.04876 40.4911H4.44211L4.411 40.3822H3.78879L7.92647 37.7378C8.05091 37.66 8.17535 37.5822 8.29979 37.5045C8.53312 37.3489 8.76645 37.2089 8.99978 37.0534C9.34199 36.8356 9.5131 36.6023 9.52866 36.3845C9.54421 36.1667 9.40421 35.9178 9.12422 35.669C7.78647 34.4557 6.63539 33.0868 5.71763 31.6246C2.43549 26.367 1.92217 20.0827 4.28655 14.3583C6.6665 8.63403 11.5042 4.55857 17.5551 3.17415C22.6572 2.00751 28.0704 3.04971 32.4259 6.02076C36.7658 9.00735 39.6902 13.6739 40.4368 18.8538C41.1524 23.7848 39.9391 28.7002 37.0147 32.7135C34.1059 36.7267 29.7971 39.3866 24.8972 40.2266C23.9017 40.3977 22.8439 40.4755 21.7239 40.4911C18.9551 40.4911 16.1396 40.4911 13.3552 40.4911ZM5.21987 40.0244C6.55761 40.0244 7.89536 40.0244 9.21755 40.0244C13.3241 40.0244 17.5551 40.0244 21.7239 40.0089C22.8128 40.0089 23.855 39.9155 24.8194 39.76C34.7592 38.0645 41.4012 28.918 39.9702 18.916C39.2391 13.8761 36.3925 9.3029 32.1615 6.40964C27.9149 3.48526 22.6417 2.47417 17.664 3.6097C11.7686 4.963 7.05538 8.92958 4.7221 14.5139C2.40438 20.0982 2.9177 26.227 6.10651 31.3602C7.00871 32.7912 8.12869 34.129 9.43532 35.3112C9.83976 35.669 10.0264 36.0423 9.99531 36.4156C9.9642 36.7889 9.71532 37.1311 9.26422 37.4422C9.03089 37.5978 8.79756 37.7534 8.54868 37.8933C8.42424 37.9711 8.29979 38.0489 8.17535 38.1267L5.21987 40.0244Z" fill="#FF0A00"/>
<path d="M18.9396 19.6932H17.1041C17.0264 18.0443 16.9486 16.4421 18.0374 15.0577C18.9708 13.8755 20.1841 13.2222 21.6929 13.1911C22.424 13.1755 23.1862 13.1911 23.8862 13.3777C25.6595 13.86 26.795 15.0577 27.215 16.8466C27.635 18.6665 27.0906 20.2376 25.6906 21.4664C24.8817 22.182 24.0106 22.8509 23.1395 23.5042C22.7973 23.7686 22.6262 24.0331 22.6573 24.4686C22.704 25.0286 22.6729 25.5886 22.6729 26.1952H20.8218C20.8218 25.2308 20.7907 24.2664 20.8374 23.302C20.8529 23.0531 21.0863 22.7886 21.304 22.602C22.2685 21.7931 23.264 21.0153 24.244 20.222C25.3484 19.3354 25.7217 18.1221 25.2862 16.9088C24.8817 15.7421 23.7929 15.0266 22.424 15.0266C21.9573 15.0266 21.4907 15.0266 21.0396 15.1355C19.8418 15.4621 18.9863 16.5355 18.9396 17.7799C18.9241 18.4021 18.9396 19.0243 18.9396 19.6932Z" fill="#FF0A00"/>
<path d="M22.906 26.4446H20.5883V26.2113C20.5883 25.9468 20.5883 25.6979 20.5883 25.4335C20.5883 24.7335 20.5728 24.018 20.6194 23.3024C20.635 22.9136 21.0083 22.5714 21.1639 22.4469C21.8172 21.9025 22.4861 21.3736 23.1238 20.8603C23.4505 20.5958 23.7771 20.3314 24.1194 20.067C25.1304 19.2425 25.4882 18.1381 25.0993 17.0181C24.6949 15.9293 23.7149 15.2915 22.4549 15.2915H22.4394H22.4238C21.9883 15.2915 21.5216 15.2915 21.1172 15.4004C20.0283 15.6648 19.235 16.6448 19.1884 17.7959C19.1728 18.2159 19.1728 18.6203 19.1884 19.0559C19.1884 19.2581 19.1884 19.4759 19.1884 19.6936V19.927H16.8706L16.8551 19.647C16.7773 18.0292 16.7151 16.3493 17.8351 14.9182C18.8306 13.6582 20.1217 12.9894 21.6772 12.9738C22.3772 12.9582 23.186 12.9582 23.9327 13.1605C25.7838 13.6582 26.9971 14.9182 27.4326 16.8004C27.8682 18.667 27.3082 20.347 25.8304 21.6536C24.9904 22.4002 24.0727 23.1002 23.2794 23.7069C22.9683 23.9402 22.8594 24.1424 22.8905 24.4691C22.9216 24.8735 22.9216 25.2624 22.906 25.6668C22.906 25.8379 22.906 26.0246 22.906 26.2113V26.4446ZM21.055 25.9779H22.4394C22.4394 25.8691 22.4394 25.7757 22.4394 25.6668C22.4394 25.2624 22.4549 24.8891 22.4238 24.5002C22.3772 23.8935 22.6883 23.5669 22.9994 23.3336C23.7927 22.7269 24.6949 22.0425 25.5349 21.2958C26.8882 20.0981 27.3859 18.6203 26.9815 16.9093C26.5926 15.1982 25.5038 14.0627 23.8238 13.6116C23.1394 13.4249 22.3616 13.4249 21.6927 13.4405C20.2928 13.456 19.1261 14.0627 18.2084 15.2137C17.2128 16.4737 17.244 17.9203 17.3217 19.4603H18.7061C18.7061 19.3203 18.7061 19.1959 18.7061 19.0714C18.7061 18.6359 18.6906 18.2159 18.7061 17.7804C18.7528 16.427 19.6861 15.2604 20.9928 14.9493C21.4594 14.8404 21.9416 14.8404 22.4083 14.8249H22.4238H22.4394C23.886 14.8249 25.0527 15.6026 25.5038 16.8626C25.9704 18.1848 25.566 19.4759 24.3838 20.4403C24.0571 20.7047 23.7305 20.9692 23.3883 21.2336C22.7505 21.7469 22.0816 22.2758 21.4283 22.8202C21.2105 23.0069 21.055 23.2247 21.055 23.3491C21.0239 24.0491 21.0239 24.7491 21.0239 25.4491C21.055 25.6046 21.055 25.7913 21.055 25.9779Z" fill="#FF0A00"/>
<path d="M22.6419 29.9607H20.853V28.1562H22.6419V29.9607Z" fill="#FF0A00"/>
<path d="M22.8751 30.1939H20.6196V27.9229H22.8751V30.1939ZM21.0863 29.7273H22.4085V28.3895H21.0863V29.7273Z" fill="#FF0A00"/>
<path d="M27.355 43.9914C28.3661 44.007 29.206 44.847 29.1905 45.8736C29.1905 46.8847 28.3505 47.7247 27.3239 47.7247C26.2817 47.7247 25.4417 46.8536 25.4572 45.8114C25.4884 44.7847 26.3439 43.9759 27.355 43.9914Z" fill="#FF0A00"/>
<path d="M27.3395 47.9423C26.7795 47.9423 26.2506 47.7245 25.8462 47.3045C25.4418 46.9001 25.224 46.3557 25.2395 45.7957C25.2707 44.6446 26.2195 43.7268 27.3706 43.7424C28.5217 43.7579 29.4395 44.7068 29.4395 45.8579C29.4239 47.009 28.4906 47.9423 27.3395 47.9423ZM27.3395 44.2246C26.4529 44.2246 25.7218 44.9401 25.7062 45.8112C25.6906 46.2468 25.8618 46.6668 26.1729 46.9779C26.484 47.3045 26.904 47.4756 27.3395 47.4756C28.2261 47.4756 28.9572 46.7445 28.9728 45.8579C28.9728 44.9868 28.2417 44.2246 27.3706 44.209C27.3551 44.2246 27.3395 44.2246 27.3395 44.2246Z" fill="#FF0A00"/>
<path d="M34.7907 43.9912C35.8018 43.9912 36.6574 44.8156 36.6574 45.8423C36.6729 46.8845 35.8018 47.74 34.7752 47.7245C33.7641 47.7089 32.9241 46.8689 32.9397 45.8578C32.9397 44.8156 33.7796 43.9912 34.7907 43.9912Z" fill="#FF0A00"/>
<path d="M34.8062 47.9421C34.7906 47.9421 34.7906 47.9421 34.7751 47.9421C33.624 47.9265 32.6907 46.9777 32.7062 45.8266C32.7062 44.6755 33.6551 43.7422 34.7906 43.7422H35.024V43.7577C36.0662 43.8666 36.8906 44.7533 36.8906 45.8266C36.8906 46.3866 36.6728 46.931 36.2684 47.3354C35.8795 47.7243 35.3506 47.9421 34.8062 47.9421ZM34.7284 44.2244C33.8729 44.2711 33.1729 44.971 33.1729 45.8421C33.1729 46.7132 33.904 47.4754 34.7906 47.4754C35.2262 47.491 35.6462 47.3043 35.9573 46.9932C36.2684 46.6821 36.4395 46.2621 36.4395 45.8266C36.4239 44.9399 35.6928 44.2088 34.8062 44.2088L34.7284 44.2244Z" fill="#FF0A00"/>
<path d="M44.139 45.8422C44.139 46.8533 43.299 47.6933 42.2879 47.7088C41.2457 47.7244 40.3902 46.8533 40.4057 45.8111C40.4213 44.8 41.2613 43.9756 42.2879 43.9756C43.299 43.9911 44.139 44.8311 44.139 45.8422Z" fill="#FF0A00"/>
<path d="M42.2723 47.9421C41.7123 47.9421 41.199 47.7243 40.7946 47.3199C40.3901 46.9154 40.1724 46.371 40.1724 45.811C40.1879 44.6755 41.1212 43.7422 42.2723 43.7422H42.2879C43.439 43.7422 44.3723 44.6911 44.3723 45.8421C44.3723 46.9932 43.439 47.9265 42.2879 47.9421H42.2723ZM42.2723 44.2244C41.3857 44.2244 40.6546 44.9399 40.639 45.8266C40.639 46.2621 40.8101 46.6821 41.1212 46.9932C41.4323 47.3043 41.8523 47.4754 42.2879 47.4754C43.1745 47.4599 43.9056 46.7288 43.9056 45.8421C43.9056 44.9555 43.1745 44.2244 42.2723 44.2244Z" fill="#FF0A00"/>
</svg>
