<svg width="77" height="55" viewBox="0 0 77 55" fill="none" xmlns="http://www.w3.org/2000/svg">
<path d="M61.4475 17.4082H57.0289L58.425 1.56714C58.425 1.56714 58.425 1.48887 58.425 1.4453C58.4246 1.16628 58.3404 0.893392 58.1833 0.661123C58.0261 0.429065 57.8027 0.247565 57.5414 0.139681L57.4441 0.0614119L57.3557 0.3747V0.0265071L34.3955 0.00048885C34.1975 -0.0149535 33.9985 0.0104308 33.8106 0.074527C33.623 0.138623 33.4508 0.240373 33.3049 0.373219C33.1591 0.505854 33.0428 0.667047 32.963 0.846432C32.8835 1.02561 32.8424 1.21916 32.8424 1.41484C32.8424 1.61051 32.8835 1.80407 32.963 1.98324C33.0428 2.16262 33.1591 2.32382 33.3049 2.45645C33.4508 2.5893 33.623 2.69105 33.8106 2.75514C33.9985 2.81924 34.1975 2.84462 34.3955 2.82918H55.4557L52.7603 33.3538H15.0235L15.6069 27.47H22.6239C22.9854 27.4421 23.3228 27.2809 23.5688 27.0188C23.815 26.7565 23.9517 26.4128 23.9517 26.0557C23.9517 25.6986 23.815 25.3546 23.5688 25.0925C23.3228 24.8302 22.9854 24.6693 22.6239 24.6411H15.8542L17.1446 11.4982H28.4921C28.8534 11.4703 29.1908 11.3093 29.4371 11.047C29.6831 10.7849 29.82 10.441 29.82 10.0839C29.82 9.72682 29.6831 9.38285 29.4371 9.12076C29.1908 8.85866 28.8534 8.69747 28.4921 8.66955H17.4274L18.0017 2.83785H29.968C30.3294 2.80993 30.6668 2.64895 30.913 2.38664C31.159 2.12455 31.2957 1.78058 31.2957 1.42351C31.2957 1.06643 31.159 0.722469 30.913 0.460373C30.6668 0.198276 30.3294 0.0370847 29.968 0.0091616H16.7116C16.3809 0.00725775 16.0596 0.116623 15.8007 0.319276C15.542 0.52193 15.3613 0.805604 15.2888 1.12333L14.5463 8.70445H1.44011C1.07868 8.73237 0.74123 8.89335 0.495126 9.15566C0.249001 9.41776 0.112305 9.76172 0.112305 10.1188C0.112305 10.4759 0.249001 10.8196 0.495126 11.0819C0.74123 11.344 1.07868 11.5052 1.44011 11.5331H14.2634L12.9733 24.676H9.32337C8.96185 24.704 8.62444 24.8651 8.37821 25.1272C8.13219 25.3895 7.99554 25.7333 7.99554 26.0904C7.99554 26.4475 8.13219 26.7914 8.37821 27.0535C8.62444 27.3158 8.96185 27.4768 9.32337 27.5047H12.6904L10.8522 46.192V46.3923C10.8522 46.3923 10.8522 46.4706 10.8522 46.5315C10.8522 46.5925 10.8522 46.6098 10.8522 46.6707V46.8275C10.9179 47.0295 11.0298 47.2142 11.1792 47.3671L11.2498 47.4367C11.348 47.5241 11.458 47.5973 11.5769 47.6544L11.8066 47.7413H11.9568H16.8618C17.2025 49.7531 18.2569 51.5805 19.837 52.8986C21.4172 54.2167 23.4209 54.9402 25.4917 54.9402C27.5624 54.9402 29.5661 54.2167 31.1463 52.8986C32.7265 51.5805 33.7808 49.7531 34.1216 47.7413H51.3461C51.6869 49.7531 52.7412 51.5805 54.3214 52.8986C55.9016 54.2167 57.9053 54.9402 59.976 54.9402C62.047 54.9402 64.0507 54.2167 65.6309 52.8986C67.2111 51.5805 68.2652 49.7531 68.6062 47.7413H73.4138H73.5818L73.9617 47.5935L73.7937 47.3149L74.0766 47.5239L74.4389 47.1583L74.492 47.0712L74.5449 46.9842V46.8971L74.6333 46.5576C74.6333 46.488 75.5171 39.4465 75.9324 34.8944C76.0561 33.4932 76.1181 32.4748 76.1181 31.8567C76.1042 28.0289 74.554 24.3619 71.8057 21.6553C69.0576 18.9486 65.3341 17.4219 61.4475 17.4082ZM56.2864 26.1122L56.8078 20.2284H60.6699L60.1484 26.1122H56.2864ZM59.9718 40.6216C61.134 40.6216 62.2704 40.9611 63.2369 41.597C64.2032 42.2331 64.9565 43.137 65.4014 44.1947C65.8462 45.2524 65.9626 46.416 65.7358 47.5389C65.509 48.6617 64.9493 49.693 64.1275 50.5025C63.3054 51.3119 62.2583 51.8632 61.1184 52.0865C59.9782 52.3099 58.7965 52.1953 57.7227 51.7572C56.6488 51.3191 55.7309 50.5772 55.0851 49.6253C54.4395 48.6736 54.0946 47.5545 54.0946 46.4097C54.0923 45.6477 54.2425 44.8928 54.5368 44.1881C54.831 43.4833 55.2634 42.8425 55.8092 42.3025C56.3551 41.7626 57.0037 41.3338 57.7179 41.0409C58.4322 40.7481 59.198 40.5966 59.9718 40.5956V40.6216ZM25.505 40.6216C26.6674 40.6216 27.8036 40.9611 28.7701 41.597C29.7366 42.2331 30.4899 43.137 30.9346 44.1947C31.3794 45.2524 31.4958 46.416 31.269 47.5389C31.0422 48.6617 30.4825 49.693 29.6607 50.5025C28.8386 51.3119 27.7915 51.8632 26.6515 52.0865C25.5116 52.3099 24.3299 52.1953 23.2559 51.7572C22.1819 51.3191 21.2641 50.5772 20.6185 49.6253C19.9726 48.6736 19.628 47.5545 19.628 46.4097C19.6255 45.6441 19.7772 44.8856 20.0742 44.178C20.3712 43.4704 20.8076 42.8277 21.358 42.287C21.9086 41.7465 22.5625 41.3186 23.2817 41.0284C24.0012 40.7379 24.7718 40.5909 25.5492 40.5956L25.505 40.6216ZM54.6692 36.0695L54.519 35.7735L54.784 36.0086L54.6339 35.6864L54.9078 35.9041L55.0138 35.8258L55.3497 35.408L55.058 35.2599H55.4115L56.0389 28.8799H61.4475C64.6821 28.8799 66.0963 30.4728 67.7313 32.3616C69.0392 33.8414 70.5151 35.5125 72.9808 36.0172C72.6713 39.1941 72.1941 43.1196 71.9732 44.9562H68.6062C68.2652 42.9445 67.2111 41.117 65.6309 39.7989C64.0507 38.4808 62.047 37.7574 59.976 37.7574C57.9053 37.7574 55.9016 38.4808 54.3214 39.7989C52.7412 41.117 51.6869 42.9445 51.3461 44.9562H34.1747C33.8339 42.9445 32.7796 41.117 31.1994 39.7989C29.6192 38.4808 27.6155 37.7574 25.5448 37.7574C23.474 37.7574 21.4703 38.4808 19.8901 39.7989C18.3099 41.117 17.2556 42.9445 16.9148 44.9562H13.8571L14.7407 36.1651H54.2448H54.4041L54.6692 36.0695ZM63.0207 26.1993L63.5333 20.3936C66.2556 20.8937 68.7155 22.3129 70.4899 24.4067C72.2643 26.5005 73.242 29.1382 73.2547 31.8654C73.2547 32.1702 73.2547 32.614 73.2016 33.171C71.8759 32.7708 70.9834 31.7611 69.8788 30.5164C68.394 28.8017 66.5293 26.6954 63.0207 26.1993Z" fill="#FF0A00"/>
<path d="M12.2419 18.7927C12.2325 18.4225 12.0766 18.0705 11.8076 17.8118C11.5385 17.5533 11.1772 17.4086 10.8013 17.4086H5.39266C5.19466 17.3934 4.99539 17.4186 4.80776 17.4827C4.62012 17.5467 4.44793 17.6485 4.30197 17.7813C4.15607 17.9142 4.03966 18.0754 3.96006 18.2546C3.88046 18.4339 3.83936 18.6275 3.83936 18.8232C3.83936 19.0188 3.88046 19.2124 3.96006 19.3916C4.03966 19.5707 4.15607 19.7319 4.30197 19.8648C4.44793 19.9976 4.62012 20.0994 4.80776 20.1635C4.99539 20.2276 5.19466 20.2528 5.39266 20.2375H10.8013C10.9927 20.2375 11.1823 20.1999 11.3587 20.1271C11.5353 20.0541 11.6952 19.9473 11.8294 19.8128C11.9635 19.6782 12.069 19.5187 12.1399 19.3436C12.2108 19.1684 12.2452 18.9812 12.2419 18.7927Z" fill="#FF0A00"/>
</svg>
