<svg width="60" height="55" viewBox="0 0 60 55" fill="none" xmlns="http://www.w3.org/2000/svg">
<path d="M10.4256 33.4228C12.5727 33.307 14.6557 33.1382 16.7402 33.0991C19.2782 33.0506 21.7209 33.4994 24.1197 34.4298C26.7688 35.4572 29.5023 36.2689 32.2248 37.093C33.0317 37.3369 33.9215 37.3479 34.7769 37.387C37.4479 37.5089 39.3745 39.1322 39.9077 41.7515C39.9265 41.8453 39.9593 41.9376 40.0047 42.0955C40.4269 41.9313 40.8366 41.7781 41.2416 41.6139C45.2762 39.986 49.3092 38.3565 53.3422 36.727C55.4549 35.8732 57.7537 36.6895 58.7561 38.6474C59.7522 40.5959 59.0594 43.0823 57.1563 44.2457C53.5924 46.4225 49.9988 48.5524 46.4444 50.7464C43.5873 52.5104 40.4644 53.494 37.1899 54.0585C30.8925 55.1453 24.5529 55.2063 18.2055 54.6825C15.6393 54.4714 13.0872 54.0867 10.5273 53.7989C10.3553 53.7802 10.1629 53.9021 9.98777 53.9741C9.56867 54.1461 9.1574 54.4745 8.7383 54.4823C6.35509 54.5323 3.97031 54.5183 1.5871 54.5011C0.542486 54.4932 0.00454295 53.9272 0.00454295 52.8888C0.00141537 46.4397 0.00141537 39.9922 0.00454295 33.5432C0.00454295 32.4438 0.558124 31.9043 1.6778 31.9028C3.90619 31.8996 6.13303 31.9028 8.36143 31.9028C9.80793 31.9028 10.0832 32.1107 10.4288 33.4243L10.4256 33.4228ZM10.3193 50.9388C12.5774 51.2155 14.7792 51.5299 16.9904 51.7457C23.2143 52.3555 29.435 52.3946 35.6355 51.4736C38.9601 50.9794 42.1533 50.0974 45.0495 48.2928C48.496 46.1457 51.9802 44.0596 55.4393 41.9345C55.7129 41.7656 55.9616 41.5169 56.1492 41.2542C56.4589 40.8226 56.4651 40.3394 56.1899 39.875C55.924 39.4246 55.5081 39.2229 55.003 39.2932C54.6417 39.3433 54.2805 39.4527 53.9396 39.5888C49.1059 41.5279 44.277 43.4779 39.4417 45.4155C39.1571 45.5296 38.8428 45.6297 38.5425 45.6313C34.3015 45.6453 30.0621 45.6453 25.8211 45.6359C25.0095 45.6344 24.4278 45.0558 24.3996 44.2973C24.3715 43.5452 24.9173 42.94 25.7195 42.8461C25.9118 42.8227 26.1104 42.8305 26.3043 42.8305C29.6649 42.8305 33.0271 42.8305 36.3876 42.8305C36.616 42.8305 36.8443 42.8305 37.0663 42.8305C37.1946 41.4122 36.1718 40.3253 34.7363 40.2409C33.9184 40.1924 33.0708 40.2299 32.2936 40.0188C29.9448 39.3824 27.6132 38.674 25.2941 37.9327C23.6991 37.4229 22.1697 36.6817 20.5527 36.2704C18.0632 35.6386 15.5079 35.8419 12.973 36.0656C12.0864 36.1438 11.2044 36.2704 10.3193 36.3752V50.9388ZM7.4904 34.8521H2.8522V51.6471H7.4904V34.8521Z" fill="#FF0A00"/>
<path d="M14.0757 15.4471C14.0741 6.93072 21.0345 -0.00781234 29.5713 6.60182e-06C38.108 0.00782554 45.0371 6.94479 45.0356 15.4799C45.0356 24.0151 38.0783 30.9802 29.5728 30.9615C20.997 30.9427 14.0772 24.0151 14.0757 15.4471ZM42.2192 15.4471C42.2426 8.57426 36.5661 2.85392 29.6839 2.81483C22.6437 2.77573 16.928 8.41163 16.8905 15.4283C16.8545 22.3575 22.5123 28.1091 29.4008 28.1451C36.5207 28.181 42.1957 22.5592 42.2208 15.4471H42.2192Z" fill="#FF0A00"/>
<path d="M26.1245 21.1067H24.4325V19.1175H26.0917V17.3317H24.4263V14.8984H26.1183V7.69719C26.2012 7.63307 26.2309 7.58928 26.2606 7.58928C28.231 7.60023 30.2123 7.49389 32.1701 7.65809C34.666 7.86764 36.2297 9.83801 36.236 12.4793C36.2423 14.9453 34.5346 16.9392 32.1013 17.23C31.2334 17.3332 30.3483 17.3004 29.4711 17.327C29.2427 17.3333 29.0129 17.327 28.7533 17.327V19.1097H31.9512V21.0785H28.747V23.3147H26.123V21.1035L26.1245 21.1067ZM28.7517 14.8984C29.7103 14.8984 30.6079 14.9375 31.5008 14.889C32.6596 14.8265 33.4837 13.9211 33.5525 12.7248C33.6323 11.3283 32.952 10.2587 31.7448 10.1257C30.769 10.0178 29.7697 10.1039 28.7517 10.1039V14.8984Z" fill="#FF0A00"/>
</svg>
