<svg width="55" height="55" viewBox="0 0 55 55" fill="none" xmlns="http://www.w3.org/2000/svg">
<path d="M0 45.4395C0.0873698 45.0785 0.160417 44.7147 0.263542 44.3581C1.11862 41.3918 2.9806 39.3178 5.93398 38.4184C8.61094 37.6034 10.8396 36.1997 12.799 34.2174C18.6757 28.2749 24.6039 22.3824 30.525 16.4828C30.8673 16.1419 30.9676 15.8569 30.8387 15.3699C28.9452 8.16549 33.8794 0.956771 41.2729 0.093099C41.3746 0.0816406 41.472 0.0315104 41.5723 0C42.3242 0 43.0762 0 43.8281 0C43.9828 0.0358073 44.1346 0.0916667 44.2908 0.104557C45.2619 0.190495 46.0167 0.601562 46.3432 1.56263C46.6612 2.49505 46.3432 3.26419 45.6557 3.93737C44.3523 5.21497 43.0762 6.52122 41.7757 7.80169C41.429 8.14258 41.2715 8.50924 41.3316 8.99909C41.4648 10.0991 41.5651 11.2048 41.6897 12.3063C41.757 12.9049 42.0936 13.2401 42.6952 13.3089C43.7794 13.432 44.8665 13.5266 45.9479 13.6612C46.4764 13.7271 46.8675 13.5595 47.2384 13.1828C48.5533 11.8408 49.8896 10.5202 51.2216 9.19388C51.8332 8.58516 52.5694 8.37604 53.3887 8.63529C54.2079 8.89453 54.6849 9.48893 54.841 10.3383C54.8926 10.6176 54.947 10.8969 55 11.1762V13.432C54.7909 14.3329 54.6448 15.2539 54.3626 16.1305C52.3746 22.3151 45.8076 25.8715 39.5312 24.1671C39.103 24.051 38.8552 24.1398 38.5573 24.4392C32.4758 30.535 26.3957 36.6309 20.2855 42.698C18.5267 44.4454 17.3579 46.4822 16.6389 48.8512C15.5977 52.2844 13.2315 54.2924 9.69232 54.9112C9.60925 54.9255 9.5319 54.9728 9.45169 55.0057H7.62552C7.50521 54.9728 7.38776 54.9298 7.26602 54.9098C4.06484 54.3612 1.82617 52.5866 0.584375 49.5931C0.309375 48.9185 0.190495 48.1837 0 47.4805C0 46.8001 0 46.1198 0 45.4395ZM42.7339 1.80469C35.7257 1.79036 30.6238 8.68828 32.7479 15.3771C33.0158 16.2193 32.8611 16.7492 32.248 17.3579C26.2167 23.3492 20.1853 29.3419 14.2141 35.3934C11.9868 37.6507 9.46458 39.2878 6.40664 40.1815C3.38594 41.0638 1.43229 44.2263 1.86484 47.2599C2.34896 50.6473 5.02878 53.0893 8.3388 53.1595C11.3996 53.2254 14.0938 51.2331 14.9202 48.241C15.602 45.7732 16.7908 43.609 18.6026 41.7971C25.0193 35.3805 31.4417 28.9695 37.8512 22.5457C38.3023 22.0945 38.7292 21.9842 39.3379 22.1977C40.9879 22.7763 42.6923 22.931 44.4154 22.6145C50.0844 21.5746 53.7224 16.6461 53.0635 10.9155C53.0435 10.7365 52.9346 10.5674 52.8659 10.3927C52.6883 10.4815 52.4749 10.5331 52.3402 10.6648C51.0268 11.9582 49.7206 13.2602 48.4258 14.5707C47.7254 15.2797 46.9033 15.602 45.9049 15.4874C44.7677 15.357 43.6276 15.2553 42.4904 15.1221C41.0438 14.9531 40.0469 13.982 39.875 12.5626C39.7389 11.444 39.653 10.3197 39.5112 9.20247C39.3737 8.12109 39.7174 7.25026 40.4909 6.49544C41.7971 5.2207 43.0805 3.92161 44.3609 2.62109C44.4813 2.49935 44.5156 2.29453 44.5901 2.12982C44.434 2.06393 44.2822 1.96081 44.1203 1.93789C43.6605 1.87487 43.1965 1.84479 42.7324 1.80182L42.7339 1.80469Z" fill="#FF0A00"/>
<path d="M34.8207 21.2693C34.7018 21.4354 34.5371 21.7491 34.2979 21.9883C30.9664 25.3355 27.6234 28.6728 24.2833 32.0129C21.8541 34.4421 19.4264 36.8712 16.9958 39.299C16.844 39.4508 16.6965 39.6155 16.516 39.7243C16.1164 39.965 15.7153 39.922 15.3916 39.5868C15.0679 39.2517 15.045 38.8535 15.2871 38.4553C15.3601 38.335 15.469 38.2362 15.5707 38.1345C21.4015 32.3022 27.2353 26.4714 33.0633 20.6362C33.387 20.3125 33.7278 20.0719 34.2005 20.2352C34.5929 20.3712 34.7992 20.6691 34.8207 21.2693Z" fill="#FF0A00"/>
<path d="M13.2087 46.5204C13.1987 49.1057 11.0531 51.2298 8.47213 51.2126C5.88827 51.194 3.76275 49.0456 3.78137 46.4703C3.80142 43.8764 5.92694 41.7767 8.52226 41.7881C11.1161 41.7996 13.2187 43.9237 13.2087 46.5219V46.5204ZM8.48502 43.6172C6.91236 43.6215 5.61614 44.9163 5.61327 46.4889C5.60898 48.0587 6.9009 49.3564 8.47929 49.365C10.0734 49.375 11.394 48.0544 11.3782 46.4674C11.3639 44.8991 10.0577 43.6129 8.48502 43.6172Z" fill="#FF0A00"/>
</svg>
