
<svg width="533" height="331" viewBox="0 0 533 331" fill="none" xmlns="http://www.w3.org/2000/svg">
<path d="M314.764 330.866C248.41 329.354 178.157 318.198 112.036 289.553C79.9898 275.662 50.7502 258.028 28.0603 232.333C-10.6138 188.573 -9.21034 137.111 31.647 95.0781C62.602 63.2655 101.666 42.8248 144.707 29.2936C270.554 -10.3642 396.557 -9.93235 521.78 31.6688C560.376 44.4802 595.775 63.0496 624.001 91.2635C654.566 121.709 668.445 156.544 653.085 197.641C643.65 222.76 625.093 241.978 602.871 258.244C561.546 288.329 513.671 305.315 463.145 316.687C416.44 327.195 368.954 331.586 314.764 330.938V330.866ZM328.487 327.411C388.448 327.123 447.005 320.07 503.768 302.076C547.745 288.113 588.524 269.184 621.116 237.659C667.198 193.107 666.964 138.119 621.116 93.5667C602.715 75.717 581.195 61.754 557.647 50.4541C505.094 25.2631 448.798 12.0918 390.163 6.90963C301.976 -0.863597 215.739 6.47778 132.855 37.2108C94.7265 51.3897 59.9509 70.5349 32.7387 99.7564C-4.37608 139.63 -5.54566 187.133 29.8537 228.303C54.259 256.66 86.4614 275.302 121.783 289.769C187.591 316.759 257.142 326.907 328.565 327.411H328.487Z" fill="white" fill-opacity="0.2"/>
<path d="M297.138 143.159C298.619 142.08 299.243 141.432 300.023 141.072C309.38 136.754 316.943 130.996 316.787 120.344C316.631 109.404 308.912 102.998 299.165 99.0392C291.29 95.8724 282.713 92.7055 274.292 92.4176C249.809 91.5539 225.248 92.1297 199.049 92.1297C210.121 122.143 220.881 151.436 231.875 181.306H157.646C144.001 142.872 130.59 104.941 116.71 65.7871H536.98C511.25 92.8494 485.987 119.408 459.632 147.118C506.025 175.476 551.639 203.402 597.331 231.4L597.097 233.055H251.134C258.23 251.337 264.702 267.819 271.641 285.74C256.982 285.74 243.493 285.74 230.004 285.74C223.454 285.74 216.905 285.812 210.433 285.74C193.201 285.453 197.802 288.547 191.486 273.001C186.651 261.269 182.129 249.322 177.997 237.374C176.281 232.48 173.552 230.752 167.938 230.824C149.927 231.112 131.837 230.68 113.826 231.04C107.978 231.112 104.859 229.888 103.299 224.274C100.648 214.342 96.9835 204.625 93.3188 193.541C97.6853 193.541 101.038 193.541 104.313 193.541C160.921 193.757 217.528 193.901 274.136 194.189C285.598 194.189 297.138 195.413 308.6 194.765C315.539 194.405 322.869 192.534 329.029 189.655C342.284 183.465 344.701 171.013 335.89 160.001C328.717 151.149 317.099 145.966 297.216 143.159H297.138Z" fill="white" fill-opacity="0.2"/>
</svg>
