<svg width="223" height="47" viewBox="0 0 223 47" fill="none" xmlns="http://www.w3.org/2000/svg">
<path d="M43.7436 45.9814C34.5222 45.7713 24.7589 44.2209 15.57 40.2399C11.1164 38.3095 7.0529 35.8589 3.89962 32.288C-1.47504 26.2065 -1.27999 19.0547 4.39808 13.2133C8.69997 8.79218 14.1288 5.95148 20.1103 4.07102C37.5996 -1.44034 55.1106 -1.38033 72.5132 4.4011C77.877 6.18154 82.7966 8.76218 86.7192 12.6831C90.9669 16.9142 92.8957 21.7554 90.761 27.4668C89.4499 30.9576 86.8709 33.6283 83.7827 35.8889C78.0396 40.0699 71.3863 42.4305 64.3645 44.0109C57.8738 45.4712 51.2746 46.0814 43.7436 45.9914V45.9814ZM45.6508 45.5012C53.9836 45.4612 62.1215 44.481 70.0101 41.9804C76.1216 40.0399 81.7888 37.4092 86.3183 33.0282C92.7224 26.8366 92.6898 19.1947 86.3183 13.0032C83.761 10.5226 80.7702 8.58213 77.4978 7.01174C70.1943 3.51088 62.3707 1.68043 54.222 0.96025C41.9665 -0.120017 29.9819 0.900236 18.4632 5.17129C13.1644 7.14178 8.33155 9.80243 4.54978 13.8634C-0.608156 19.4048 -0.770695 26.0064 4.14885 31.7278C7.54052 35.6688 12.0158 38.2594 16.9245 40.2699C26.0701 44.0209 35.7358 45.4312 45.6616 45.5012H45.6508Z" fill="white"/>
<path d="M41.2941 19.895C41.5 19.7449 41.5866 19.6549 41.695 19.6049C42.9953 19.0048 44.0464 18.2046 44.0247 16.7242C44.0031 15.2038 42.9303 14.3136 41.5758 13.7635C40.4814 13.3234 39.2894 12.8833 38.1191 12.8432C34.7166 12.7232 31.3033 12.8032 27.6624 12.8032C29.2011 16.9743 30.6965 21.0453 32.2243 25.1963H21.9085C20.0122 19.855 18.1484 14.5837 16.2196 9.14233H74.6256C71.0497 12.9033 67.5389 16.5942 63.8763 20.4451C70.3237 24.3861 76.6628 28.2671 83.0127 32.158L82.9802 32.3881H34.9008C35.8869 34.9287 36.7863 37.2193 37.7507 39.7099C35.7135 39.7099 33.8389 39.7099 31.9643 39.7099C31.054 39.7099 30.1438 39.7199 29.2444 39.7099C26.8497 39.6699 27.489 40.1 26.6113 37.9394C25.9394 36.309 25.311 34.6486 24.7367 32.9882C24.4983 32.308 24.119 32.068 23.3388 32.078C20.8357 32.118 18.3217 32.058 15.8186 32.108C15.0059 32.118 14.5725 31.948 14.3558 31.1678C13.9873 29.7874 13.478 28.4371 12.9688 26.8967C13.5756 26.8967 14.0415 26.8967 14.4966 26.8967C22.3636 26.9267 30.2305 26.9467 38.0975 26.9867C39.6903 26.9867 41.2941 27.1568 42.887 27.0668C43.8514 27.0167 44.87 26.7567 45.726 26.3566C47.5681 25.4964 47.904 23.7659 46.6796 22.2356C45.6827 21.0053 44.0681 20.2851 41.3049 19.895H41.2941Z" fill="white"/>
<path d="M113.078 3.43359H115.744C116.885 3.43359 117.748 3.59375 118.334 3.91406C118.92 4.23438 119.213 4.79688 119.213 5.60156C119.213 5.92578 119.16 6.21875 119.055 6.48047C118.953 6.74219 118.805 6.95703 118.609 7.125C118.414 7.29297 118.176 7.40234 117.895 7.45312V7.51172C118.18 7.57031 118.438 7.67188 118.668 7.81641C118.898 7.95703 119.082 8.16406 119.219 8.4375C119.359 8.70703 119.43 9.06641 119.43 9.51562C119.43 10.0352 119.303 10.4805 119.049 10.8516C118.795 11.2227 118.432 11.5078 117.959 11.707C117.49 11.9023 116.932 12 116.283 12H113.078V3.43359ZM114.895 6.82617H115.949C116.477 6.82617 116.842 6.74414 117.045 6.58008C117.248 6.41211 117.35 6.16602 117.35 5.8418C117.35 5.51367 117.229 5.2793 116.986 5.13867C116.748 4.99414 116.369 4.92188 115.85 4.92188H114.895V6.82617ZM114.895 8.26758V10.5H116.078C116.625 10.5 117.006 10.3945 117.221 10.1836C117.436 9.97266 117.543 9.68945 117.543 9.33398C117.543 9.12305 117.496 8.9375 117.402 8.77734C117.309 8.61719 117.15 8.49219 116.928 8.40234C116.709 8.3125 116.406 8.26758 116.02 8.26758H114.895ZM128.916 7.70508C128.916 8.36523 128.834 8.9668 128.67 9.50977C128.506 10.0488 128.256 10.5137 127.92 10.9043C127.588 11.2949 127.166 11.5957 126.654 11.8066C126.143 12.0137 125.537 12.1172 124.838 12.1172C124.139 12.1172 123.533 12.0137 123.021 11.8066C122.51 11.5957 122.086 11.2949 121.75 10.9043C121.418 10.5137 121.17 10.0469 121.006 9.50391C120.842 8.96094 120.76 8.35742 120.76 7.69336C120.76 6.80664 120.904 6.03516 121.193 5.37891C121.486 4.71875 121.936 4.20703 122.541 3.84375C123.146 3.48047 123.916 3.29883 124.85 3.29883C125.779 3.29883 126.543 3.48047 127.141 3.84375C127.742 4.20703 128.188 4.71875 128.477 5.37891C128.77 6.03906 128.916 6.81445 128.916 7.70508ZM122.664 7.70508C122.664 8.30273 122.738 8.81836 122.887 9.25195C123.039 9.68164 123.275 10.0137 123.596 10.248C123.916 10.4785 124.33 10.5938 124.838 10.5938C125.354 10.5938 125.771 10.4785 126.092 10.248C126.412 10.0137 126.645 9.68164 126.789 9.25195C126.938 8.81836 127.012 8.30273 127.012 7.70508C127.012 6.80664 126.844 6.09961 126.508 5.58398C126.172 5.06836 125.619 4.81055 124.85 4.81055C124.338 4.81055 123.92 4.92773 123.596 5.16211C123.275 5.39258 123.039 5.72461 122.887 6.1582C122.738 6.58789 122.664 7.10352 122.664 7.70508ZM137.471 12H135.66V4.94531H133.562C133.516 5.3125 133.465 5.71289 133.41 6.14648C133.355 6.58008 133.299 7.01758 133.24 7.45898C133.182 7.90039 133.119 8.32031 133.053 8.71875C132.99 9.11719 132.928 9.4668 132.865 9.76758C132.764 10.2676 132.625 10.6934 132.449 11.0449C132.277 11.3926 132.041 11.6582 131.74 11.8418C131.443 12.0254 131.055 12.1172 130.574 12.1172C130.414 12.1172 130.26 12.1055 130.111 12.082C129.967 12.0586 129.832 12.0273 129.707 11.9883V10.5C129.809 10.5352 129.91 10.5645 130.012 10.5879C130.113 10.6074 130.225 10.6172 130.346 10.6172C130.502 10.6172 130.631 10.5664 130.732 10.4648C130.838 10.3594 130.932 10.1816 131.014 9.93164C131.096 9.67773 131.178 9.32812 131.26 8.88281C131.295 8.6875 131.342 8.41211 131.4 8.05664C131.459 7.69727 131.525 7.27734 131.6 6.79688C131.674 6.3125 131.75 5.78516 131.828 5.21484C131.91 4.64453 131.988 4.05078 132.062 3.43359H137.471V12ZM145.047 3.43359V4.93359H141.449V12H139.633V3.43359H145.047ZM154.146 7.70508C154.146 8.36523 154.064 8.9668 153.9 9.50977C153.736 10.0488 153.486 10.5137 153.15 10.9043C152.818 11.2949 152.396 11.5957 151.885 11.8066C151.373 12.0137 150.768 12.1172 150.068 12.1172C149.369 12.1172 148.764 12.0137 148.252 11.8066C147.74 11.5957 147.316 11.2949 146.98 10.9043C146.648 10.5137 146.4 10.0469 146.236 9.50391C146.072 8.96094 145.99 8.35742 145.99 7.69336C145.99 6.80664 146.135 6.03516 146.424 5.37891C146.717 4.71875 147.166 4.20703 147.771 3.84375C148.377 3.48047 149.146 3.29883 150.08 3.29883C151.01 3.29883 151.773 3.48047 152.371 3.84375C152.973 4.20703 153.418 4.71875 153.707 5.37891C154 6.03906 154.146 6.81445 154.146 7.70508ZM147.895 7.70508C147.895 8.30273 147.969 8.81836 148.117 9.25195C148.27 9.68164 148.506 10.0137 148.826 10.248C149.146 10.4785 149.561 10.5938 150.068 10.5938C150.584 10.5938 151.002 10.4785 151.322 10.248C151.643 10.0137 151.875 9.68164 152.02 9.25195C152.168 8.81836 152.242 8.30273 152.242 7.70508C152.242 6.80664 152.074 6.09961 151.738 5.58398C151.402 5.06836 150.85 4.81055 150.08 4.81055C149.568 4.81055 149.15 4.92773 148.826 5.16211C148.506 5.39258 148.27 5.72461 148.117 6.1582C147.969 6.58789 147.895 7.10352 147.895 7.70508ZM161.336 3.43359V4.93359H157.738V12H155.922V3.43359H161.336ZM165.396 3.43359C166.502 3.43359 167.309 3.67188 167.816 4.14844C168.324 4.62109 168.578 5.27344 168.578 6.10547C168.578 6.48047 168.521 6.83984 168.408 7.18359C168.295 7.52344 168.109 7.82617 167.852 8.0918C167.598 8.35742 167.258 8.56836 166.832 8.72461C166.406 8.87695 165.881 8.95312 165.256 8.95312H164.477V12H162.66V3.43359H165.396ZM165.303 4.92188H164.477V7.46484H165.074C165.414 7.46484 165.709 7.41992 165.959 7.33008C166.209 7.24023 166.402 7.09961 166.539 6.9082C166.676 6.7168 166.744 6.4707 166.744 6.16992C166.744 5.74805 166.627 5.43555 166.393 5.23242C166.158 5.02539 165.795 4.92188 165.303 4.92188ZM175.439 12L174.818 9.96094H171.695L171.074 12H169.117L172.141 3.39844H174.361L177.396 12H175.439ZM174.385 8.4375L173.764 6.44531C173.725 6.3125 173.672 6.14258 173.605 5.93555C173.543 5.72461 173.479 5.51172 173.412 5.29688C173.35 5.07812 173.299 4.88867 173.26 4.72852C173.221 4.88867 173.166 5.08789 173.096 5.32617C173.029 5.56055 172.965 5.7832 172.902 5.99414C172.84 6.20508 172.795 6.35547 172.768 6.44531L172.152 8.4375H174.385ZM185.189 3.43359V10.4883H186.332V14.4961H184.58V12H179.213V14.4961H177.461V10.4883H178.123C178.346 10.043 178.561 9.57227 178.768 9.07617C178.975 8.58008 179.168 8.04688 179.348 7.47656C179.527 6.90625 179.689 6.28711 179.834 5.61914C179.979 4.95117 180.1 4.22266 180.197 3.43359H185.189ZM183.379 4.94531H181.639C181.58 5.35938 181.5 5.80078 181.398 6.26953C181.297 6.73828 181.176 7.2168 181.035 7.70508C180.898 8.18945 180.744 8.66797 180.572 9.14062C180.404 9.61328 180.225 10.0625 180.033 10.4883H183.379V4.94531ZM191.295 4.82227C190.947 4.82227 190.639 4.89062 190.369 5.02734C190.104 5.16016 189.879 5.35352 189.695 5.60742C189.516 5.86133 189.379 6.16797 189.285 6.52734C189.191 6.88672 189.145 7.29102 189.145 7.74023C189.145 8.3457 189.219 8.86328 189.367 9.29297C189.52 9.71875 189.754 10.0449 190.07 10.2715C190.387 10.4941 190.795 10.6055 191.295 10.6055C191.643 10.6055 191.99 10.5664 192.338 10.4883C192.689 10.4102 193.07 10.2988 193.48 10.1543V11.6777C193.102 11.834 192.729 11.9453 192.361 12.0117C191.994 12.082 191.582 12.1172 191.125 12.1172C190.242 12.1172 189.516 11.9355 188.945 11.5723C188.379 11.2051 187.959 10.6934 187.686 10.0371C187.412 9.37695 187.275 8.60742 187.275 7.72852C187.275 7.08008 187.363 6.48633 187.539 5.94727C187.715 5.4082 187.973 4.94141 188.312 4.54688C188.652 4.15234 189.072 3.84766 189.572 3.63281C190.072 3.41797 190.646 3.31055 191.295 3.31055C191.721 3.31055 192.146 3.36523 192.572 3.47461C193.002 3.58008 193.412 3.72656 193.803 3.91406L193.217 5.39062C192.896 5.23828 192.574 5.10547 192.25 4.99219C191.926 4.87891 191.607 4.82227 191.295 4.82227ZM202.293 12H200.23L197.125 7.6582V12H195.309V3.43359H197.125V7.58203L200.195 3.43359H202.129L199.006 7.54688L202.293 12ZM203.371 3.43359H205.006V7.57031C205.006 7.77344 205.002 7.99805 204.994 8.24414C204.99 8.49023 204.982 8.73242 204.971 8.9707C204.963 9.20508 204.955 9.41016 204.947 9.58594C204.939 9.76172 204.932 9.87891 204.924 9.9375H204.959L208.914 3.43359H211.088V12H209.471V7.88672C209.471 7.66797 209.475 7.42969 209.482 7.17188C209.49 6.91406 209.5 6.66406 209.512 6.42188C209.527 6.17969 209.541 5.9707 209.553 5.79492C209.564 5.61523 209.572 5.49609 209.576 5.4375H209.529L205.557 12H203.371V3.43359ZM213.25 3.43359H214.885V7.57031C214.885 7.77344 214.881 7.99805 214.873 8.24414C214.869 8.49023 214.861 8.73242 214.85 8.9707C214.842 9.20508 214.834 9.41016 214.826 9.58594C214.818 9.76172 214.811 9.87891 214.803 9.9375H214.838L218.793 3.43359H220.967V12H219.35V7.88672C219.35 7.66797 219.354 7.42969 219.361 7.17188C219.369 6.91406 219.379 6.66406 219.391 6.42188C219.406 6.17969 219.42 5.9707 219.432 5.79492C219.443 5.61523 219.451 5.49609 219.455 5.4375H219.408L215.436 12H213.25V3.43359ZM220.152 0.615234C220.109 1.0293 219.992 1.39453 219.801 1.71094C219.609 2.02734 219.311 2.27344 218.904 2.44922C218.498 2.625 217.951 2.71289 217.264 2.71289C216.557 2.71289 216.006 2.62891 215.611 2.46094C215.217 2.28906 214.936 2.04687 214.768 1.73438C214.6 1.41797 214.498 1.04492 214.463 0.615234H216.062C216.098 1.05664 216.209 1.34961 216.396 1.49414C216.584 1.63477 216.885 1.70508 217.299 1.70508C217.643 1.70508 217.924 1.62695 218.143 1.4707C218.361 1.31445 218.492 1.0293 218.535 0.615234H220.152ZM116.383 28H114.566V20.9453H112.24V19.4336H118.709V20.9453H116.383V28ZM122.764 19.4336C123.869 19.4336 124.676 19.6719 125.184 20.1484C125.691 20.6211 125.945 21.2734 125.945 22.1055C125.945 22.4805 125.889 22.8398 125.775 23.1836C125.662 23.5234 125.477 23.8262 125.219 24.0918C124.965 24.3574 124.625 24.5684 124.199 24.7246C123.773 24.877 123.248 24.9531 122.623 24.9531H121.844V28H120.027V19.4336H122.764ZM122.67 20.9219H121.844V23.4648H122.441C122.781 23.4648 123.076 23.4199 123.326 23.3301C123.576 23.2402 123.77 23.0996 123.906 22.9082C124.043 22.7168 124.111 22.4707 124.111 22.1699C124.111 21.748 123.994 21.4355 123.76 21.2324C123.525 21.0254 123.162 20.9219 122.67 20.9219ZM132.807 28L132.186 25.9609H129.062L128.441 28H126.484L129.508 19.3984H131.729L134.764 28H132.807ZM131.752 24.4375L131.131 22.4453C131.092 22.3125 131.039 22.1426 130.973 21.9355C130.91 21.7246 130.846 21.5117 130.779 21.2969C130.717 21.0781 130.666 20.8887 130.627 20.7285C130.588 20.8887 130.533 21.0879 130.463 21.3262C130.396 21.5605 130.332 21.7832 130.27 21.9941C130.207 22.2051 130.162 22.3555 130.135 22.4453L129.52 24.4375H131.752ZM142.832 28H140.77L137.664 23.6582V28H135.848V19.4336H137.664V23.582L140.734 19.4336H142.668L139.545 23.5469L142.832 28ZM147.215 28H145.398V20.9453H143.072V19.4336H149.541V20.9453H147.215V28ZM158.635 23.7051C158.635 24.3652 158.553 24.9668 158.389 25.5098C158.225 26.0488 157.975 26.5137 157.639 26.9043C157.307 27.2949 156.885 27.5957 156.373 27.8066C155.861 28.0137 155.256 28.1172 154.557 28.1172C153.857 28.1172 153.252 28.0137 152.74 27.8066C152.229 27.5957 151.805 27.2949 151.469 26.9043C151.137 26.5137 150.889 26.0469 150.725 25.5039C150.561 24.9609 150.479 24.3574 150.479 23.6934C150.479 22.8066 150.623 22.0352 150.912 21.3789C151.205 20.7188 151.654 20.207 152.26 19.8438C152.865 19.4805 153.635 19.2988 154.568 19.2988C155.498 19.2988 156.262 19.4805 156.859 19.8438C157.461 20.207 157.906 20.7188 158.195 21.3789C158.488 22.0391 158.635 22.8145 158.635 23.7051ZM152.383 23.7051C152.383 24.3027 152.457 24.8184 152.605 25.252C152.758 25.6816 152.994 26.0137 153.314 26.248C153.635 26.4785 154.049 26.5938 154.557 26.5938C155.072 26.5938 155.49 26.4785 155.811 26.248C156.131 26.0137 156.363 25.6816 156.508 25.252C156.656 24.8184 156.73 24.3027 156.73 23.7051C156.73 22.8066 156.562 22.0996 156.227 21.584C155.891 21.0684 155.338 20.8105 154.568 20.8105C154.057 20.8105 153.639 20.9277 153.314 21.1621C152.994 21.3926 152.758 21.7246 152.605 22.1582C152.457 22.5879 152.383 23.1035 152.383 23.7051ZM163.146 19.4336C164.252 19.4336 165.059 19.6719 165.566 20.1484C166.074 20.6211 166.328 21.2734 166.328 22.1055C166.328 22.4805 166.271 22.8398 166.158 23.1836C166.045 23.5234 165.859 23.8262 165.602 24.0918C165.348 24.3574 165.008 24.5684 164.582 24.7246C164.156 24.877 163.631 24.9531 163.006 24.9531H162.227V28H160.41V19.4336H163.146ZM163.053 20.9219H162.227V23.4648H162.824C163.164 23.4648 163.459 23.4199 163.709 23.3301C163.959 23.2402 164.152 23.0996 164.289 22.9082C164.426 22.7168 164.494 22.4707 164.494 22.1699C164.494 21.748 164.377 21.4355 164.143 21.2324C163.908 21.0254 163.545 20.9219 163.053 20.9219ZM174.965 28H173.154V24.3027H169.762V28H167.945V19.4336H169.762V22.791H173.154V19.4336H174.965V28ZM177.133 28V19.4336H178.949V22.7207H179.535C180.328 22.7207 180.979 22.832 181.486 23.0547C181.998 23.2773 182.377 23.5859 182.623 23.9805C182.869 24.3711 182.992 24.8184 182.992 25.3223C182.992 26.1699 182.711 26.8281 182.148 27.2969C181.59 27.7656 180.699 28 179.477 28H177.133ZM178.949 26.5117H179.424C179.959 26.5117 180.381 26.4238 180.689 26.248C180.998 26.0684 181.152 25.7598 181.152 25.3223C181.152 25.0176 181.082 24.7852 180.941 24.625C180.801 24.4648 180.596 24.3555 180.326 24.2969C180.057 24.2383 179.729 24.209 179.342 24.209H178.949V26.5117ZM184.035 28V19.4336H185.846V28H184.035ZM188.008 19.4336H189.643V23.5703C189.643 23.7734 189.639 23.998 189.631 24.2441C189.627 24.4902 189.619 24.7324 189.607 24.9707C189.6 25.2051 189.592 25.4102 189.584 25.5859C189.576 25.7617 189.568 25.8789 189.561 25.9375H189.596L193.551 19.4336H195.725V28H194.107V23.8867C194.107 23.668 194.111 23.4297 194.119 23.1719C194.127 22.9141 194.137 22.6641 194.148 22.4219C194.164 22.1797 194.178 21.9707 194.189 21.7949C194.201 21.6152 194.209 21.4961 194.213 21.4375H194.166L190.193 28H188.008V19.4336ZM194.91 16.6152C194.867 17.0293 194.75 17.3945 194.559 17.7109C194.367 18.0273 194.068 18.2734 193.662 18.4492C193.256 18.625 192.709 18.7129 192.021 18.7129C191.314 18.7129 190.764 18.6289 190.369 18.4609C189.975 18.2891 189.693 18.0469 189.525 17.7344C189.357 17.418 189.256 17.0449 189.221 16.6152H190.82C190.855 17.0566 190.967 17.3496 191.154 17.4941C191.342 17.6348 191.643 17.7051 192.057 17.7051C192.4 17.7051 192.682 17.627 192.9 17.4707C193.119 17.3145 193.25 17.0293 193.293 16.6152H194.91ZM118.996 37.4375C118.996 38.0117 118.791 38.4746 118.381 38.8262C117.971 39.1777 117.451 39.3984 116.822 39.4883V39.5234C117.604 39.6016 118.205 39.8184 118.627 40.1738C119.049 40.5293 119.26 40.9922 119.26 41.5625C119.26 42.0625 119.123 42.5059 118.85 42.8926C118.576 43.2754 118.172 43.5762 117.637 43.7949C117.102 44.0098 116.439 44.1172 115.65 44.1172C115.002 44.1172 114.426 44.0781 113.922 44C113.422 43.918 112.988 43.8027 112.621 43.6543V42.1309C112.871 42.248 113.15 42.3496 113.459 42.4355C113.771 42.5176 114.088 42.582 114.408 42.6289C114.729 42.6719 115.025 42.6934 115.299 42.6934C116.057 42.6934 116.605 42.584 116.945 42.3652C117.289 42.1465 117.461 41.8359 117.461 41.4336C117.461 41.0234 117.213 40.7246 116.717 40.5371C116.221 40.3496 115.553 40.2559 114.713 40.2559H113.91V38.8379H114.631C115.311 38.8379 115.838 38.7949 116.213 38.709C116.592 38.6191 116.855 38.4922 117.004 38.3281C117.156 38.1602 117.232 37.959 117.232 37.7246C117.232 37.4316 117.102 37.1992 116.84 37.0273C116.578 36.8516 116.189 36.7637 115.674 36.7637C115.229 36.7637 114.812 36.8281 114.426 36.957C114.039 37.082 113.678 37.25 113.342 37.4609L112.551 36.248C112.844 36.0566 113.156 35.8906 113.488 35.75C113.824 35.6094 114.191 35.502 114.59 35.4277C114.988 35.3496 115.434 35.3105 115.926 35.3105C116.57 35.3105 117.121 35.4023 117.578 35.5859C118.035 35.7695 118.385 36.0215 118.627 36.3418C118.873 36.6582 118.996 37.0234 118.996 37.4375ZM126.104 44L125.482 41.9609H122.359L121.738 44H119.781L122.805 35.3984H125.025L128.061 44H126.104ZM125.049 40.4375L124.428 38.4453C124.389 38.3125 124.336 38.1426 124.27 37.9355C124.207 37.7246 124.143 37.5117 124.076 37.2969C124.014 37.0781 123.963 36.8887 123.924 36.7285C123.885 36.8887 123.83 37.0879 123.76 37.3262C123.693 37.5605 123.629 37.7832 123.566 37.9941C123.504 38.2051 123.459 38.3555 123.432 38.4453L122.816 40.4375H125.049ZM129.145 35.4336H131.811C132.951 35.4336 133.814 35.5938 134.4 35.9141C134.986 36.2344 135.279 36.7969 135.279 37.6016C135.279 37.9258 135.227 38.2188 135.121 38.4805C135.02 38.7422 134.871 38.957 134.676 39.125C134.48 39.293 134.242 39.4023 133.961 39.4531V39.5117C134.246 39.5703 134.504 39.6719 134.734 39.8164C134.965 39.957 135.148 40.1641 135.285 40.4375C135.426 40.707 135.496 41.0664 135.496 41.5156C135.496 42.0352 135.369 42.4805 135.115 42.8516C134.861 43.2227 134.498 43.5078 134.025 43.707C133.557 43.9023 132.998 44 132.35 44H129.145V35.4336ZM130.961 38.8262H132.016C132.543 38.8262 132.908 38.7441 133.111 38.5801C133.314 38.4121 133.416 38.166 133.416 37.8418C133.416 37.5137 133.295 37.2793 133.053 37.1387C132.814 36.9941 132.436 36.9219 131.916 36.9219H130.961V38.8262ZM130.961 40.2676V42.5H132.145C132.691 42.5 133.072 42.3945 133.287 42.1836C133.502 41.9727 133.609 41.6895 133.609 41.334C133.609 41.123 133.562 40.9375 133.469 40.7773C133.375 40.6172 133.217 40.4922 132.994 40.4023C132.775 40.3125 132.473 40.2676 132.086 40.2676H130.961ZM144.982 39.7051C144.982 40.3652 144.9 40.9668 144.736 41.5098C144.572 42.0488 144.322 42.5137 143.986 42.9043C143.654 43.2949 143.232 43.5957 142.721 43.8066C142.209 44.0137 141.604 44.1172 140.904 44.1172C140.205 44.1172 139.6 44.0137 139.088 43.8066C138.576 43.5957 138.152 43.2949 137.816 42.9043C137.484 42.5137 137.236 42.0469 137.072 41.5039C136.908 40.9609 136.826 40.3574 136.826 39.6934C136.826 38.8066 136.971 38.0352 137.26 37.3789C137.553 36.7188 138.002 36.207 138.607 35.8438C139.213 35.4805 139.982 35.2988 140.916 35.2988C141.846 35.2988 142.609 35.4805 143.207 35.8438C143.809 36.207 144.254 36.7188 144.543 37.3789C144.836 38.0391 144.982 38.8145 144.982 39.7051ZM138.73 39.7051C138.73 40.3027 138.805 40.8184 138.953 41.252C139.105 41.6816 139.342 42.0137 139.662 42.248C139.982 42.4785 140.396 42.5938 140.904 42.5938C141.42 42.5938 141.838 42.4785 142.158 42.248C142.479 42.0137 142.711 41.6816 142.855 41.252C143.004 40.8184 143.078 40.3027 143.078 39.7051C143.078 38.8066 142.91 38.0996 142.574 37.584C142.238 37.0684 141.686 36.8105 140.916 36.8105C140.404 36.8105 139.986 36.9277 139.662 37.1621C139.342 37.3926 139.105 37.7246 138.953 38.1582C138.805 38.5879 138.73 39.1035 138.73 39.7051ZM153.467 35.4336V42.4883H154.609V46.4961H152.857V44H147.49V46.4961H145.738V42.4883H146.4C146.623 42.043 146.838 41.5723 147.045 41.0762C147.252 40.5801 147.445 40.0469 147.625 39.4766C147.805 38.9062 147.967 38.2871 148.111 37.6191C148.256 36.9512 148.377 36.2227 148.475 35.4336H153.467ZM151.656 36.9453H149.916C149.857 37.3594 149.777 37.8008 149.676 38.2695C149.574 38.7383 149.453 39.2168 149.312 39.7051C149.176 40.1895 149.021 40.668 148.85 41.1406C148.682 41.6133 148.502 42.0625 148.311 42.4883H151.656V36.9453Z" fill="white"/>
</svg>
