<svg width="84" height="68" viewBox="0 0 84 68" fill="none" xmlns="http://www.w3.org/2000/svg">
<g clip-path="url(#clip0_473_2436)">
<path d="M0.00046875 47.6722C0.573594 46.0622 1.71547 45.3622 3.41297 45.4912C4.03203 45.5394 4.65984 45.4978 5.33578 45.4978V9.72344C5.11484 9.64031 4.86766 9.54625 4.62047 9.45C2.52484 8.63406 1.21672 6.46406 1.51422 4.30062C1.83359 1.98844 3.62516 0.264687 5.93953 0.0503125C6.29172 0.0175 6.64828 0.004375 7.00484 0.004375C15.3698 0 23.7348 0.004375 32.102 0C33.2395 0 34.3464 0.11375 35.3198 0.765625C36.9911 1.88562 37.7786 3.46281 37.5577 5.45781C37.3477 7.35219 36.2977 8.72156 34.5236 9.3975C33.8389 9.65781 33.7055 9.99031 33.7098 10.6334C33.7339 14.0219 33.7208 17.4103 33.7208 20.8666H40.887C40.887 19.9675 40.887 19.0509 40.887 18.1344C40.8914 15.6516 42.1317 14.4134 44.6233 14.4069C45.1964 14.4069 45.7717 14.3872 46.3448 14.4156C48.2764 14.5119 49.5255 15.82 49.5452 17.7537C49.5561 18.7862 49.5452 19.8187 49.5452 20.8906H55.5389V11.9066C55.1561 11.9066 54.7602 11.9153 54.3664 11.9066C52.4064 11.8519 50.9058 10.36 50.8555 8.40656C50.8358 7.61469 50.8402 6.82062 50.8533 6.02875C50.8861 4.01406 52.3298 2.45 54.3511 2.43031C59.6273 2.38437 64.9036 2.38656 70.1798 2.43031C72.2142 2.44562 73.6405 3.96156 73.6995 6.00031C73.7214 6.76594 73.7214 7.53156 73.7017 8.29719C73.6492 10.4256 72.177 11.8781 70.0573 11.9109C69.7336 11.9153 69.4077 11.9109 69.0314 11.9109V20.8972C70.5627 21.0503 72.153 20.615 73.4786 21.7109C74.8305 22.8287 74.8742 24.3425 74.7736 26.0116C75.3248 26.0116 75.8061 26.0028 76.2873 26.0116C78.4858 26.0575 80.1964 27.7244 80.2183 29.9141C80.2467 32.8934 80.2489 35.875 80.2183 38.8544C80.1964 41.0419 78.4814 42.7066 76.2808 42.7503C75.8214 42.7591 75.3598 42.7503 74.8502 42.7503V45.5962C76.9305 45.8456 77.7792 47.4622 78.6105 49.1422C80.0017 51.9575 81.4542 54.74 82.8673 57.5444C83.2677 58.3406 83.622 59.1631 83.9961 59.9725V61.285C83.3398 62.4553 82.3139 62.6937 81.0758 62.4969C78.2189 62.0441 75.362 61.5759 72.4942 61.1953C70.7158 60.9612 69.4492 60.1147 68.6398 58.5266C68.268 57.7981 67.8589 57.085 67.4214 56.3937C67.2836 56.175 67.0102 55.9256 66.7805 55.9059C66.0258 55.8447 65.2623 55.8819 64.5142 55.8819C63.532 63.5447 56.9039 67.2722 51.7217 67.1147C46.5942 66.9594 40.6508 63.3019 39.5833 55.8797H31.5355C30.5839 63.3828 24.1286 67.235 18.8173 67.1147C13.727 66.9987 7.69172 63.3894 6.60016 55.8797C5.58297 55.8797 4.54609 55.8228 3.52016 55.8928C1.80734 56.0087 0.617344 55.3591 -0.00390625 53.7359V47.6656L0.00046875 47.6722ZM71.3917 45.4978H72.4286V44.5856C72.4286 38.0516 72.4286 31.5153 72.4286 24.9812C72.4286 23.7103 72.118 23.4106 70.812 23.4106C58.8092 23.4106 46.8064 23.4106 34.8036 23.4106H33.898V45.4978C34.2633 45.4978 34.5608 45.4978 34.8561 45.4978C38.0827 45.4978 64.6389 45.4978 71.3917 45.4978ZM3.75859 47.9784C2.97401 47.9784 2.58172 48.3831 2.58172 49.1925C2.58172 50.2316 2.58172 51.2706 2.58172 52.3097C2.58172 53.0418 2.95943 53.4078 3.71484 53.4078C24.3036 53.4078 44.8923 53.4078 65.4789 53.4078C65.888 53.4078 66.3014 53.4384 66.7083 53.4078C68.1695 53.3028 69.1473 53.9328 69.7686 55.2541C70.1623 56.0919 70.6808 56.8706 71.138 57.68C71.4705 58.2706 71.9605 58.5878 72.6386 58.6841C74.4498 58.9378 76.2589 59.22 78.068 59.4956C79.1355 59.6597 80.2008 59.8325 81.4192 60.0272C81.1742 59.5087 81.0102 59.1412 80.8264 58.7803C79.3061 55.7856 77.718 52.8237 76.2852 49.7875C75.6398 48.4203 74.7626 47.9412 73.2861 47.9522C65.877 48.0069 17.1002 47.9762 3.75859 47.9762V47.9784ZM31.168 34.93V9.81969H7.91484V34.895C8.25391 34.895 29.1445 34.93 31.1702 34.93H31.168ZM7.93453 37.3756V45.43H31.1505V37.4172C29.4748 37.4172 8.72859 37.3778 7.93453 37.3778V37.3756ZM19.5655 2.51344C17.2423 2.51344 14.917 2.51344 12.5939 2.51344C10.5442 2.51344 8.49234 2.51562 6.44266 2.51344C5.48453 2.51344 4.74734 2.90719 4.27922 3.74281C3.36703 5.37469 4.53297 7.27781 6.48203 7.2975C9.38047 7.32594 12.2789 7.30625 15.1773 7.30625C20.8911 7.30625 26.607 7.33031 32.3208 7.27344C33.0252 7.26687 33.8411 6.97375 34.3967 6.54281C35.1864 5.92812 35.3352 4.95687 34.9348 4.00312C34.5105 2.9925 33.7098 2.51125 32.6095 2.51125C28.263 2.51562 23.9142 2.51125 19.5677 2.51125L19.5655 2.51344ZM62.272 9.43906C64.757 9.43906 67.242 9.44125 69.7292 9.43906C70.8886 9.43906 71.2189 9.09562 71.2277 7.91875C71.2298 7.42656 71.2298 6.93656 71.2277 6.44437C71.2211 5.23031 70.893 4.89562 69.6658 4.89562C66.4436 4.89125 63.2192 4.89562 59.997 4.89562C58.2492 4.89562 56.5014 4.88469 54.7536 4.9C53.6992 4.90875 53.3361 5.28937 53.3252 6.34594C53.3186 6.89281 53.3208 7.4375 53.3252 7.98437C53.3361 9.07375 53.7036 9.43906 54.8148 9.44125C57.2998 9.44562 59.7848 9.44125 62.272 9.44125V9.43906ZM66.4523 11.9678H58.1355V20.8797H66.4523V11.9678ZM42.193 55.8884C42.7814 61.2522 47.6552 65.0584 53.148 64.5662C57.5908 64.1681 62.097 59.6859 61.8017 55.9278H58.8005C58.713 56.2253 58.643 56.4878 58.5598 56.7481C57.698 59.4278 55.2239 61.3506 52.4786 61.4731C49.1448 61.6241 46.4323 59.6903 45.4327 56.4878C45.3583 56.2516 45.063 55.9322 44.8486 55.9169C43.9823 55.8512 43.1095 55.8906 42.1908 55.8906L42.193 55.8884ZM9.23172 55.9103C9.60797 60.9394 14.3439 64.8244 19.7252 64.5881C24.3605 64.3847 28.9127 60.0928 28.858 55.9322H25.8327C25.7517 56.1991 25.6752 56.4572 25.5942 56.7131C24.7783 59.2834 22.4377 61.2172 19.8673 61.4512C16.9273 61.7203 14.0661 60.4319 13.0839 57.7741C12.3773 55.8666 11.2902 55.6872 9.70203 55.8862C9.56859 55.9037 9.43297 55.8994 9.23391 55.9081L9.23172 55.9103ZM74.8217 40.2828C75.3292 40.2828 75.7623 40.3003 76.1933 40.2784C77.1448 40.2347 77.7398 39.6791 77.7486 38.7297C77.7705 35.8334 77.7683 32.935 77.7486 30.0366C77.7442 29.2162 77.263 28.6212 76.5192 28.525C75.968 28.4528 75.4014 28.5119 74.8217 28.5119V40.2828ZM23.1245 55.93H14.9827C15.4005 57.7916 17.2095 59.0712 19.2767 59.0056C21.1164 58.9466 22.873 57.5531 23.1245 55.93ZM47.9352 55.9125C48.493 57.9447 50.3895 59.1872 52.5311 58.9925C54.2636 58.835 55.9501 57.3803 56.0792 55.9125H47.933H47.9352ZM47.0733 20.895C47.0733 20.3984 47.0755 19.9434 47.0733 19.4884C47.0558 16.6031 47.4495 16.9094 44.3411 16.9028C44.2317 16.9028 44.0939 16.8787 44.0217 16.9356C43.803 17.1062 43.4442 17.3031 43.4355 17.5022C43.3786 18.6287 43.407 19.7619 43.407 20.8928H47.0711L47.0733 20.895Z" fill="#D53029"/>
<path d="M58.1171 31.4172C56.4808 31.4172 54.8446 31.4325 53.2083 31.4106C52.1343 31.3975 51.4474 30.5356 51.9024 29.7043C52.0971 29.35 52.644 28.9825 53.0355 28.9759C56.4436 28.919 59.8518 28.9343 63.2599 28.9497C64.043 28.954 64.509 29.444 64.5111 30.1593C64.5111 30.8834 64.0102 31.3953 63.1855 31.4062C61.4946 31.4303 59.8058 31.4128 58.1149 31.415L58.1171 31.4172Z" fill="#D53029"/>
<path d="M58.1566 38.1956C56.516 38.1956 54.8754 38.2043 53.2348 38.1912C52.3094 38.1846 51.8041 37.7449 51.7932 36.9859C51.7801 36.2093 52.3269 35.7215 53.2719 35.7193C56.5248 35.7106 59.7798 35.7084 63.0326 35.7193C64.2029 35.7237 64.9226 36.6665 64.3516 37.5109C64.1132 37.8653 63.5204 38.1431 63.0763 38.1628C61.4401 38.2393 59.7973 38.1934 58.1566 38.1934V38.1956Z" fill="#D53029"/>
<path d="M76.967 56.0894C76.6192 56.4132 76.3107 56.9338 75.917 57.006C75.5079 57.0825 74.7861 56.8594 74.6023 56.5378C73.712 54.9782 72.9311 53.3507 72.1632 51.7254C71.8789 51.1238 72.1479 50.5857 72.7123 50.2663C73.2439 49.9666 73.8957 49.9841 74.1845 50.5047C75.1076 52.1694 75.9279 53.8932 76.7789 55.5972C76.8248 55.6891 76.8051 55.8116 76.8161 55.921L76.9648 56.0894H76.967Z" fill="#D53029"/>
<path d="M19.3876 28.6195C17.5019 28.6195 15.6163 28.6282 13.7307 28.6195C11.8057 28.6085 10.6507 27.4754 10.6441 25.5723C10.6332 22.0198 10.6354 18.4673 10.6441 14.9126C10.6485 13.0182 11.7466 11.8829 13.6322 11.8741C17.4866 11.8545 21.3388 11.8545 25.1932 11.8741C27.0701 11.8829 28.2054 13.0357 28.2119 14.8973C28.2229 18.4498 28.2207 22.0023 28.2119 25.557C28.2076 27.4426 27.0307 28.6085 25.1276 28.6195C23.2135 28.6304 21.3016 28.6216 19.3876 28.6216V28.6195ZM19.4838 14.3548C17.5982 14.3548 15.7147 14.3679 13.8291 14.346C13.3019 14.3395 13.1072 14.5145 13.1094 15.0526C13.1269 18.522 13.1247 21.9913 13.1094 25.4607C13.1094 25.9595 13.3041 26.1432 13.7854 26.141C17.5282 26.1345 21.271 26.1323 25.0116 26.141C25.5279 26.141 25.7466 25.9507 25.7444 25.417C25.7313 21.976 25.7291 18.5329 25.7466 15.092C25.7488 14.5123 25.5301 14.3373 24.9722 14.3438C23.1413 14.3679 21.3126 14.3526 19.4816 14.3526L19.4838 14.3548Z" fill="#D53029"/>
</g>
<defs>
<clipPath id="clip0_473_2436">
<rect width="84" height="67.1278" fill="white"/>
</clipPath>
</defs>
</svg>
