<svg width="84" height="64" viewBox="0 0 84 64" fill="none" xmlns="http://www.w3.org/2000/svg">
<g clip-path="url(#clip0_473_2422)">
<path d="M23.0656 44.6087H25.7454C25.7454 42.5452 25.7454 40.5224 25.7454 38.4973C25.7454 36.8943 26.1225 36.5218 27.748 36.5218C28.3936 36.5218 29.0416 36.5218 29.8092 36.5218C29.8092 35.9032 29.8092 35.323 29.8092 34.7428C29.8092 33.1354 29.7979 31.5257 29.8137 29.9182C29.825 28.9159 30.3284 28.4147 31.3331 28.4011C32.5974 28.383 33.8616 28.3966 35.2275 28.3966C35.2275 26.5115 35.2275 24.6873 35.2275 22.8631C35.2275 20.4226 35.3788 20.2691 37.7967 20.2691C41.7476 20.2691 45.6984 20.2691 49.6493 20.2691C51.04 20.2691 51.478 20.7026 51.4803 22.0775C51.4848 24.1567 51.4803 26.2383 51.4803 28.3966C53.5596 28.3966 55.5553 28.3966 57.5511 28.3966C59.2646 28.3966 59.6055 28.7465 59.6078 30.4894C59.6078 32.4626 59.6078 34.438 59.6078 36.4699C60.7253 36.6731 60.9962 37.4226 60.9759 38.4499C60.933 40.4795 60.9623 42.5091 60.9623 44.857C61.4252 44.5477 61.7932 44.41 61.9986 44.1459C63.0416 42.8139 64.0598 41.4616 65.0509 40.0889C65.4889 39.4839 66.0104 39.2175 66.7622 39.2197C71.9255 39.2378 77.0909 39.2287 82.2542 39.231C83.5252 39.231 83.9812 39.6938 83.988 40.9671C83.9925 41.7844 84.0083 42.6039 83.9812 43.4212C83.909 45.5592 82.2248 47.2772 80.0823 47.3314C79.4953 47.3472 79.186 47.5481 78.8903 48.0268C77.1158 50.9075 75.3006 53.7634 73.5306 56.6464C73.3094 57.0054 73.183 57.475 73.1694 57.8994C73.1243 59.2518 73.1604 60.6086 73.1491 61.9632C73.1401 63.1213 72.6569 63.609 71.4942 63.609C52.5323 63.609 33.5681 63.6429 14.6062 63.5909C6.66837 63.5706 0.107669 56.9196 0.0173637 48.975C-0.0142432 46.2952 0.00607553 43.6131 0.0105908 40.9333C0.0128484 39.7119 0.482437 39.2446 1.69253 39.2333C2.44884 39.2265 3.20741 39.2333 4.0179 39.2333V31.1757C2.85296 30.9297 2.66106 30.0537 2.70395 28.9655C2.75814 27.5568 2.71524 26.1435 2.7175 24.7324C2.71976 23.6104 2.91843 23.3372 4.0337 22.9173V20.3391C2.84844 20.093 2.6588 19.2125 2.70395 18.1266C2.75814 16.7743 2.71524 15.4174 2.7175 14.0628C2.7175 12.5502 3.1171 12.1438 4.60489 12.1416C6.20555 12.1416 7.80622 12.1416 9.44752 12.1416V5.4093C9.04792 5.38447 8.64155 5.36189 8.1855 5.3348V2.68208H9.46107V0H12.1815V2.60983C12.6443 2.63918 13.0507 2.66402 13.5045 2.69111V5.34835H12.256V12.0897H14.8636V6.77743H17.5863V12.1371C18.3946 12.1371 19.1418 12.1371 19.8891 12.1371C20.905 12.1371 21.921 12.119 22.9369 12.1438C23.8422 12.1642 24.366 12.6676 24.3796 13.5639C24.4044 15.3136 24.3999 17.0632 24.3796 18.8129C24.3705 19.637 24.1019 19.9146 23.0543 20.3549V22.9218C24.1628 23.134 24.4337 23.8903 24.3999 24.9153C24.3547 26.3241 24.3525 27.7374 24.3999 29.1484C24.4337 30.1734 24.1651 30.9297 23.0634 31.1532V44.6087H23.0656ZM81.2788 42.0011C81.096 41.9695 81.0147 41.9447 80.9334 41.9447C76.4769 41.9424 72.0203 41.9311 67.5614 41.9627C67.2657 41.9627 66.8887 42.2111 66.6945 42.4572C65.6311 43.8095 64.6039 45.1889 63.588 46.5774C63.1861 47.126 62.6917 47.3675 62.0076 47.3653C47.7619 47.3563 33.5162 47.3563 19.2705 47.3653C18.5842 47.3653 18.0943 47.1147 17.6947 46.5683C16.6968 45.2025 15.6967 43.8366 14.6378 42.5181C14.4008 42.2246 13.9199 41.9718 13.5474 41.9673C10.1632 41.9244 6.77674 41.9424 3.39254 41.9447C3.17806 41.9447 2.96584 41.9831 2.71976 42.0079C2.71976 44.3491 2.70395 46.6315 2.72427 48.914C2.74233 50.9843 3.31578 52.91 4.29785 54.7297C4.59811 55.2851 4.94128 55.5086 5.61179 55.5086C27.1361 55.486 48.6582 55.4883 70.1825 55.5041C70.8215 55.5041 71.1804 55.328 71.5191 54.7703C73.3839 51.7158 75.3119 48.6973 77.188 45.6495C77.617 44.9519 78.1475 44.5748 78.9806 44.6471C79.2876 44.6742 79.6014 44.6651 79.9107 44.6471C80.719 44.5929 81.2179 44.112 81.2743 43.3151C81.3037 42.8974 81.2788 42.4752 81.2788 42.0056V42.0011ZM70.4083 58.2629H7.35921C9.79069 60.1029 12.3599 60.9089 15.2158 60.9089C33.3288 60.9021 51.4396 60.9043 69.5527 60.9043H70.4106V58.2629H70.4083ZM47.3759 44.6177V39.2807H28.511V44.6177H47.3759ZM56.8625 31.1645H43.4227V36.4789H56.8625V31.1645ZM37.9728 28.3356H48.7034V23.0212H37.9728V28.3356ZM20.3 36.5783H6.84672V39.231C9.44527 39.231 11.9806 39.2468 14.5137 39.2197C15.2632 39.2107 15.7915 39.4703 16.2295 40.0754C17.2206 41.4435 18.2365 42.7936 19.2773 44.1256C19.4895 44.3965 19.8507 44.5477 20.3023 44.8661V36.576L20.3 36.5783ZM5.46505 17.5012H21.6139V14.8914H5.46505V17.5012ZM5.45828 28.3266H21.632V25.7371H5.45828V28.3266ZM32.5477 36.4541H40.5984V31.1554H32.5477V36.4541ZM58.2171 39.2897H50.1934V44.6042H58.2171V39.2897ZM9.44978 22.9444V20.3142H6.83544V22.9444H9.44978ZM14.8681 22.9444V20.3142H12.2538V22.9444H14.8681ZM17.6653 20.3075V22.9218H20.2661V20.3075H17.6653ZM9.47236 31.1757H6.83769V33.7517H9.47236V31.1757ZM12.2447 31.1419V33.7607H14.8501V31.1419H12.2447ZM20.291 31.1487H17.6698V33.754H20.291V31.1487Z" fill="#D53029"/>
</g>
<defs>
<clipPath id="clip0_473_2422">
<rect width="84" height="63.6225" fill="white"/>
</clipPath>
</defs>
</svg>
