<svg width="84" height="57" viewBox="0 0 84 57" fill="none" xmlns="http://www.w3.org/2000/svg">
<g clip-path="url(#clip0_473_2425)">
<path d="M81.1871 42.3371C81.1871 39.9078 81.2104 37.6192 81.1591 35.3353C81.1521 35.0328 80.8325 34.6107 80.5455 34.4607C78.4553 33.3633 76.3488 32.2893 74.2143 31.2787C73.3838 30.8848 72.9149 30.3126 72.5836 29.4708C70.2182 23.4562 67.8154 17.4557 65.4242 11.4505C64.8877 10.1046 64.6847 9.96855 63.2127 9.96855C58.5191 9.96855 53.8231 9.96855 48.9872 9.96855C48.9872 10.332 48.9872 10.6673 48.9872 11.0026C48.9872 18.8884 48.9872 26.7766 48.9872 34.6623C48.9872 36.292 48.5836 36.7071 46.995 36.7071C34.7757 36.7071 22.5564 36.7071 10.3371 36.7071C10.0759 36.7071 9.80291 36.7328 9.5533 36.6742C8.84879 36.5124 8.41489 36.0575 8.41022 35.3189C8.40556 34.5404 8.84879 34.062 9.59996 33.919C9.91022 33.8604 10.2392 33.8932 10.5611 33.8932C22.0502 33.8932 33.5416 33.8932 45.0308 33.8932H46.1295V2.93161C45.7796 2.93161 45.439 2.93161 45.0984 2.93161C35.5035 2.93161 25.9087 2.93161 16.3138 2.93161C16.1085 2.93161 15.9056 2.93396 15.7003 2.93161C14.6155 2.9152 13.9717 2.3665 13.9973 1.48483C14.023 0.633644 14.6412 0.122463 15.6933 0.120119C20.8255 0.115429 25.9577 0.117774 31.0922 0.117774C36.3993 0.117774 41.7065 0.117774 47.016 0.117774C48.5673 0.117774 48.9872 0.539849 48.9872 2.0945C48.9872 3.7359 48.9872 5.37496 48.9872 7.15471H49.9343C54.425 7.15471 58.9157 7.15471 63.4087 7.15471C65.7905 7.15471 67.0735 8.01997 67.9623 10.2452C70.3161 16.1379 72.6513 22.0399 75.0261 27.9232C75.1917 28.3335 75.572 28.7509 75.9616 28.9573C78.2314 30.1532 80.5222 31.3068 82.8294 32.4277C83.6808 32.8404 84.0051 33.4289 84.0004 34.3669C83.9724 39.2043 83.9888 44.0418 83.9864 48.8792C83.9864 50.3213 83.5362 50.7786 82.1132 50.7786C79.6054 50.7809 77.0976 50.7833 74.5899 50.7786C73.3021 50.7762 72.8426 50.3354 72.7819 49.0715C72.5603 44.499 68.9188 40.9489 64.4304 40.9325C59.8978 40.9161 56.2236 44.4686 55.9997 49.0833C55.9413 50.3049 55.4724 50.7786 54.2664 50.7786C46.0712 50.7833 37.876 50.7833 29.6808 50.7786C28.5261 50.7786 28.0479 50.2956 27.9872 49.1348C27.7446 44.4733 24.1334 40.9395 19.6077 40.9325C15.0797 40.9278 11.4336 44.4732 11.2003 49.1067C11.1466 50.1642 10.6334 50.7739 9.79358 50.7739C8.91878 50.7739 8.38923 50.108 8.39856 49.0199C8.44055 44.6608 11.3566 40.5222 15.5556 38.8643C19.6987 37.2276 24.5416 38.2828 27.6233 41.5633C28.1785 42.1542 28.7174 42.3582 29.5035 42.3558C37.9017 42.3277 46.3021 42.3347 54.7003 42.3488C55.3208 42.3488 55.757 42.2011 56.2073 41.7157C60.6676 36.8923 68.1396 36.9134 72.607 41.7462C72.9989 42.1706 73.3745 42.3558 73.9507 42.3488C76.3348 42.3183 78.7189 42.3371 81.1894 42.3371H81.1871ZM53.9048 45.2166H30.0657C30.306 46.1522 30.53 47.0198 30.7563 47.9038H53.2376C53.4686 46.9682 53.6855 46.0982 53.9048 45.2166ZM75.5416 47.9085H81.1217V45.1931H74.8628C75.0914 46.11 75.3107 46.9823 75.5416 47.9085Z" fill="#D53029"/>
<path d="M51.7883 21.8265C51.7883 19.3644 51.7836 16.9047 51.7883 14.4425C51.7906 13.1716 52.2735 12.6769 53.5215 12.6745C56.1156 12.6675 58.7097 12.6862 61.3038 12.6651C62.1856 12.6581 62.7058 13.0427 63.0021 13.8704C64.7914 18.8485 66.604 23.8197 68.3956 28.7978C68.8761 30.132 68.2673 30.9621 66.8279 30.9645C62.3979 30.9715 57.9679 30.9692 53.5379 30.9645C52.2805 30.9645 51.7906 30.4697 51.7883 29.2105C51.7813 26.7484 51.7883 24.2886 51.7883 21.8265ZM65.041 28.1061C65.062 28.031 65.083 27.9982 65.076 27.9771C63.6296 23.9346 62.1856 19.892 60.7183 15.8542C60.66 15.6924 60.3987 15.5048 60.2284 15.5024C58.3738 15.4766 56.5169 15.486 54.6436 15.486V28.1061H65.041Z" fill="#D53029"/>
<path d="M26.5883 49.2162C26.5953 53.111 23.474 56.279 19.6085 56.2977C15.7524 56.3165 12.5938 53.1486 12.5938 49.2608C12.5938 45.3777 15.7431 42.2215 19.6132 42.2285C23.4367 42.2356 26.5813 45.3847 26.5883 49.2186V49.2162ZM19.5992 45.0447C17.2664 45.0541 15.3791 46.9628 15.3955 49.3006C15.4118 51.5963 17.299 53.4768 19.5852 53.4792C21.9063 53.4815 23.7936 51.5705 23.7866 49.2233C23.7796 46.937 21.876 45.0377 19.5992 45.0447Z" fill="#D53029"/>
<path d="M64.3798 56.2978C60.526 56.3048 57.3813 53.1275 57.3906 49.2351C57.4 45.3918 60.5236 42.2474 64.3494 42.2286C68.2172 42.2098 71.3899 45.3707 71.3852 49.2444C71.3805 53.1369 68.2476 56.2931 64.3798 56.3001V56.2978ZM64.4171 45.0424C62.0819 45.0424 60.1854 46.9418 60.1947 49.2773C60.2017 51.5729 62.0796 53.4628 64.3634 53.4769C66.6869 53.491 68.5835 51.587 68.5858 49.2397C68.5858 46.9512 66.6939 45.0424 64.4171 45.0424Z" fill="#D53029"/>
<path d="M12.5375 12.6722C9.4185 12.6722 6.29719 12.6746 3.17822 12.6722C2.0608 12.6722 1.42394 12.1704 1.40294 11.3005C1.37962 10.3954 2.03747 9.86309 3.19921 9.86309C9.46749 9.86074 15.7381 9.86074 22.0064 9.86309C23.1261 9.86309 23.763 10.3625 23.784 11.2348C23.8073 12.1353 23.1424 12.6746 21.9854 12.6746C18.8361 12.6793 15.6868 12.6746 12.5375 12.6746V12.6722Z" fill="#D53029"/>
<path d="M7.57282 25.339C5.62025 25.339 3.66535 25.3437 1.71278 25.339C0.62336 25.3343 -0.0204972 24.7832 0.000498125 23.9016C0.0191606 23.0504 0.63969 22.5298 1.68712 22.5298C5.62258 22.5228 9.56037 22.5251 13.4958 22.5298C14.5829 22.5298 15.2291 23.0856 15.2081 23.9649C15.1895 24.809 14.5596 25.3343 13.5215 25.339C11.5386 25.3484 9.55571 25.3413 7.57282 25.3413V25.339Z" fill="#D53029"/>
<path d="M7.7616 0.00958947C8.43112 0.00958947 9.10297 -0.0138592 9.77249 0.0166241C10.6076 0.0541419 11.1745 0.630979 11.1838 1.3954C11.1955 2.15983 10.6333 2.78591 9.80748 2.80701C8.41012 2.84453 7.0081 2.84219 5.61074 2.80936C4.77326 2.7906 4.21105 2.19969 4.19939 1.43058C4.18773 0.630979 4.77326 0.0471073 5.66207 0.0142792C6.36191 -0.0115143 7.06175 0.00958947 7.7616 0.00958947Z" fill="#D53029"/>
<path d="M2.73685 36.5892C2.27028 36.5892 1.80139 36.6174 1.33716 36.5822C0.555665 36.5212 0.0167844 35.9514 0.000454677 35.2198C-0.0182078 34.4531 0.539335 33.8293 1.36049 33.7965C2.32161 33.7566 3.28506 33.7566 4.24618 33.7965C5.02767 33.8293 5.56655 34.4226 5.58521 35.1542C5.60388 35.9186 5.044 36.5259 4.22285 36.5822C3.73063 36.6174 3.2314 36.5892 2.73685 36.5869V36.5892Z" fill="#D53029"/>
</g>
<defs>
<clipPath id="clip0_473_2425">
<rect width="84" height="56.2979" fill="white"/>
</clipPath>
</defs>
</svg>
