<svg width="30" height="30" viewBox="0 0 30 30" fill="none" xmlns="http://www.w3.org/2000/svg">
<rect width="30" height="30" rx="15" fill="white"/>
<g clip-path="url(#clip0_518_8654)">
<path d="M17.8494 17.7265C16.5722 18.8357 15.1497 19.1546 13.5803 18.599C11.7257 17.9421 10.6839 16.077 11.0281 14.1198C11.3541 12.2667 13.0597 10.8912 15.0303 10.8926C16.9565 10.894 18.665 12.2772 18.9621 14.1444C19.0661 14.797 19.0148 15.4736 19.0408 16.1395C19.0661 16.7725 19.4103 17.1729 19.9667 17.2291C20.4915 17.2818 20.9797 16.9256 21.1469 16.3299C21.4047 15.4103 21.4012 14.4781 21.1912 13.5515C20.5252 10.6081 17.8142 8.52515 14.8033 8.63404C11.7208 8.74573 9.18196 10.9909 8.72463 14.0088C8.20408 17.4427 10.8687 20.7992 14.3341 21.0746C15.8747 21.1968 16.6165 21.0275 18.4584 20.1227C18.8048 20.5175 19.156 20.9186 19.5297 21.3443C18.7984 21.8698 18.0131 22.2147 17.1771 22.4473C12.6186 23.7167 8.02284 20.8694 7.13207 16.2287C6.34668 12.136 9.14683 8.04815 13.3351 7.17425C17.6154 6.28067 21.7862 8.90731 22.7907 13.1427C23.076 14.3453 23.0851 15.5586 22.7507 16.7556C22.1782 18.8055 19.7819 19.5593 18.2688 18.1747C18.1241 18.0419 17.9983 17.8873 17.8487 17.7265H17.8494ZM14.9937 17.2165C16.3228 17.2172 17.3794 16.1901 17.3857 14.8898C17.3928 13.5824 16.2983 12.4943 14.9916 12.509C13.6878 12.5238 12.6123 13.5909 12.6094 14.8743C12.6066 16.162 13.6786 17.215 14.9937 17.2165Z" fill="#1B1B24"/>
</g>
<defs>
<clipPath id="clip0_518_8654">
<rect width="16.0029" height="15.75" fill="white" transform="translate(7 7)"/>
</clipPath>
</defs>
</svg>
