<svg width="218" height="47" viewBox="0 0 218 47" fill="none" xmlns="http://www.w3.org/2000/svg">
<path d="M108.078 3.35645H110.744C111.885 3.35645 112.748 3.5166 113.334 3.83691C113.92 4.15723 114.213 4.71973 114.213 5.52441C114.213 5.84863 114.16 6.1416 114.055 6.40332C113.953 6.66504 113.805 6.87988 113.609 7.04785C113.414 7.21582 113.176 7.3252 112.895 7.37598V7.43457C113.18 7.49316 113.438 7.59473 113.668 7.73926C113.898 7.87988 114.082 8.08691 114.219 8.36035C114.359 8.62988 114.43 8.98926 114.43 9.43848C114.43 9.95801 114.303 10.4033 114.049 10.7744C113.795 11.1455 113.432 11.4307 112.959 11.6299C112.49 11.8252 111.932 11.9229 111.283 11.9229H108.078V3.35645ZM109.895 6.74902H110.949C111.477 6.74902 111.842 6.66699 112.045 6.50293C112.248 6.33496 112.35 6.08887 112.35 5.76465C112.35 5.43652 112.229 5.20215 111.986 5.06152C111.748 4.91699 111.369 4.84473 110.85 4.84473H109.895V6.74902ZM109.895 8.19043V10.4229H111.078C111.625 10.4229 112.006 10.3174 112.221 10.1064C112.436 9.89551 112.543 9.6123 112.543 9.25684C112.543 9.0459 112.496 8.86035 112.402 8.7002C112.309 8.54004 112.15 8.41504 111.928 8.3252C111.709 8.23535 111.406 8.19043 111.02 8.19043H109.895ZM123.916 7.62793C123.916 8.28809 123.834 8.88965 123.67 9.43262C123.506 9.97168 123.256 10.4365 122.92 10.8271C122.588 11.2178 122.166 11.5186 121.654 11.7295C121.143 11.9365 120.537 12.04 119.838 12.04C119.139 12.04 118.533 11.9365 118.021 11.7295C117.51 11.5186 117.086 11.2178 116.75 10.8271C116.418 10.4365 116.17 9.96973 116.006 9.42676C115.842 8.88379 115.76 8.28027 115.76 7.61621C115.76 6.72949 115.904 5.95801 116.193 5.30176C116.486 4.6416 116.936 4.12988 117.541 3.7666C118.146 3.40332 118.916 3.22168 119.85 3.22168C120.779 3.22168 121.543 3.40332 122.141 3.7666C122.742 4.12988 123.188 4.6416 123.477 5.30176C123.77 5.96191 123.916 6.7373 123.916 7.62793ZM117.664 7.62793C117.664 8.22559 117.738 8.74121 117.887 9.1748C118.039 9.60449 118.275 9.93652 118.596 10.1709C118.916 10.4014 119.33 10.5166 119.838 10.5166C120.354 10.5166 120.771 10.4014 121.092 10.1709C121.412 9.93652 121.645 9.60449 121.789 9.1748C121.938 8.74121 122.012 8.22559 122.012 7.62793C122.012 6.72949 121.844 6.02246 121.508 5.50684C121.172 4.99121 120.619 4.7334 119.85 4.7334C119.338 4.7334 118.92 4.85059 118.596 5.08496C118.275 5.31543 118.039 5.64746 117.887 6.08105C117.738 6.51074 117.664 7.02637 117.664 7.62793ZM132.471 11.9229H130.66V4.86816H128.562C128.516 5.23535 128.465 5.63574 128.41 6.06934C128.355 6.50293 128.299 6.94043 128.24 7.38184C128.182 7.82324 128.119 8.24316 128.053 8.6416C127.99 9.04004 127.928 9.38965 127.865 9.69043C127.764 10.1904 127.625 10.6162 127.449 10.9678C127.277 11.3154 127.041 11.5811 126.74 11.7646C126.443 11.9482 126.055 12.04 125.574 12.04C125.414 12.04 125.26 12.0283 125.111 12.0049C124.967 11.9814 124.832 11.9502 124.707 11.9111V10.4229C124.809 10.458 124.91 10.4873 125.012 10.5107C125.113 10.5303 125.225 10.54 125.346 10.54C125.502 10.54 125.631 10.4893 125.732 10.3877C125.838 10.2822 125.932 10.1045 126.014 9.85449C126.096 9.60059 126.178 9.25098 126.26 8.80566C126.295 8.61035 126.342 8.33496 126.4 7.97949C126.459 7.62012 126.525 7.2002 126.6 6.71973C126.674 6.23535 126.75 5.70801 126.828 5.1377C126.91 4.56738 126.988 3.97363 127.062 3.35645H132.471V11.9229ZM140.047 3.35645V4.85645H136.449V11.9229H134.633V3.35645H140.047ZM149.146 7.62793C149.146 8.28809 149.064 8.88965 148.9 9.43262C148.736 9.97168 148.486 10.4365 148.15 10.8271C147.818 11.2178 147.396 11.5186 146.885 11.7295C146.373 11.9365 145.768 12.04 145.068 12.04C144.369 12.04 143.764 11.9365 143.252 11.7295C142.74 11.5186 142.316 11.2178 141.98 10.8271C141.648 10.4365 141.4 9.96973 141.236 9.42676C141.072 8.88379 140.99 8.28027 140.99 7.61621C140.99 6.72949 141.135 5.95801 141.424 5.30176C141.717 4.6416 142.166 4.12988 142.771 3.7666C143.377 3.40332 144.146 3.22168 145.08 3.22168C146.01 3.22168 146.773 3.40332 147.371 3.7666C147.973 4.12988 148.418 4.6416 148.707 5.30176C149 5.96191 149.146 6.7373 149.146 7.62793ZM142.895 7.62793C142.895 8.22559 142.969 8.74121 143.117 9.1748C143.27 9.60449 143.506 9.93652 143.826 10.1709C144.146 10.4014 144.561 10.5166 145.068 10.5166C145.584 10.5166 146.002 10.4014 146.322 10.1709C146.643 9.93652 146.875 9.60449 147.02 9.1748C147.168 8.74121 147.242 8.22559 147.242 7.62793C147.242 6.72949 147.074 6.02246 146.738 5.50684C146.402 4.99121 145.85 4.7334 145.08 4.7334C144.568 4.7334 144.15 4.85059 143.826 5.08496C143.506 5.31543 143.27 5.64746 143.117 6.08105C142.969 6.51074 142.895 7.02637 142.895 7.62793ZM156.336 3.35645V4.85645H152.738V11.9229H150.922V3.35645H156.336ZM160.396 3.35645C161.502 3.35645 162.309 3.59473 162.816 4.07129C163.324 4.54395 163.578 5.19629 163.578 6.02832C163.578 6.40332 163.521 6.7627 163.408 7.10645C163.295 7.44629 163.109 7.74902 162.852 8.01465C162.598 8.28027 162.258 8.49121 161.832 8.64746C161.406 8.7998 160.881 8.87598 160.256 8.87598H159.477V11.9229H157.66V3.35645H160.396ZM160.303 4.84473H159.477V7.3877H160.074C160.414 7.3877 160.709 7.34277 160.959 7.25293C161.209 7.16309 161.402 7.02246 161.539 6.83105C161.676 6.63965 161.744 6.39355 161.744 6.09277C161.744 5.6709 161.627 5.3584 161.393 5.15527C161.158 4.94824 160.795 4.84473 160.303 4.84473ZM170.439 11.9229L169.818 9.88379H166.695L166.074 11.9229H164.117L167.141 3.32129H169.361L172.396 11.9229H170.439ZM169.385 8.36035L168.764 6.36816C168.725 6.23535 168.672 6.06543 168.605 5.8584C168.543 5.64746 168.479 5.43457 168.412 5.21973C168.35 5.00098 168.299 4.81152 168.26 4.65137C168.221 4.81152 168.166 5.01074 168.096 5.24902C168.029 5.4834 167.965 5.70605 167.902 5.91699C167.84 6.12793 167.795 6.27832 167.768 6.36816L167.152 8.36035H169.385ZM180.189 3.35645V10.4111H181.332V14.4189H179.58V11.9229H174.213V14.4189H172.461V10.4111H173.123C173.346 9.96582 173.561 9.49512 173.768 8.99902C173.975 8.50293 174.168 7.96973 174.348 7.39941C174.527 6.8291 174.689 6.20996 174.834 5.54199C174.979 4.87402 175.1 4.14551 175.197 3.35645H180.189ZM178.379 4.86816H176.639C176.58 5.28223 176.5 5.72363 176.398 6.19238C176.297 6.66113 176.176 7.13965 176.035 7.62793C175.898 8.1123 175.744 8.59082 175.572 9.06348C175.404 9.53613 175.225 9.98535 175.033 10.4111H178.379V4.86816ZM186.295 4.74512C185.947 4.74512 185.639 4.81348 185.369 4.9502C185.104 5.08301 184.879 5.27637 184.695 5.53027C184.516 5.78418 184.379 6.09082 184.285 6.4502C184.191 6.80957 184.145 7.21387 184.145 7.66309C184.145 8.26855 184.219 8.78613 184.367 9.21582C184.52 9.6416 184.754 9.96777 185.07 10.1943C185.387 10.417 185.795 10.5283 186.295 10.5283C186.643 10.5283 186.99 10.4893 187.338 10.4111C187.689 10.333 188.07 10.2217 188.48 10.0771V11.6006C188.102 11.7568 187.729 11.8682 187.361 11.9346C186.994 12.0049 186.582 12.04 186.125 12.04C185.242 12.04 184.516 11.8584 183.945 11.4951C183.379 11.1279 182.959 10.6162 182.686 9.95996C182.412 9.2998 182.275 8.53027 182.275 7.65137C182.275 7.00293 182.363 6.40918 182.539 5.87012C182.715 5.33105 182.973 4.86426 183.312 4.46973C183.652 4.0752 184.072 3.77051 184.572 3.55566C185.072 3.34082 185.646 3.2334 186.295 3.2334C186.721 3.2334 187.146 3.28809 187.572 3.39746C188.002 3.50293 188.412 3.64941 188.803 3.83691L188.217 5.31348C187.896 5.16113 187.574 5.02832 187.25 4.91504C186.926 4.80176 186.607 4.74512 186.295 4.74512ZM197.293 11.9229H195.23L192.125 7.58105V11.9229H190.309V3.35645H192.125V7.50488L195.195 3.35645H197.129L194.006 7.46973L197.293 11.9229ZM198.371 3.35645H200.006V7.49316C200.006 7.69629 200.002 7.9209 199.994 8.16699C199.99 8.41309 199.982 8.65527 199.971 8.89355C199.963 9.12793 199.955 9.33301 199.947 9.50879C199.939 9.68457 199.932 9.80176 199.924 9.86035H199.959L203.914 3.35645H206.088V11.9229H204.471V7.80957C204.471 7.59082 204.475 7.35254 204.482 7.09473C204.49 6.83691 204.5 6.58691 204.512 6.34473C204.527 6.10254 204.541 5.89355 204.553 5.71777C204.564 5.53809 204.572 5.41895 204.576 5.36035H204.529L200.557 11.9229H198.371V3.35645ZM208.25 3.35645H209.885V7.49316C209.885 7.69629 209.881 7.9209 209.873 8.16699C209.869 8.41309 209.861 8.65527 209.85 8.89355C209.842 9.12793 209.834 9.33301 209.826 9.50879C209.818 9.68457 209.811 9.80176 209.803 9.86035H209.838L213.793 3.35645H215.967V11.9229H214.35V7.80957C214.35 7.59082 214.354 7.35254 214.361 7.09473C214.369 6.83691 214.379 6.58691 214.391 6.34473C214.406 6.10254 214.42 5.89355 214.432 5.71777C214.443 5.53809 214.451 5.41895 214.455 5.36035H214.408L210.436 11.9229H208.25V3.35645ZM215.152 0.538086C215.109 0.952148 214.992 1.31738 214.801 1.63379C214.609 1.9502 214.311 2.19629 213.904 2.37207C213.498 2.54785 212.951 2.63574 212.264 2.63574C211.557 2.63574 211.006 2.55176 210.611 2.38379C210.217 2.21191 209.936 1.96973 209.768 1.65723C209.6 1.34082 209.498 0.967773 209.463 0.538086H211.062C211.098 0.979492 211.209 1.27246 211.396 1.41699C211.584 1.55762 211.885 1.62793 212.299 1.62793C212.643 1.62793 212.924 1.5498 213.143 1.39355C213.361 1.2373 213.492 0.952148 213.535 0.538086H215.152ZM111.383 27.9229H109.566V20.8682H107.24V19.3564H113.709V20.8682H111.383V27.9229ZM117.764 19.3564C118.869 19.3564 119.676 19.5947 120.184 20.0713C120.691 20.5439 120.945 21.1963 120.945 22.0283C120.945 22.4033 120.889 22.7627 120.775 23.1064C120.662 23.4463 120.477 23.749 120.219 24.0146C119.965 24.2803 119.625 24.4912 119.199 24.6475C118.773 24.7998 118.248 24.876 117.623 24.876H116.844V27.9229H115.027V19.3564H117.764ZM117.67 20.8447H116.844V23.3877H117.441C117.781 23.3877 118.076 23.3428 118.326 23.2529C118.576 23.1631 118.77 23.0225 118.906 22.8311C119.043 22.6396 119.111 22.3936 119.111 22.0928C119.111 21.6709 118.994 21.3584 118.76 21.1553C118.525 20.9482 118.162 20.8447 117.67 20.8447ZM127.807 27.9229L127.186 25.8838H124.062L123.441 27.9229H121.484L124.508 19.3213H126.729L129.764 27.9229H127.807ZM126.752 24.3604L126.131 22.3682C126.092 22.2354 126.039 22.0654 125.973 21.8584C125.91 21.6475 125.846 21.4346 125.779 21.2197C125.717 21.001 125.666 20.8115 125.627 20.6514C125.588 20.8115 125.533 21.0107 125.463 21.249C125.396 21.4834 125.332 21.7061 125.27 21.917C125.207 22.1279 125.162 22.2783 125.135 22.3682L124.52 24.3604H126.752ZM137.832 27.9229H135.77L132.664 23.5811V27.9229H130.848V19.3564H132.664V23.5049L135.734 19.3564H137.668L134.545 23.4697L137.832 27.9229ZM142.215 27.9229H140.398V20.8682H138.072V19.3564H144.541V20.8682H142.215V27.9229ZM153.635 23.6279C153.635 24.2881 153.553 24.8896 153.389 25.4326C153.225 25.9717 152.975 26.4365 152.639 26.8271C152.307 27.2178 151.885 27.5186 151.373 27.7295C150.861 27.9365 150.256 28.04 149.557 28.04C148.857 28.04 148.252 27.9365 147.74 27.7295C147.229 27.5186 146.805 27.2178 146.469 26.8271C146.137 26.4365 145.889 25.9697 145.725 25.4268C145.561 24.8838 145.479 24.2803 145.479 23.6162C145.479 22.7295 145.623 21.958 145.912 21.3018C146.205 20.6416 146.654 20.1299 147.26 19.7666C147.865 19.4033 148.635 19.2217 149.568 19.2217C150.498 19.2217 151.262 19.4033 151.859 19.7666C152.461 20.1299 152.906 20.6416 153.195 21.3018C153.488 21.9619 153.635 22.7373 153.635 23.6279ZM147.383 23.6279C147.383 24.2256 147.457 24.7412 147.605 25.1748C147.758 25.6045 147.994 25.9365 148.314 26.1709C148.635 26.4014 149.049 26.5166 149.557 26.5166C150.072 26.5166 150.49 26.4014 150.811 26.1709C151.131 25.9365 151.363 25.6045 151.508 25.1748C151.656 24.7412 151.73 24.2256 151.73 23.6279C151.73 22.7295 151.562 22.0225 151.227 21.5068C150.891 20.9912 150.338 20.7334 149.568 20.7334C149.057 20.7334 148.639 20.8506 148.314 21.085C147.994 21.3154 147.758 21.6475 147.605 22.0811C147.457 22.5107 147.383 23.0264 147.383 23.6279ZM158.146 19.3564C159.252 19.3564 160.059 19.5947 160.566 20.0713C161.074 20.5439 161.328 21.1963 161.328 22.0283C161.328 22.4033 161.271 22.7627 161.158 23.1064C161.045 23.4463 160.859 23.749 160.602 24.0146C160.348 24.2803 160.008 24.4912 159.582 24.6475C159.156 24.7998 158.631 24.876 158.006 24.876H157.227V27.9229H155.41V19.3564H158.146ZM158.053 20.8447H157.227V23.3877H157.824C158.164 23.3877 158.459 23.3428 158.709 23.2529C158.959 23.1631 159.152 23.0225 159.289 22.8311C159.426 22.6396 159.494 22.3936 159.494 22.0928C159.494 21.6709 159.377 21.3584 159.143 21.1553C158.908 20.9482 158.545 20.8447 158.053 20.8447ZM169.965 27.9229H168.154V24.2256H164.762V27.9229H162.945V19.3564H164.762V22.7139H168.154V19.3564H169.965V27.9229ZM172.133 27.9229V19.3564H173.949V22.6436H174.535C175.328 22.6436 175.979 22.7549 176.486 22.9775C176.998 23.2002 177.377 23.5088 177.623 23.9033C177.869 24.2939 177.992 24.7412 177.992 25.2451C177.992 26.0928 177.711 26.751 177.148 27.2197C176.59 27.6885 175.699 27.9229 174.477 27.9229H172.133ZM173.949 26.4346H174.424C174.959 26.4346 175.381 26.3467 175.689 26.1709C175.998 25.9912 176.152 25.6826 176.152 25.2451C176.152 24.9404 176.082 24.708 175.941 24.5479C175.801 24.3877 175.596 24.2783 175.326 24.2197C175.057 24.1611 174.729 24.1318 174.342 24.1318H173.949V26.4346ZM179.035 27.9229V19.3564H180.846V27.9229H179.035ZM183.008 19.3564H184.643V23.4932C184.643 23.6963 184.639 23.9209 184.631 24.167C184.627 24.4131 184.619 24.6553 184.607 24.8936C184.6 25.1279 184.592 25.333 184.584 25.5088C184.576 25.6846 184.568 25.8018 184.561 25.8604H184.596L188.551 19.3564H190.725V27.9229H189.107V23.8096C189.107 23.5908 189.111 23.3525 189.119 23.0947C189.127 22.8369 189.137 22.5869 189.148 22.3447C189.164 22.1025 189.178 21.8936 189.189 21.7178C189.201 21.5381 189.209 21.4189 189.213 21.3604H189.166L185.193 27.9229H183.008V19.3564ZM189.91 16.5381C189.867 16.9521 189.75 17.3174 189.559 17.6338C189.367 17.9502 189.068 18.1963 188.662 18.3721C188.256 18.5479 187.709 18.6357 187.021 18.6357C186.314 18.6357 185.764 18.5518 185.369 18.3838C184.975 18.2119 184.693 17.9697 184.525 17.6572C184.357 17.3408 184.256 16.9678 184.221 16.5381H185.82C185.855 16.9795 185.967 17.2725 186.154 17.417C186.342 17.5576 186.643 17.6279 187.057 17.6279C187.4 17.6279 187.682 17.5498 187.9 17.3936C188.119 17.2373 188.25 16.9521 188.293 16.5381H189.91ZM113.996 37.3604C113.996 37.9346 113.791 38.3975 113.381 38.749C112.971 39.1006 112.451 39.3213 111.822 39.4111V39.4463C112.604 39.5244 113.205 39.7412 113.627 40.0967C114.049 40.4521 114.26 40.915 114.26 41.4854C114.26 41.9854 114.123 42.4287 113.85 42.8154C113.576 43.1982 113.172 43.499 112.637 43.7178C112.102 43.9326 111.439 44.04 110.65 44.04C110.002 44.04 109.426 44.001 108.922 43.9229C108.422 43.8408 107.988 43.7256 107.621 43.5771V42.0537C107.871 42.1709 108.15 42.2725 108.459 42.3584C108.771 42.4404 109.088 42.5049 109.408 42.5518C109.729 42.5947 110.025 42.6162 110.299 42.6162C111.057 42.6162 111.605 42.5068 111.945 42.2881C112.289 42.0693 112.461 41.7588 112.461 41.3564C112.461 40.9463 112.213 40.6475 111.717 40.46C111.221 40.2725 110.553 40.1787 109.713 40.1787H108.91V38.7607H109.631C110.311 38.7607 110.838 38.7178 111.213 38.6318C111.592 38.542 111.855 38.415 112.004 38.251C112.156 38.083 112.232 37.8818 112.232 37.6475C112.232 37.3545 112.102 37.1221 111.84 36.9502C111.578 36.7744 111.189 36.6865 110.674 36.6865C110.229 36.6865 109.812 36.751 109.426 36.8799C109.039 37.0049 108.678 37.1729 108.342 37.3838L107.551 36.1709C107.844 35.9795 108.156 35.8135 108.488 35.6729C108.824 35.5322 109.191 35.4248 109.59 35.3506C109.988 35.2725 110.434 35.2334 110.926 35.2334C111.57 35.2334 112.121 35.3252 112.578 35.5088C113.035 35.6924 113.385 35.9443 113.627 36.2646C113.873 36.5811 113.996 36.9463 113.996 37.3604ZM121.104 43.9229L120.482 41.8838H117.359L116.738 43.9229H114.781L117.805 35.3213H120.025L123.061 43.9229H121.104ZM120.049 40.3604L119.428 38.3682C119.389 38.2354 119.336 38.0654 119.27 37.8584C119.207 37.6475 119.143 37.4346 119.076 37.2197C119.014 37.001 118.963 36.8115 118.924 36.6514C118.885 36.8115 118.83 37.0107 118.76 37.249C118.693 37.4834 118.629 37.7061 118.566 37.917C118.504 38.1279 118.459 38.2783 118.432 38.3682L117.816 40.3604H120.049ZM124.145 35.3564H126.811C127.951 35.3564 128.814 35.5166 129.4 35.8369C129.986 36.1572 130.279 36.7197 130.279 37.5244C130.279 37.8486 130.227 38.1416 130.121 38.4033C130.02 38.665 129.871 38.8799 129.676 39.0479C129.48 39.2158 129.242 39.3252 128.961 39.376V39.4346C129.246 39.4932 129.504 39.5947 129.734 39.7393C129.965 39.8799 130.148 40.0869 130.285 40.3604C130.426 40.6299 130.496 40.9893 130.496 41.4385C130.496 41.958 130.369 42.4033 130.115 42.7744C129.861 43.1455 129.498 43.4307 129.025 43.6299C128.557 43.8252 127.998 43.9229 127.35 43.9229H124.145V35.3564ZM125.961 38.749H127.016C127.543 38.749 127.908 38.667 128.111 38.5029C128.314 38.335 128.416 38.0889 128.416 37.7646C128.416 37.4365 128.295 37.2021 128.053 37.0615C127.814 36.917 127.436 36.8447 126.916 36.8447H125.961V38.749ZM125.961 40.1904V42.4229H127.145C127.691 42.4229 128.072 42.3174 128.287 42.1064C128.502 41.8955 128.609 41.6123 128.609 41.2568C128.609 41.0459 128.562 40.8604 128.469 40.7002C128.375 40.54 128.217 40.415 127.994 40.3252C127.775 40.2354 127.473 40.1904 127.086 40.1904H125.961ZM139.982 39.6279C139.982 40.2881 139.9 40.8896 139.736 41.4326C139.572 41.9717 139.322 42.4365 138.986 42.8271C138.654 43.2178 138.232 43.5186 137.721 43.7295C137.209 43.9365 136.604 44.04 135.904 44.04C135.205 44.04 134.6 43.9365 134.088 43.7295C133.576 43.5186 133.152 43.2178 132.816 42.8271C132.484 42.4365 132.236 41.9697 132.072 41.4268C131.908 40.8838 131.826 40.2803 131.826 39.6162C131.826 38.7295 131.971 37.958 132.26 37.3018C132.553 36.6416 133.002 36.1299 133.607 35.7666C134.213 35.4033 134.982 35.2217 135.916 35.2217C136.846 35.2217 137.609 35.4033 138.207 35.7666C138.809 36.1299 139.254 36.6416 139.543 37.3018C139.836 37.9619 139.982 38.7373 139.982 39.6279ZM133.73 39.6279C133.73 40.2256 133.805 40.7412 133.953 41.1748C134.105 41.6045 134.342 41.9365 134.662 42.1709C134.982 42.4014 135.396 42.5166 135.904 42.5166C136.42 42.5166 136.838 42.4014 137.158 42.1709C137.479 41.9365 137.711 41.6045 137.855 41.1748C138.004 40.7412 138.078 40.2256 138.078 39.6279C138.078 38.7295 137.91 38.0225 137.574 37.5068C137.238 36.9912 136.686 36.7334 135.916 36.7334C135.404 36.7334 134.986 36.8506 134.662 37.085C134.342 37.3154 134.105 37.6475 133.953 38.0811C133.805 38.5107 133.73 39.0264 133.73 39.6279ZM148.467 35.3564V42.4111H149.609V46.4189H147.857V43.9229H142.49V46.4189H140.738V42.4111H141.4C141.623 41.9658 141.838 41.4951 142.045 40.999C142.252 40.5029 142.445 39.9697 142.625 39.3994C142.805 38.8291 142.967 38.21 143.111 37.542C143.256 36.874 143.377 36.1455 143.475 35.3564H148.467ZM146.656 36.8682H144.916C144.857 37.2822 144.777 37.7236 144.676 38.1924C144.574 38.6611 144.453 39.1396 144.312 39.6279C144.176 40.1123 144.021 40.5908 143.85 41.0635C143.682 41.5361 143.502 41.9854 143.311 42.4111H146.656V36.8682Z" fill="white"/>
<path d="M43.8899 46.1351C34.6376 45.9244 24.8417 44.3688 15.6221 40.3745C11.1536 38.4376 7.07649 35.9788 3.91266 32.396C-1.47997 26.2941 -1.28427 19.1184 4.41279 13.2575C8.72907 8.82159 14.1761 5.97139 20.1775 4.08463C37.7253 -1.44516 55.2949 -1.38494 72.7557 4.41582C78.1375 6.20221 83.0735 8.79148 87.0092 12.7256C91.2712 16.9708 93.2064 21.8281 91.0646 27.5587C89.749 31.0612 87.1615 33.7408 84.0629 36.0089C78.3006 40.2039 71.625 42.5724 64.5798 44.1581C58.0673 45.6233 51.4461 46.2355 43.8899 46.1452V46.1351ZM45.8034 45.6534C54.1642 45.6133 62.3292 44.6298 70.2442 42.1208C76.3762 40.1738 82.0624 37.5344 86.607 33.1386C93.0325 26.9264 92.9999 19.2589 86.607 13.0467C84.0411 10.5578 81.0404 8.61083 77.757 7.03519C70.4291 3.52262 62.5793 1.68605 54.4034 0.963462C42.1069 -0.120418 30.0822 0.903246 18.525 5.18858C13.2084 7.16566 8.35941 9.83522 4.565 13.9098C-0.610189 19.4697 -0.773273 26.0934 4.16273 31.834C7.56574 35.7881 12.056 38.3874 16.9811 40.4046C26.1573 44.1681 35.8553 45.5832 45.8143 45.6534H45.8034Z" fill="#D53029"/>
<path d="M41.4327 19.9615C41.6393 19.8109 41.7263 19.7206 41.835 19.6704C43.1397 19.0683 44.1943 18.2654 44.1726 16.7801C44.1508 15.2546 43.0745 14.3614 41.7154 13.8094C40.6173 13.3679 39.4214 12.9263 38.2472 12.8861C34.8333 12.7657 31.4085 12.846 27.7555 12.846C29.2993 17.031 30.7997 21.1156 32.3327 25.2805H21.9823C20.0797 19.9213 18.2096 14.6324 16.2744 9.17285H74.8758C71.2879 12.9464 67.7653 16.6496 64.0905 20.5134C70.5595 24.4676 76.9198 28.3615 83.2909 32.2655L83.2583 32.4963H35.0181C36.0075 35.0455 36.9099 37.3437 37.8775 39.8426C35.8335 39.8426 33.9526 39.8426 32.0717 39.8426C31.1585 39.8426 30.2452 39.8527 29.3428 39.8426C26.94 39.8025 27.5815 40.234 26.7009 38.0663C26.0268 36.4304 25.3962 34.7644 24.82 33.0985C24.5808 32.416 24.2002 32.1752 23.4174 32.1852C20.9059 32.2254 18.3836 32.1651 15.8721 32.2153C15.0567 32.2254 14.6218 32.0548 14.4043 31.2719C14.0347 29.887 13.5237 28.5321 13.0127 26.9866C13.6215 26.9866 14.089 26.9866 14.5457 26.9866C22.4389 27.0167 30.3322 27.0368 38.2254 27.0769C39.8237 27.0769 41.4328 27.2475 43.031 27.1572C43.9986 27.107 45.0206 26.8461 45.8795 26.4447C47.7278 25.5816 48.0648 23.8454 46.8363 22.3099C45.836 21.0755 44.216 20.3529 41.4436 19.9615H41.4327Z" fill="#D53029"/>
</svg>
