<svg width="457" height="116" viewBox="0 0 457 116" fill="none" xmlns="http://www.w3.org/2000/svg">
<path d="M215.336 15.4395H221.112C223.584 15.4395 225.454 15.7865 226.724 16.4805C227.993 17.1745 228.628 18.3932 228.628 20.1367C228.628 20.8392 228.514 21.474 228.285 22.041C228.065 22.6081 227.743 23.0736 227.32 23.4375C226.897 23.8014 226.381 24.0384 225.771 24.1484V24.2754C226.389 24.4023 226.948 24.6224 227.447 24.9355C227.947 25.2402 228.344 25.6888 228.641 26.2812C228.945 26.8652 229.098 27.6439 229.098 28.6172C229.098 29.7428 228.823 30.7077 228.272 31.5117C227.722 32.3158 226.935 32.9336 225.911 33.3652C224.896 33.7884 223.685 34 222.28 34H215.336V15.4395ZM219.271 22.79H221.557C222.699 22.79 223.491 22.6123 223.931 22.2568C224.371 21.8929 224.591 21.3597 224.591 20.6572C224.591 19.9463 224.328 19.4385 223.804 19.1338C223.287 18.8206 222.466 18.6641 221.341 18.6641H219.271V22.79ZM219.271 25.9131V30.75H221.836C223.021 30.75 223.846 30.5215 224.312 30.0645C224.777 29.6074 225.01 28.9938 225.01 28.2236C225.01 27.7666 224.908 27.3646 224.705 27.0176C224.502 26.6706 224.159 26.3997 223.677 26.2051C223.203 26.0104 222.547 25.9131 221.709 25.9131H219.271ZM249.651 24.6943C249.651 26.1247 249.474 27.4281 249.118 28.6045C248.763 29.7725 248.221 30.7796 247.493 31.626C246.774 32.4723 245.86 33.124 244.751 33.5811C243.642 34.0296 242.33 34.2539 240.815 34.2539C239.3 34.2539 237.989 34.0296 236.88 33.5811C235.771 33.124 234.853 32.4723 234.125 31.626C233.406 30.7796 232.868 29.7682 232.513 28.5918C232.157 27.4154 231.979 26.1077 231.979 24.6689C231.979 22.7477 232.293 21.0762 232.919 19.6543C233.554 18.224 234.527 17.1152 235.839 16.3281C237.151 15.541 238.818 15.1475 240.841 15.1475C242.855 15.1475 244.51 15.541 245.805 16.3281C247.108 17.1152 248.073 18.224 248.699 19.6543C249.334 21.0846 249.651 22.7646 249.651 24.6943ZM236.105 24.6943C236.105 25.9893 236.266 27.1064 236.588 28.0459C236.918 28.9769 237.43 29.6963 238.124 30.2041C238.818 30.7035 239.715 30.9531 240.815 30.9531C241.933 30.9531 242.838 30.7035 243.532 30.2041C244.226 29.6963 244.73 28.9769 245.043 28.0459C245.365 27.1064 245.525 25.9893 245.525 24.6943C245.525 22.7477 245.161 21.2158 244.434 20.0986C243.706 18.9814 242.508 18.4229 240.841 18.4229C239.732 18.4229 238.826 18.6768 238.124 19.1846C237.43 19.6839 236.918 20.4033 236.588 21.3428C236.266 22.2738 236.105 23.391 236.105 24.6943ZM268.187 34H264.264V18.7148H259.719C259.617 19.5104 259.507 20.3779 259.389 21.3174C259.27 22.2568 259.147 23.2048 259.021 24.1611C258.894 25.1175 258.758 26.0273 258.614 26.8906C258.479 27.7539 258.343 28.5114 258.208 29.1631C257.988 30.2464 257.688 31.1689 257.307 31.9307C256.934 32.6839 256.422 33.2594 255.771 33.6572C255.127 34.055 254.285 34.2539 253.244 34.2539C252.897 34.2539 252.563 34.2285 252.241 34.1777C251.928 34.127 251.636 34.0592 251.365 33.9746V30.75C251.585 30.8262 251.805 30.8896 252.025 30.9404C252.245 30.9827 252.487 31.0039 252.749 31.0039C253.088 31.0039 253.367 30.8939 253.587 30.6738C253.815 30.4453 254.019 30.0602 254.196 29.5186C254.374 28.9684 254.552 28.2109 254.729 27.2461C254.806 26.8229 254.907 26.2262 255.034 25.4561C255.161 24.6774 255.305 23.7676 255.466 22.7266C255.627 21.6771 255.792 20.5345 255.961 19.2988C256.139 18.0632 256.308 16.7767 256.469 15.4395H268.187V34ZM284.602 15.4395V18.6895H276.807V34H272.871V15.4395H284.602ZM304.317 24.6943C304.317 26.1247 304.14 27.4281 303.784 28.6045C303.429 29.7725 302.887 30.7796 302.159 31.626C301.44 32.4723 300.526 33.124 299.417 33.5811C298.308 34.0296 296.996 34.2539 295.481 34.2539C293.966 34.2539 292.655 34.0296 291.546 33.5811C290.437 33.124 289.519 32.4723 288.791 31.626C288.072 30.7796 287.534 29.7682 287.179 28.5918C286.823 27.4154 286.646 26.1077 286.646 24.6689C286.646 22.7477 286.959 21.0762 287.585 19.6543C288.22 18.224 289.193 17.1152 290.505 16.3281C291.817 15.541 293.484 15.1475 295.507 15.1475C297.521 15.1475 299.176 15.541 300.471 16.3281C301.774 17.1152 302.739 18.224 303.365 19.6543C304 21.0846 304.317 22.7646 304.317 24.6943ZM290.771 24.6943C290.771 25.9893 290.932 27.1064 291.254 28.0459C291.584 28.9769 292.096 29.6963 292.79 30.2041C293.484 30.7035 294.381 30.9531 295.481 30.9531C296.599 30.9531 297.504 30.7035 298.198 30.2041C298.892 29.6963 299.396 28.9769 299.709 28.0459C300.031 27.1064 300.191 25.9893 300.191 24.6943C300.191 22.7477 299.827 21.2158 299.1 20.0986C298.372 18.9814 297.174 18.4229 295.507 18.4229C294.398 18.4229 293.493 18.6768 292.79 19.1846C292.096 19.6839 291.584 20.4033 291.254 21.3428C290.932 22.2738 290.771 23.391 290.771 24.6943ZM319.895 15.4395V18.6895H312.1V34H308.164V15.4395H319.895ZM328.692 15.4395C331.088 15.4395 332.835 15.9557 333.936 16.9883C335.036 18.0124 335.586 19.4258 335.586 21.2285C335.586 22.041 335.463 22.8197 335.218 23.5645C334.972 24.3008 334.57 24.9567 334.012 25.5322C333.462 26.1077 332.725 26.5648 331.803 26.9033C330.88 27.2334 329.742 27.3984 328.388 27.3984H326.699V34H322.764V15.4395H328.692ZM328.489 18.6641H326.699V24.1738H327.994C328.73 24.1738 329.369 24.0765 329.911 23.8818C330.453 23.6872 330.872 23.3825 331.168 22.9678C331.464 22.5531 331.612 22.0199 331.612 21.3682C331.612 20.4541 331.358 19.777 330.851 19.3369C330.343 18.8883 329.556 18.6641 328.489 18.6641ZM350.452 34L349.106 29.582H342.34L340.994 34H336.754L343.305 15.3633H348.116L354.692 34H350.452ZM348.167 26.2812L346.821 21.9648C346.737 21.6771 346.622 21.3089 346.479 20.8604C346.343 20.4033 346.203 19.9421 346.06 19.4766C345.924 19.0026 345.814 18.5921 345.729 18.2451C345.645 18.5921 345.526 19.0238 345.374 19.54C345.23 20.0479 345.09 20.5303 344.955 20.9873C344.82 21.4443 344.722 21.7702 344.663 21.9648L343.33 26.2812H348.167ZM371.577 15.4395V30.7246H374.053V39.4082H370.257V34H358.628V39.4082H354.832V30.7246H356.267C356.749 29.7598 357.215 28.7399 357.663 27.665C358.112 26.5902 358.531 25.4349 358.92 24.1992C359.309 22.9635 359.66 21.6221 359.974 20.1748C360.287 18.7275 360.549 17.1491 360.761 15.4395H371.577ZM367.654 18.7148H363.884C363.757 19.612 363.583 20.5684 363.363 21.584C363.143 22.5996 362.881 23.6364 362.576 24.6943C362.28 25.7438 361.946 26.7806 361.573 27.8047C361.209 28.8288 360.82 29.8021 360.405 30.7246H367.654V18.7148ZM384.806 18.4482C384.052 18.4482 383.384 18.5964 382.8 18.8926C382.224 19.1803 381.738 19.5993 381.34 20.1494C380.951 20.6995 380.654 21.3639 380.451 22.1426C380.248 22.9212 380.146 23.7972 380.146 24.7705C380.146 26.0824 380.307 27.2038 380.629 28.1348C380.959 29.0573 381.467 29.764 382.152 30.2549C382.838 30.7373 383.722 30.9785 384.806 30.9785C385.559 30.9785 386.312 30.8939 387.065 30.7246C387.827 30.5553 388.652 30.3141 389.541 30.001V33.3018C388.72 33.6403 387.912 33.8815 387.116 34.0254C386.321 34.1777 385.428 34.2539 384.438 34.2539C382.525 34.2539 380.951 33.8604 379.715 33.0732C378.488 32.2777 377.578 31.1689 376.985 29.7471C376.393 28.3167 376.097 26.6494 376.097 24.7451C376.097 23.3402 376.287 22.0537 376.668 20.8857C377.049 19.7178 377.607 18.7064 378.344 17.8516C379.08 16.9967 379.99 16.3366 381.073 15.8711C382.157 15.4056 383.401 15.1729 384.806 15.1729C385.728 15.1729 386.651 15.2913 387.573 15.5283C388.504 15.7568 389.393 16.0742 390.239 16.4805L388.97 19.6797C388.276 19.3496 387.577 19.0618 386.875 18.8164C386.173 18.571 385.483 18.4482 384.806 18.4482ZM408.635 34H404.166L397.438 24.5928V34H393.502V15.4395H397.438V24.4277L404.09 15.4395H408.279L401.513 24.3516L408.635 34ZM410.971 15.4395H414.513V24.4023C414.513 24.8424 414.504 25.3291 414.487 25.8623C414.479 26.3955 414.462 26.9202 414.437 27.4365C414.42 27.9443 414.403 28.3887 414.386 28.7695C414.369 29.1504 414.352 29.4043 414.335 29.5312H414.411L422.98 15.4395H427.69V34H424.187V25.0879C424.187 24.6139 424.195 24.0977 424.212 23.5391C424.229 22.9805 424.25 22.4388 424.275 21.9141C424.309 21.3893 424.339 20.9365 424.364 20.5557C424.39 20.1663 424.407 19.9082 424.415 19.7812H424.313L415.706 34H410.971V15.4395ZM432.375 15.4395H435.917V24.4023C435.917 24.8424 435.909 25.3291 435.892 25.8623C435.883 26.3955 435.866 26.9202 435.841 27.4365C435.824 27.9443 435.807 28.3887 435.79 28.7695C435.773 29.1504 435.756 29.4043 435.739 29.5312H435.815L444.385 15.4395H449.095V34H445.591V25.0879C445.591 24.6139 445.599 24.0977 445.616 23.5391C445.633 22.9805 445.654 22.4388 445.68 21.9141C445.714 21.3893 445.743 20.9365 445.769 20.5557C445.794 20.1663 445.811 19.9082 445.819 19.7812H445.718L437.11 34H432.375V15.4395ZM447.33 9.33301C447.237 10.2301 446.983 11.0215 446.568 11.707C446.154 12.3926 445.506 12.9258 444.626 13.3066C443.746 13.6875 442.561 13.8779 441.071 13.8779C439.539 13.8779 438.346 13.696 437.491 13.332C436.636 12.9596 436.027 12.4349 435.663 11.7578C435.299 11.0723 435.079 10.264 435.003 9.33301H438.469C438.545 10.2894 438.786 10.9242 439.192 11.2373C439.599 11.542 440.25 11.6943 441.147 11.6943C441.892 11.6943 442.502 11.5251 442.976 11.1865C443.45 10.848 443.733 10.2301 443.826 9.33301H447.33ZM222.496 68H218.561V52.7148H213.521V49.4395H227.536V52.7148H222.496V68ZM236.321 49.4395C238.716 49.4395 240.464 49.9557 241.564 50.9883C242.665 52.0124 243.215 53.4258 243.215 55.2285C243.215 56.041 243.092 56.8197 242.847 57.5645C242.601 58.3008 242.199 58.9567 241.641 59.5322C241.09 60.1077 240.354 60.5648 239.432 60.9033C238.509 61.2334 237.371 61.3984 236.017 61.3984H234.328V68H230.393V49.4395H236.321ZM236.118 52.6641H234.328V58.1738H235.623C236.359 58.1738 236.998 58.0765 237.54 57.8818C238.082 57.6872 238.501 57.3825 238.797 56.9678C239.093 56.5531 239.241 56.0199 239.241 55.3682C239.241 54.4541 238.987 53.777 238.479 53.3369C237.972 52.8883 237.185 52.6641 236.118 52.6641ZM258.081 68L256.735 63.582H249.969L248.623 68H244.383L250.934 49.3633H255.745L262.321 68H258.081ZM255.796 60.2812L254.45 55.9648C254.366 55.6771 254.251 55.3089 254.107 54.8604C253.972 54.4033 253.832 53.9421 253.688 53.4766C253.553 53.0026 253.443 52.5921 253.358 52.2451C253.274 52.5921 253.155 53.0238 253.003 53.54C252.859 54.0479 252.719 54.5303 252.584 54.9873C252.449 55.4443 252.351 55.7702 252.292 55.9648L250.959 60.2812H255.796ZM279.803 68H275.334L268.605 58.5928V68H264.67V49.4395H268.605V58.4277L275.258 49.4395H279.447L272.681 58.3516L279.803 68ZM289.299 68H285.363V52.7148H280.323V49.4395H294.339V52.7148H289.299V68ZM314.042 58.6943C314.042 60.1247 313.864 61.4281 313.509 62.6045C313.153 63.7725 312.612 64.7796 311.884 65.626C311.164 66.4723 310.25 67.124 309.142 67.5811C308.033 68.0296 306.721 68.2539 305.206 68.2539C303.691 68.2539 302.379 68.0296 301.271 67.5811C300.162 67.124 299.243 66.4723 298.516 65.626C297.796 64.7796 297.259 63.7682 296.903 62.5918C296.548 61.4154 296.37 60.1077 296.37 58.6689C296.37 56.7477 296.683 55.0762 297.31 53.6543C297.944 52.224 298.918 51.1152 300.229 50.3281C301.541 49.541 303.209 49.1475 305.231 49.1475C307.246 49.1475 308.9 49.541 310.195 50.3281C311.499 51.1152 312.464 52.224 313.09 53.6543C313.725 55.0846 314.042 56.7646 314.042 58.6943ZM300.496 58.6943C300.496 59.9893 300.657 61.1064 300.979 62.0459C301.309 62.9769 301.821 63.6963 302.515 64.2041C303.209 64.7035 304.106 64.9531 305.206 64.9531C306.323 64.9531 307.229 64.7035 307.923 64.2041C308.617 63.6963 309.12 62.9769 309.434 62.0459C309.755 61.1064 309.916 59.9893 309.916 58.6943C309.916 56.7477 309.552 55.2158 308.824 54.0986C308.096 52.9814 306.899 52.4229 305.231 52.4229C304.123 52.4229 303.217 52.6768 302.515 53.1846C301.821 53.6839 301.309 54.4033 300.979 55.3428C300.657 56.2738 300.496 57.391 300.496 58.6943ZM323.817 49.4395C326.213 49.4395 327.96 49.9557 329.061 50.9883C330.161 52.0124 330.711 53.4258 330.711 55.2285C330.711 56.041 330.588 56.8197 330.343 57.5645C330.097 58.3008 329.695 58.9567 329.137 59.5322C328.587 60.1077 327.85 60.5648 326.928 60.9033C326.005 61.2334 324.867 61.3984 323.513 61.3984H321.824V68H317.889V49.4395H323.817ZM323.614 52.6641H321.824V58.1738H323.119C323.855 58.1738 324.494 58.0765 325.036 57.8818C325.578 57.6872 325.997 57.3825 326.293 56.9678C326.589 56.5531 326.737 56.0199 326.737 55.3682C326.737 54.4541 326.483 53.777 325.976 53.3369C325.468 52.8883 324.681 52.6641 323.614 52.6641ZM349.424 68H345.501V59.9893H338.15V68H334.215V49.4395H338.15V56.7139H345.501V49.4395H349.424V68ZM354.121 68V49.4395H358.057V56.5615H359.326C361.044 56.5615 362.453 56.8027 363.554 57.2852C364.662 57.7676 365.483 58.4362 366.017 59.291C366.55 60.1374 366.816 61.1064 366.816 62.1982C366.816 64.0348 366.207 65.4609 364.988 66.4766C363.778 67.4922 361.848 68 359.199 68H354.121ZM358.057 64.7754H359.085C360.244 64.7754 361.159 64.585 361.827 64.2041C362.496 63.8148 362.83 63.1462 362.83 62.1982C362.83 61.5381 362.678 61.0345 362.373 60.6875C362.068 60.3405 361.624 60.1035 361.04 59.9766C360.456 59.8496 359.745 59.7861 358.907 59.7861H358.057V64.7754ZM369.076 68V49.4395H372.999V68H369.076ZM377.684 49.4395H381.226V58.4023C381.226 58.8424 381.217 59.3291 381.2 59.8623C381.192 60.3955 381.175 60.9202 381.149 61.4365C381.132 61.9443 381.116 62.3887 381.099 62.7695C381.082 63.1504 381.065 63.4043 381.048 63.5312H381.124L389.693 49.4395H394.403V68H390.899V59.0879C390.899 58.6139 390.908 58.0977 390.925 57.5391C390.942 56.9805 390.963 56.4388 390.988 55.9141C391.022 55.3893 391.052 54.9365 391.077 54.5557C391.103 54.1663 391.119 53.9082 391.128 53.7812H391.026L382.419 68H377.684V49.4395ZM392.639 43.333C392.546 44.2301 392.292 45.0215 391.877 45.707C391.462 46.3926 390.815 46.9258 389.935 47.3066C389.054 47.6875 387.869 47.8779 386.38 47.8779C384.848 47.8779 383.655 47.696 382.8 47.332C381.945 46.9596 381.336 46.4349 380.972 45.7578C380.608 45.0723 380.388 44.264 380.312 43.333H383.777C383.854 44.2894 384.095 44.9242 384.501 45.2373C384.907 45.542 385.559 45.6943 386.456 45.6943C387.201 45.6943 387.81 45.5251 388.284 45.1865C388.758 44.848 389.042 44.2301 389.135 43.333H392.639ZM228.158 87.7812C228.158 89.0254 227.714 90.0283 226.825 90.79C225.937 91.5518 224.811 92.0299 223.448 92.2246V92.3008C225.141 92.4701 226.444 92.9398 227.358 93.71C228.272 94.4801 228.729 95.4831 228.729 96.7188C228.729 97.8021 228.433 98.7627 227.841 99.6006C227.248 100.43 226.372 101.082 225.213 101.556C224.053 102.021 222.619 102.254 220.909 102.254C219.504 102.254 218.256 102.169 217.164 102C216.081 101.822 215.141 101.573 214.346 101.251V97.9502C214.887 98.2041 215.493 98.4242 216.161 98.6104C216.838 98.7881 217.524 98.9277 218.218 99.0293C218.912 99.1224 219.555 99.1689 220.147 99.1689C221.789 99.1689 222.979 98.932 223.715 98.458C224.46 97.984 224.832 97.3112 224.832 96.4395C224.832 95.5508 224.295 94.9033 223.22 94.4971C222.145 94.0908 220.698 93.8877 218.878 93.8877H217.139V90.8154H218.7C220.173 90.8154 221.315 90.7223 222.128 90.5361C222.949 90.3415 223.52 90.0664 223.842 89.7109C224.172 89.347 224.337 88.9111 224.337 88.4033C224.337 87.7686 224.053 87.265 223.486 86.8926C222.919 86.5117 222.077 86.3213 220.96 86.3213C219.995 86.3213 219.094 86.4609 218.256 86.7402C217.418 87.0111 216.635 87.375 215.907 87.832L214.193 85.2041C214.828 84.7894 215.505 84.4297 216.225 84.125C216.952 83.8203 217.748 83.5876 218.611 83.4268C219.475 83.2575 220.439 83.1729 221.506 83.1729C222.902 83.1729 224.096 83.3717 225.086 83.7695C226.076 84.1673 226.834 84.7132 227.358 85.4072C227.892 86.0928 228.158 86.8841 228.158 87.7812ZM243.558 102L242.212 97.582H235.445L234.1 102H229.859L236.41 83.3633H241.222L247.798 102H243.558ZM241.272 94.2812L239.927 89.9648C239.842 89.6771 239.728 89.3089 239.584 88.8604C239.449 88.4033 239.309 87.9421 239.165 87.4766C239.03 87.0026 238.92 86.5921 238.835 86.2451C238.75 86.5921 238.632 87.0238 238.479 87.54C238.336 88.0479 238.196 88.5303 238.061 88.9873C237.925 89.4443 237.828 89.7702 237.769 89.9648L236.436 94.2812H241.272ZM250.146 83.4395H255.923C258.394 83.4395 260.265 83.7865 261.534 84.4805C262.804 85.1745 263.438 86.3932 263.438 88.1367C263.438 88.8392 263.324 89.474 263.096 90.041C262.876 90.6081 262.554 91.0736 262.131 91.4375C261.708 91.8014 261.191 92.0384 260.582 92.1484V92.2754C261.2 92.4023 261.758 92.6224 262.258 92.9355C262.757 93.2402 263.155 93.6888 263.451 94.2812C263.756 94.8652 263.908 95.6439 263.908 96.6172C263.908 97.7428 263.633 98.7077 263.083 99.5117C262.533 100.316 261.746 100.934 260.722 101.365C259.706 101.788 258.496 102 257.091 102H250.146V83.4395ZM254.082 90.79H256.367C257.51 90.79 258.301 90.6123 258.741 90.2568C259.181 89.8929 259.401 89.3597 259.401 88.6572C259.401 87.9463 259.139 87.4385 258.614 87.1338C258.098 86.8206 257.277 86.6641 256.151 86.6641H254.082V90.79ZM254.082 93.9131V98.75H256.646C257.831 98.75 258.657 98.5215 259.122 98.0645C259.588 97.6074 259.82 96.9938 259.82 96.2236C259.82 95.7666 259.719 95.3646 259.516 95.0176C259.312 94.6706 258.97 94.3997 258.487 94.2051C258.013 94.0104 257.357 93.9131 256.52 93.9131H254.082ZM284.462 92.6943C284.462 94.1247 284.284 95.4281 283.929 96.6045C283.573 97.7725 283.032 98.7796 282.304 99.626C281.584 100.472 280.67 101.124 279.562 101.581C278.453 102.03 277.141 102.254 275.626 102.254C274.111 102.254 272.799 102.03 271.69 101.581C270.582 101.124 269.663 100.472 268.936 99.626C268.216 98.7796 267.679 97.7682 267.323 96.5918C266.968 95.4154 266.79 94.1077 266.79 92.6689C266.79 90.7477 267.103 89.0762 267.729 87.6543C268.364 86.224 269.338 85.1152 270.649 84.3281C271.961 83.541 273.629 83.1475 275.651 83.1475C277.666 83.1475 279.32 83.541 280.615 84.3281C281.919 85.1152 282.883 86.224 283.51 87.6543C284.145 89.0846 284.462 90.7646 284.462 92.6943ZM270.916 92.6943C270.916 93.9893 271.077 95.1064 271.398 96.0459C271.729 96.9769 272.241 97.6963 272.935 98.2041C273.629 98.7035 274.526 98.9531 275.626 98.9531C276.743 98.9531 277.649 98.7035 278.343 98.2041C279.037 97.6963 279.54 96.9769 279.854 96.0459C280.175 95.1064 280.336 93.9893 280.336 92.6943C280.336 90.7477 279.972 89.2158 279.244 88.0986C278.516 86.9814 277.319 86.4229 275.651 86.4229C274.543 86.4229 273.637 86.6768 272.935 87.1846C272.241 87.6839 271.729 88.4033 271.398 89.3428C271.077 90.2738 270.916 91.391 270.916 92.6943ZM302.845 83.4395V98.7246H305.32V107.408H301.524V102H289.896V107.408H286.1V98.7246H287.534C288.017 97.7598 288.482 96.7399 288.931 95.665C289.379 94.5902 289.798 93.4349 290.188 92.1992C290.577 90.9635 290.928 89.6221 291.241 88.1748C291.554 86.7275 291.817 85.1491 292.028 83.4395H302.845ZM298.922 86.7148H295.151C295.024 87.612 294.851 88.5684 294.631 89.584C294.411 90.5996 294.148 91.6364 293.844 92.6943C293.548 93.7438 293.213 94.7806 292.841 95.8047C292.477 96.8288 292.088 97.8021 291.673 98.7246H298.922V86.7148Z" fill="white"/>
<path d="M90.3849 105.679C71.3973 105.247 51.294 102.054 32.3733 93.8571C23.203 89.8821 14.8359 84.8361 8.3431 77.4834C-2.72373 64.9611 -2.32211 50.2351 9.36946 38.2071C18.2274 29.1038 29.4058 23.2546 41.7221 19.3825C77.7339 8.03423 113.79 8.1578 149.624 20.0622C160.668 23.7283 170.798 29.042 178.875 37.1156C187.621 45.8276 191.593 55.796 187.197 67.5562C184.498 74.7441 179.187 80.2432 172.828 84.8979C161.003 93.507 147.303 98.3676 132.845 101.622C119.48 104.629 105.892 105.885 90.3849 105.7V105.679ZM94.3118 104.69C111.47 104.608 128.226 102.59 144.47 97.4408C157.054 93.4452 168.723 88.0285 178.049 79.0075C191.236 66.2587 191.169 50.5234 178.049 37.7746C172.784 32.6669 166.626 28.6713 159.887 25.4377C144.849 18.2292 128.74 14.4601 111.961 12.9772C86.7257 10.7529 62.0485 12.8537 38.3306 21.6481C27.42 25.7055 17.4688 31.1839 9.68183 39.5459C-0.938762 50.956 -1.27344 64.5492 8.85628 76.33C15.84 84.4448 25.0549 89.7791 35.1623 93.9189C53.9938 101.642 73.8962 104.546 94.3342 104.69H94.3118Z" fill="white"/>
<path d="M85.3425 51.9655C85.7665 51.6565 85.945 51.4712 86.1681 51.3682C88.8456 50.1324 91.0098 48.4848 90.9652 45.4366C90.9206 42.306 88.7117 40.473 85.9227 39.3402C83.6691 38.434 81.2148 37.5278 78.8051 37.4454C71.7991 37.1983 64.7707 37.363 57.2738 37.363C60.4422 45.9515 63.5212 54.334 66.6673 62.8813H45.4261C41.5215 51.8831 37.6838 41.0291 33.7122 29.825H153.975C146.612 37.569 139.383 45.1688 131.841 53.0982C145.117 61.213 158.169 69.2042 171.244 77.216L171.177 77.6897H72.1784C74.2088 82.921 76.0607 87.6375 78.0465 92.7658C73.8518 92.7658 69.9918 92.7658 66.1318 92.7658C64.2575 92.7658 62.3833 92.7864 60.5314 92.7658C55.6004 92.6834 56.9168 93.5691 55.1096 89.1204C53.7262 85.7632 52.4321 82.3443 51.2496 78.9254C50.7587 77.5249 49.9778 77.0306 48.3713 77.0512C43.2172 77.1336 38.0408 77.01 32.8867 77.113C31.2132 77.1336 30.3208 76.7835 29.8745 75.177C29.1159 72.3348 28.0672 69.5543 27.0186 66.3826C28.268 66.3826 29.2275 66.3826 30.1646 66.3826C46.3632 66.4443 62.5618 66.4855 78.7605 66.5679C82.0403 66.5679 85.3425 66.918 88.6224 66.7327C90.6082 66.6297 92.7056 66.0942 94.4682 65.2704C98.2613 63.4991 98.953 59.9361 96.4317 56.7849C94.379 54.2516 91.0545 52.7687 85.3649 51.9655H85.3425Z" fill="white"/>
</svg>
