<svg width="60" height="60" viewBox="0 0 60 60" fill="none" xmlns="http://www.w3.org/2000/svg">
<path d="M43.8281 60H3.63281C2.62344 59.7297 1.63125 59.3781 1.01562 58.4875C0.59375 57.8781 0.332813 57.1562 0 56.4844C0 42.0703 0 27.6562 0 13.2422C1.06719 10.4547 2.11406 9.74219 5.12813 9.74219C13.3281 9.74219 21.5297 9.7375 29.7297 9.75312C30.2125 9.75312 30.4203 9.60156 30.625 9.16094C32.725 4.60938 36.2078 1.68906 41.075 0.453125C41.8625 0.253125 42.675 0.148438 43.4766 0C44.2188 0 44.9609 0 45.7031 0C45.8531 0.0328125 46.0031 0.078125 46.1547 0.0984375C52.5625 0.9375 56.9125 4.39375 59.1594 10.4375C59.5875 11.5906 59.7266 12.8516 60 14.0625V16.6406C59.9641 16.7703 59.9125 16.8984 59.8953 17.0297C59.0922 22.8297 56.0219 26.9609 50.7109 29.3969C49.6937 29.8625 48.5859 30.1297 47.4516 30.5094V31.1391C47.4516 36.3125 47.4516 41.4859 47.4516 46.6594C47.4516 49.6859 47.4641 52.7109 47.4469 55.7375C47.4359 57.8172 46.1094 59.4313 44.0906 59.8938C44 59.9141 43.9156 59.9641 43.8281 60ZM29.5422 12.5391H28.8766C20.7719 12.5391 12.6672 12.5391 4.5625 12.5391C3.26875 12.5391 2.79688 13.0063 2.79688 14.2984C2.79688 28.0078 2.79688 41.7172 2.79688 55.4281C2.79688 56.7234 3.26719 57.1922 4.56094 57.1922C17.3328 57.1922 30.1063 57.1922 42.8781 57.1922C44.1641 57.1922 44.6516 56.7062 44.6516 55.4297C44.65 47.4031 44.6453 39.3766 44.6437 31.35C44.6437 31.1422 44.6437 30.9344 44.6437 30.7047C39.8531 30.5578 35.8672 28.8047 32.8375 25.1484C29.8125 21.4969 28.7828 17.2703 29.5453 12.5406L29.5422 12.5391ZM44.6344 2.78125C37.6828 2.79062 32.0953 8.38906 32.1 15.3422C32.1031 22.2781 37.7281 27.8953 44.6625 27.8875C51.5891 27.8797 57.2062 22.2453 57.2 15.3109C57.1953 8.36562 51.5859 2.77188 44.6359 2.77969L44.6344 2.78125Z" fill="#D53029"/>
<path d="M23.7078 40.4387C19.1203 40.4387 14.5328 40.4402 9.94527 40.4387C9.06402 40.4387 8.5062 39.9996 8.39527 39.2465C8.2937 38.5527 8.70308 37.8996 9.38589 37.7309C9.66558 37.6605 9.96558 37.6527 10.2562 37.6527C19.2359 37.6496 28.2171 37.6496 37.1968 37.6527C37.4687 37.6527 37.7468 37.6605 38.0093 37.7215C38.6843 37.8777 39.0859 38.4512 39.0468 39.1512C39.0078 39.8246 38.5031 40.3605 37.8234 40.4293C37.6109 40.4512 37.3937 40.4418 37.1796 40.4418C32.689 40.4418 28.2 40.4418 23.7093 40.4418L23.7078 40.4387Z" fill="#D53029"/>
<path d="M23.6937 48.8285C19.2234 48.8285 14.7531 48.8285 10.2828 48.827C10.0297 48.827 9.77341 48.8238 9.52497 48.7801C8.81872 48.6551 8.34685 48.0676 8.37497 47.3738C8.4031 46.6582 8.9531 46.0973 9.68435 46.0488C9.85935 46.0363 10.0359 46.0426 10.2109 46.0426C19.2109 46.0426 28.2093 46.0426 37.2093 46.0426C37.2672 46.0426 37.3265 46.0426 37.3843 46.0426C38.4453 46.0473 39.0468 46.5457 39.05 47.4191C39.0515 48.2863 38.4375 48.827 37.3984 48.827C32.8312 48.8332 28.2625 48.8301 23.6953 48.8301L23.6937 48.8285Z" fill="#D53029"/>
<path d="M19.5108 29.2875C22.6155 29.2875 25.7202 29.2875 28.8249 29.2875C29.0389 29.2875 29.2561 29.2781 29.4686 29.3031C30.1343 29.3812 30.6483 29.9328 30.6905 30.5984C30.7311 31.2375 30.3139 31.8375 29.678 31.9984C29.4171 32.0641 29.1374 32.0766 28.8671 32.0766C22.6374 32.0812 16.4093 32.0797 10.1796 32.0766C9.94676 32.0766 9.7077 32.0719 9.48113 32.025C8.77957 31.8797 8.32645 31.2734 8.37801 30.5812C8.42957 29.8828 8.9577 29.3516 9.66863 29.2969C9.92176 29.2781 10.1764 29.2875 10.4296 29.2875C13.4561 29.2875 16.4827 29.2875 19.5093 29.2875H19.5108Z" fill="#D53029"/>
<path d="M16.764 23.6926C14.4625 23.6926 12.1609 23.702 9.85933 23.6879C8.87652 23.6817 8.24215 22.9598 8.40308 22.0692C8.5109 21.4723 8.86715 21.0879 9.46246 20.9645C9.72652 20.9098 10.0046 20.902 10.2765 20.902C14.5875 20.8989 18.8968 20.8989 23.2078 20.9004C23.4031 20.9004 23.5984 20.9004 23.7921 20.9223C24.6109 21.0208 25.1218 21.5926 25.0921 22.3676C25.064 23.1348 24.5031 23.6801 23.6671 23.6848C21.3656 23.6989 19.064 23.6895 16.7625 23.6911L16.764 23.6926Z" fill="#D53029"/>
<path d="M51.839 10.45C51.8562 11.2593 51.5124 11.6359 51.0843 11.9781C48.3233 14.1781 45.5687 16.3843 42.8108 18.5875C41.7749 19.4156 40.7468 20.2531 39.6968 21.064C39.1905 21.4562 38.539 21.4562 38.0577 21.1265C37.5733 20.7953 37.3296 20.214 37.5046 19.6406C37.5858 19.375 37.7452 19.0859 37.9577 18.9156C41.8327 15.7984 45.7187 12.6953 49.6062 9.59371C50.0577 9.23433 50.5671 9.17808 51.0874 9.44058C51.5858 9.69058 51.8233 10.1156 51.8374 10.4484L51.839 10.45Z" fill="#D53029"/>
<path d="M48.1202 23.6908C46.0609 23.6846 44.4093 22.0236 44.4155 19.9658C44.4218 17.9127 46.0843 16.2674 48.1484 16.2705C50.2077 16.2736 51.8624 17.9377 51.853 19.994C51.8437 22.0564 50.1874 23.6955 48.1202 23.6893V23.6908ZM48.1265 19.0611C47.6109 19.0643 47.2109 19.4705 47.2155 19.9877C47.2202 20.5049 47.6218 20.8971 48.1452 20.8924C48.6624 20.8877 49.0749 20.4768 49.0687 19.9705C49.0624 19.4674 48.6405 19.0596 48.1265 19.0627V19.0611Z" fill="#D53029"/>
<path d="M44.8829 10.7214C44.8642 12.7605 43.1579 14.4277 41.1189 14.4011C39.0751 14.3746 37.4204 12.673 37.4501 10.6277C37.4798 8.57143 39.1814 6.90737 41.2126 6.94799C43.272 6.99018 44.9017 8.66674 44.8829 10.7214ZM41.136 9.74487C40.6376 9.76049 40.2142 10.2105 40.2329 10.7042C40.2517 11.2074 40.6892 11.6167 41.1923 11.6011C41.7048 11.5871 42.0954 11.1683 42.0814 10.648C42.0673 10.1355 41.6423 9.72768 41.136 9.74487Z" fill="#D53029"/>
</svg>
