<svg width="60" height="56" viewBox="0 0 60 56" fill="none" xmlns="http://www.w3.org/2000/svg">
<g clip-path="url(#clip0_518_8829)">
<path d="M10.5648 33.8688C12.7405 33.7516 14.8513 33.5804 16.9636 33.5408C19.5355 33.4917 22.0108 33.9465 24.4416 34.8894C27.126 35.9305 29.896 36.7529 32.6549 37.588C33.4726 37.8353 34.3743 37.8463 35.2411 37.886C37.9477 38.0096 39.9 39.6544 40.4404 42.3087C40.4594 42.4038 40.4926 42.4973 40.5386 42.6574C40.9665 42.491 41.3816 42.3357 41.7921 42.1693C45.8805 40.5197 49.9673 38.8685 54.0542 37.2172C56.195 36.352 58.5245 37.1792 59.5403 39.1632C60.5497 41.1377 59.8477 43.6573 57.9192 44.8363C54.3077 47.0421 50.6662 49.2004 47.0642 51.4237C44.1691 53.2112 41.0045 54.208 37.6862 54.78C31.3048 55.8814 24.8806 55.9432 18.4484 55.4123C15.848 55.1984 13.2618 54.8086 10.6678 54.517C10.4934 54.498 10.2985 54.6216 10.121 54.6945C9.69636 54.8688 9.27959 55.2015 8.8549 55.2095C6.43988 55.2602 4.02327 55.2459 1.60825 55.2285C0.549697 55.2206 0.00457426 54.6469 0.00457426 53.5947C0.00140494 47.0596 0.00140494 40.526 0.00457426 33.9909C0.00457426 32.8769 0.565544 32.3301 1.70016 32.3286C3.9583 32.3254 6.21486 32.3286 8.473 32.3286C9.93881 32.3286 10.2177 32.5393 10.5679 33.8704L10.5648 33.8688ZM10.457 51.6186C12.7452 51.8991 14.9764 52.2176 17.2172 52.4363C23.5241 53.0543 29.8279 53.0939 36.1111 52.1606C39.48 51.6598 42.7159 50.7661 45.6507 48.9374C49.1433 46.7616 52.6739 44.6477 56.1792 42.4942C56.4565 42.323 56.7085 42.071 56.8986 41.8048C57.2124 41.3675 57.2187 40.8778 56.9398 40.4072C56.6704 39.9508 56.2489 39.7464 55.7371 39.8177C55.371 39.8684 55.005 39.9793 54.6595 40.1172C49.7613 42.0821 44.8679 44.0582 39.9681 46.0216C39.6797 46.1373 39.3612 46.2387 39.0569 46.2403C34.7593 46.2546 30.4633 46.2546 26.1657 46.245C25.3433 46.2435 24.7538 45.6571 24.7253 44.8886C24.6968 44.1264 25.2498 43.5131 26.0627 43.418C26.2576 43.3942 26.4589 43.4022 26.6554 43.4022C30.0608 43.4022 33.4678 43.4022 36.8733 43.4022C37.1046 43.4022 37.336 43.4022 37.561 43.4022C37.691 41.9649 36.6546 40.8635 35.1999 40.778C34.3711 40.7288 33.5122 40.7669 32.7246 40.5529C30.3445 39.908 27.9818 39.1901 25.6317 38.439C24.0153 37.9224 22.4655 37.1713 20.827 36.7545C18.3042 36.1143 15.7149 36.3203 13.1462 36.5469C12.2477 36.6262 11.3539 36.7545 10.457 36.8607V51.6186ZM7.59034 35.3172H2.89024V52.3365H7.59034V35.3172Z" fill="#D53029"/>
<path d="M14.2634 15.6533C14.2618 7.02322 21.3152 -0.00791661 29.9658 6.68994e-06C38.6165 0.00792999 45.6381 7.03748 45.6365 15.6866C45.6365 24.3356 38.5864 31.3937 29.9674 31.3747C21.2771 31.3557 14.265 24.3356 14.2634 15.6533ZM42.7826 15.6533C42.8063 8.6887 37.054 2.89201 30.0799 2.8524C22.9458 2.81278 17.1538 8.5239 17.1158 15.6343C17.0794 22.6559 22.8127 28.4843 29.7931 28.5207C37.0081 28.5572 42.7588 22.8603 42.7842 15.6533H42.7826Z" fill="#D53029"/>
<path d="M26.4731 21.388H24.7585V19.3723H26.4399V17.5626H24.7522V15.0969H26.4668V7.79953C26.5508 7.73456 26.5809 7.69019 26.611 7.69019C28.6077 7.70128 30.6154 7.59352 32.5994 7.75991C35.1286 7.97226 36.7132 9.96893 36.7196 12.6454C36.7259 15.1444 34.9954 17.1649 32.5297 17.4596C31.6502 17.5642 30.7533 17.5309 29.8643 17.5579C29.633 17.5642 29.4 17.5579 29.137 17.5579V19.3644H32.3776V21.3595H29.1306V23.6255H26.4716V21.3848L26.4731 21.388ZM29.1354 15.0969C30.1068 15.0969 31.0164 15.1365 31.9212 15.0874C33.0954 15.024 33.9305 14.1065 34.0003 12.8942C34.0811 11.4791 33.3918 10.3952 32.1684 10.2605C31.1796 10.1512 30.167 10.2383 29.1354 10.2383V15.0969Z" fill="#D53029"/>
</g>
<defs>
<clipPath id="clip0_518_8829">
<rect width="60" height="55.7341" fill="white"/>
</clipPath>
</defs>
</svg>
