<svg width="60" height="59" viewBox="0 0 60 59" fill="none" xmlns="http://www.w3.org/2000/svg">
<path d="M60.0001 38.5807C59.9564 38.6886 59.9048 38.7949 59.872 38.906C59.3876 40.5291 58.0861 41.5485 56.4314 41.5742C55.4158 41.5903 54.4001 41.5919 53.3861 41.5694C53.0345 41.5613 52.8236 41.666 52.6392 41.9881C51.3861 44.1748 49.7642 46.0379 47.8876 47.6772C47.6689 47.8688 47.4986 48.2247 47.4689 48.521C47.247 50.6804 47.083 52.8462 46.8705 55.0072C46.6595 57.1585 44.9595 58.7817 42.783 58.9492C40.7611 59.1054 38.8533 57.6368 38.3361 55.5112C38.133 54.6755 37.9626 53.8317 37.7626 52.9267C33.0126 54.1248 28.283 54.1328 23.5283 52.9203C23.3376 53.7592 23.1626 54.5386 22.9845 55.3164C22.458 57.6014 20.6189 59.0989 18.5205 58.9508C16.2298 58.7898 14.6142 57.1328 14.397 54.7238C14.208 52.6208 14.0423 50.5161 13.8111 48.4179C13.7767 48.1007 13.497 47.7529 13.2423 47.5274C10.4626 45.0701 8.2939 42.1507 7.09546 38.571C6.51577 36.8384 6.21421 35.0075 5.77827 33.1863C5.27515 33.1863 4.60952 33.2668 3.9689 33.1718C1.92827 32.8674 0.587646 31.5534 0.114209 29.4971C0.0876465 29.3812 0.039209 29.2717 0.00170898 29.1573C0.00170898 28.634 0.00170898 28.1106 0.00170898 27.5873C0.200146 27.0253 0.364209 26.4488 0.603271 25.9078C0.876709 25.291 1.4439 25.0785 1.94702 25.3329C2.45327 25.5889 2.56733 26.1364 2.3314 26.7918C2.15171 27.2942 1.96421 27.8256 1.94233 28.3522C1.85483 30.4085 3.82202 31.8288 5.68452 31.0639C5.86108 30.9914 6.01108 30.6468 6.03296 30.415C6.25483 28.0656 6.86421 25.8305 7.89858 23.7307C10.4611 18.5295 14.5361 15.0303 19.6595 12.734C20.3517 12.4233 21.0658 12.1608 21.7564 11.8822C20.9658 7.44588 22.2017 3.83079 25.9595 1.46529C29.2611 -0.611976 32.7095 -0.473492 35.8736 1.82599C39.2158 4.25269 40.2892 7.70191 39.5298 11.8548C39.6314 11.9015 39.7673 11.9627 39.9017 12.0255C41.358 12.6986 42.822 13.3556 44.2658 14.0593C44.5986 14.222 44.8189 14.2638 45.1501 14.0416C46.7986 12.9353 48.6142 12.4088 50.5861 12.4893C52.0705 12.5505 52.8751 13.3604 52.9705 14.8967C53.0923 16.8483 52.5423 18.6728 51.9736 20.4956C51.9017 20.7243 51.9064 21.0608 52.0236 21.2541C53.7095 24.056 54.1361 25.0656 55.0173 28.5583C55.4017 28.5583 55.8064 28.5583 56.2095 28.5583C58.1361 28.5664 59.3533 29.51 59.908 31.423C59.9236 31.4777 59.9673 31.5228 59.997 31.5744V38.5791L60.0001 38.5807ZM23.9736 16.0351C23.5439 15.4023 23.1126 14.829 22.7533 14.2123C22.5548 13.8725 22.397 13.7888 22.022 13.924C17.8986 15.4216 14.322 17.7597 11.6345 21.3523C7.88296 26.3651 6.84077 31.9093 8.9189 37.9414C10.1001 41.3649 12.2158 44.1249 14.958 46.3793C15.4314 46.769 15.6908 47.1893 15.7361 47.8382C15.8923 50.0846 16.1048 52.3277 16.3033 54.5724C16.4189 55.8816 17.3142 56.8461 18.4845 56.9395C19.7626 57.0426 20.7861 56.26 21.0908 54.9315C21.333 53.8752 21.5611 52.8156 21.7955 51.7577C22.0095 50.7915 22.4236 50.529 23.3595 50.7979C28.2345 52.194 33.108 52.186 37.9814 50.7867C38.8658 50.5322 39.2845 50.8092 39.4939 51.7512C39.7283 52.8092 39.958 53.8687 40.197 54.9251C40.4939 56.2342 41.4814 57.0136 42.7392 56.9411C43.9314 56.8719 44.8689 55.8912 44.9861 54.5708C45.1876 52.3068 45.3939 50.0443 45.5611 47.777C45.6033 47.2054 45.8048 46.7996 46.2376 46.4518C48.3392 44.7578 50.0689 42.7288 51.3392 40.3037C51.6251 39.7578 52.0298 39.5437 52.6205 39.5533C53.8892 39.5759 55.1595 39.571 56.4283 39.5533C57.3611 39.5404 58.0205 38.9527 58.0408 38.0026C58.083 36.0509 58.083 34.0977 58.0439 32.1476C58.0236 31.1879 57.3783 30.6082 56.4455 30.5824C55.7814 30.5647 55.1173 30.5824 54.4533 30.5744C53.6283 30.5647 53.3283 30.3119 53.1876 29.4762C52.733 26.7564 51.7423 24.2637 50.1595 22.0383C49.7517 21.465 49.7626 20.9578 49.9548 20.3008C50.3814 18.8435 50.758 17.3636 51.0361 15.8709C51.2751 14.5907 50.9611 14.3363 49.7126 14.4667C48.197 14.6245 46.8267 15.1575 45.6251 16.114C45.0642 16.5617 44.5908 16.5134 43.9689 16.1897C42.408 15.3733 40.8033 14.6471 39.2064 13.9047C39.0689 13.8419 38.7767 13.8612 38.7095 13.9563C38.2298 14.631 37.7892 15.3379 37.3298 16.0416C38.0642 16.3121 38.8189 16.5665 39.5548 16.8676C40.1486 17.1108 40.3751 17.6293 40.1861 18.172C40.0033 18.7018 39.4814 18.932 38.8783 18.7275C38.4892 18.5955 38.1142 18.4216 37.7251 18.2911C32.6392 16.5971 27.5939 16.6921 22.5892 18.6551C21.8564 18.9417 21.3173 18.7662 21.1048 18.1929C20.8861 17.5987 21.1517 17.0995 21.8751 16.8129C22.5626 16.5408 23.2611 16.296 23.9689 16.0351H23.9736ZM30.6314 2.05948C30.1876 2.11423 29.733 2.12873 29.2986 2.22856C26.3736 2.9081 24.4173 4.71806 23.6767 7.71641C22.9376 10.7035 23.8533 13.2252 26.1017 15.2316C26.2626 15.3749 26.5611 15.4522 26.7767 15.42C29.3048 15.04 31.8345 15.0142 34.358 15.4232C34.7783 15.4909 35.0533 15.383 35.3517 15.1173C37.6314 13.0867 38.4455 9.86292 37.3986 6.9483C36.3501 4.02403 33.6595 2.09491 30.6314 2.06109V2.05948Z" fill="#D53029"/>
<path d="M49.1795 28.1377C49.1795 28.4984 49.1999 28.8607 49.1749 29.2182C49.1295 29.8462 48.703 30.2617 48.167 30.2359C47.6514 30.2101 47.2592 29.7931 47.242 29.1941C47.2217 28.4936 47.2217 27.7915 47.242 27.0926C47.2592 26.4743 47.6889 26.0331 48.2202 26.0411C48.7327 26.0492 49.1311 26.4566 49.1749 27.0588C49.1999 27.4179 49.1795 27.7786 49.1795 28.1393V28.1377Z" fill="#D53029"/>
<path d="M30.6594 4.25293C33.486 4.25937 35.7532 6.60072 35.7532 9.51372C35.7532 12.4428 33.4454 14.8051 30.6032 14.7858C27.7922 14.7665 25.5282 12.3961 25.5391 9.48635C25.55 6.57818 27.8313 4.24649 30.6594 4.25454V4.25293ZM30.65 12.789C32.3907 12.7858 33.8141 11.3333 33.8344 9.53949C33.8547 7.74563 32.3891 6.22553 30.6422 6.22875C28.8954 6.23036 27.4329 7.75691 27.4594 9.54754C27.486 11.3462 28.911 12.7923 30.65 12.789Z" fill="#D53029"/>
</svg>
