<svg width="60" height="63" viewBox="0 0 60 63" fill="none" xmlns="http://www.w3.org/2000/svg">
<path d="M29.3892 62.575C27.7176 62.3102 26.4593 61.358 25.3158 60.1793C24.4372 59.2731 23.4896 58.4343 22.6018 57.5372C22.0032 56.9326 21.3251 56.7428 20.4924 56.8775C18.9463 57.127 17.3941 57.352 15.8404 57.5449C12.4053 57.9735 9.91934 56.0662 9.35296 52.6112C9.10957 51.1264 8.83556 49.6446 8.59064 48.1597C8.45746 47.3546 8.04109 46.7974 7.30785 46.4238C5.89342 45.7044 4.4943 44.9558 3.09977 44.1996C0.198964 42.626 -0.773074 39.6425 0.645949 36.6621C1.32714 35.2293 2.02058 33.8027 2.73851 32.3882C3.1212 31.6351 3.11814 30.9279 2.73545 30.1763C2.0267 28.7802 1.34398 27.3704 0.665849 25.959C-0.789912 22.9281 0.192842 19.9324 3.161 18.3404C4.52339 17.6087 5.87812 16.8647 7.2604 16.1743C8.06711 15.7702 8.4743 15.1594 8.61207 14.2854C8.86005 12.7179 9.12028 11.1519 9.43562 9.59815C10.1015 6.31771 12.6717 4.54661 15.9766 5.04105C17.5257 5.2722 19.0779 5.48804 20.6271 5.71918C21.3634 5.82787 21.9849 5.63652 22.5222 5.10994C23.684 3.96798 24.8566 2.83521 26.0353 1.7101C28.4202 -0.566153 31.5767 -0.567684 33.9601 1.70704C35.1097 2.80307 36.2608 3.8991 37.3829 5.02268C38.0013 5.64264 38.6947 5.83246 39.5489 5.69316C41.095 5.44058 42.6456 5.20638 44.2009 5.02728C47.587 4.63693 50.0117 6.46161 50.6225 9.83083C50.8919 11.3111 51.1567 12.7944 51.3863 14.2808C51.521 15.1564 51.9282 15.7687 52.7349 16.1728C54.0989 16.8555 55.4337 17.5949 56.7808 18.3128C59.8454 19.9477 60.8113 22.9357 59.2882 26.0662C58.6391 27.401 58.0115 28.7481 57.3227 30.063C56.8864 30.8957 56.8772 31.6596 57.3135 32.4954C58.0268 33.8654 58.6896 35.263 59.354 36.6591C60.7761 39.6456 59.8102 42.623 56.9078 44.1981C55.5317 44.9451 54.1555 45.6937 52.7533 46.3932C51.9236 46.8081 51.5195 47.4372 51.3802 48.3358C51.1414 49.8834 50.8781 51.4279 50.5658 52.9633C49.8938 56.2743 47.3053 58.0454 43.9774 57.5296C42.4298 57.2892 40.8761 57.0811 39.3254 56.856C38.6121 56.7519 38.0059 56.9464 37.487 57.4576C36.5578 58.3715 35.5888 59.2471 34.6826 60.1824C33.5391 61.3611 32.2808 62.3132 30.6092 62.578H29.3877L29.3892 62.575ZM44.9724 54.0134C46.0485 54.0455 46.7986 53.4761 46.9869 52.4979C47.2548 51.1003 47.5533 49.7028 47.7186 48.2914C48.0125 45.7656 49.2387 43.9869 51.5716 42.9245C52.8099 42.3612 53.9886 41.6678 55.1903 41.0248C56.4011 40.3758 56.7042 39.4543 56.1103 38.2251C55.4199 36.7968 54.7326 35.3671 54.0177 33.9511C53.1176 32.1693 53.1176 30.4059 54.0177 28.6241C54.7142 27.2449 55.3786 25.8488 56.0536 24.4589C56.7241 23.0796 56.4409 22.2163 55.0816 21.4953C53.681 20.7513 52.2772 20.012 50.8781 19.265C49.2739 18.4077 48.2559 17.1081 47.9253 15.3018C47.6145 13.6011 47.3267 11.8958 47.0068 10.1982C46.7833 9.00574 45.9521 8.41487 44.7627 8.58172C43.2105 8.79756 41.6583 9.01033 40.1122 9.25832C38.0533 9.58897 36.2975 9.05473 34.8188 7.56682C33.7427 6.48304 32.6283 5.43752 31.5292 4.3767C30.4561 3.3419 29.5377 3.34802 28.4508 4.39507C27.3089 5.49875 26.1685 6.6055 25.025 7.70765C23.733 8.95217 22.2068 9.53845 20.4082 9.30271C18.7136 9.07922 17.0221 8.83889 15.3306 8.59244C14.0616 8.40874 13.2258 8.969 12.987 10.2242C12.7329 11.5637 12.4359 12.8985 12.2859 14.2502C12.0043 16.8065 10.7551 18.5929 8.40388 19.663C7.18386 20.2186 6.02201 20.9013 4.83872 21.5336C3.58962 22.201 3.29112 23.1072 3.90342 24.3731C4.59533 25.8013 5.28418 27.2295 5.99445 28.647C6.87771 30.4089 6.87924 32.1571 5.99752 33.9205C5.29642 35.3212 4.61829 36.7326 3.93404 38.1409C3.28193 39.4833 3.56819 40.3605 4.88771 41.0646C6.26999 41.8009 7.64921 42.5434 9.03915 43.2643C10.8363 44.1966 11.8435 45.6676 12.1573 47.6592C12.4007 49.2053 12.6824 50.7467 12.9748 52.2852C13.2289 53.6307 14.0448 54.1757 15.3857 53.9721C16.9349 53.7379 18.4871 53.5281 20.0377 53.3001C22.0553 53.0016 23.7621 53.6001 25.2041 55.0329C26.2725 56.0952 27.367 57.1316 28.4508 58.1786C29.5361 59.2272 30.4561 59.2333 31.5277 58.1985C32.5977 57.1668 33.6906 56.1565 34.7285 55.0926C36.2792 53.5037 38.1161 52.9602 40.2913 53.3445C41.8726 53.6246 43.4723 53.8037 44.9724 54.0134Z" fill="#D53029"/>
<path d="M43.7952 19.4104C43.6329 19.7717 43.4906 20.1437 43.3023 20.4927C43.2089 20.6657 43.0359 20.7988 42.8921 20.9412C35.1479 28.6869 27.4022 36.4311 19.6596 44.1783C19.2172 44.6207 18.758 45.0034 18.0844 44.9865C17.3695 44.9697 16.8307 44.6498 16.5031 44.0206C16.1633 43.3685 16.2215 42.7225 16.6547 42.124C16.7848 41.9434 16.9486 41.7872 17.1063 41.6295C24.8504 33.8839 32.5961 26.1397 40.3387 18.3909C40.7811 17.947 41.2404 17.5735 41.9139 17.5812C42.9043 17.5934 43.6942 18.3756 43.7937 19.4089L43.7952 19.4104Z" fill="#D53029"/>
<path d="M22.7533 28.2661C19.078 28.2462 16.1496 25.2719 16.1787 21.5858C16.2062 17.9702 19.228 15.0051 22.8421 15.0433C26.467 15.0816 29.4076 18.0727 29.3923 21.7068C29.377 25.3332 26.3874 28.286 22.7533 28.2676V28.2661ZM22.8054 18.6743C21.1476 18.6636 19.8158 19.9632 19.7775 21.6241C19.7408 23.2559 21.1445 24.6765 22.7885 24.6719C24.4173 24.6673 25.7766 23.3049 25.7812 21.6716C25.7873 20.0245 24.4571 18.685 22.8038 18.6743H22.8054Z" fill="#D53029"/>
<path d="M37.2343 34.3111C40.8883 34.3203 43.8197 37.2578 43.8212 40.9133C43.8243 44.5611 40.8087 47.5599 37.1716 47.5293C33.5513 47.4987 30.5954 44.506 30.6092 40.8796C30.623 37.2456 33.5926 34.3004 37.2343 34.3096V34.3111ZM37.1945 43.8983C38.8554 43.909 40.1841 42.6155 40.2224 40.9501C40.2607 39.3137 38.8631 37.9008 37.2129 37.9038C35.5811 37.9084 34.2249 39.2662 34.2187 40.9011C34.2126 42.5497 35.5413 43.8876 37.1945 43.8968V43.8983Z" fill="#D53029"/>
</svg>
