<svg width="60" height="61" viewBox="0 0 60 61" fill="none" xmlns="http://www.w3.org/2000/svg">
<path d="M16.7543 0C17.1076 0.368306 17.4546 0.744128 17.8154 1.10492C22.0559 5.34795 26.2989 9.58973 30.542 13.8315C30.6798 13.9693 30.8251 14.0983 30.9566 14.2211C33.6087 11.5666 36.2407 8.93329 38.8614 6.31005C45.2153 12.664 51.4978 18.9489 57.7803 25.2327L57.9469 25.1362V21.7188H59.9287V28.6301H53.0136V26.6796H56.2958C50.5019 20.8869 44.6967 15.0817 38.8802 9.26527C36.3609 11.7971 33.7239 14.4479 31.1245 17.0598C25.8367 11.772 20.6228 6.5581 15.4026 1.33918C15.7884 0.919511 16.2119 0.459756 16.6353 0C16.6754 0 16.7142 0 16.7543 0Z" fill="#D53029"/>
<path d="M2.42664 18.8776C-1.73747 14.156 0.126608 8.21549 3.33112 5.68621C6.87888 2.88508 11.8974 3.08427 15.1958 6.17728C18.4542 9.23272 19.1632 14.7961 15.5817 18.8538C16.0214 19.1394 16.4761 19.3987 16.892 19.7119C17.6449 20.2794 18.0195 21.0285 18.0195 22.0019C18.0082 33.4507 18.007 44.8995 18.0195 56.3483C18.0195 57.4732 17.5134 58.2625 16.6252 58.8638C15.39 59.7006 13.9894 60.0952 12.5413 60.337C9.33926 60.8694 6.17359 60.773 3.08057 59.6994C2.61831 59.539 2.16983 59.3198 1.74264 59.078C0.595133 58.4266 0.00634492 57.5146 0.0101031 56.1015C0.0489381 44.8895 0.0614655 33.6774 8.12135e-05 22.4654C-0.00868797 20.8093 0.692846 19.8334 2.03077 19.1193C2.15229 19.0542 2.27255 18.9878 2.39156 18.9202C2.4066 18.9114 2.41411 18.8913 2.42539 18.8763L2.42664 18.8776ZM9.02983 19.6718C12.9183 19.6655 16.0276 16.55 16.0151 12.6715C16.0026 8.79676 12.872 5.68245 8.99852 5.68997C5.11502 5.69748 2.02326 8.81054 2.03203 12.7028C2.03954 16.6038 5.12755 19.6768 9.03109 19.6706L9.02983 19.6718ZM2.02827 39.3148C2.02827 39.8785 2.08464 40.3959 2.01574 40.897C1.89422 41.7827 2.31765 42.2675 3.07556 42.5681C3.23967 42.6333 3.39877 42.7135 3.56538 42.7748C6.364 43.8008 9.24531 43.8798 12.1391 43.3799C13.229 43.192 14.2813 42.746 15.3211 42.3439C15.6055 42.2337 15.945 41.8741 15.98 41.5935C16.0727 40.8632 16.0114 40.1128 16.0114 39.3123C11.3311 41.1713 6.706 41.1626 2.02827 39.3148ZM16.0176 44.3032C11.3274 46.1723 6.706 46.1635 2.02827 44.3057C2.02827 44.8794 2.08464 45.4156 2.01574 45.9355C1.90425 46.7711 2.29761 47.2333 3.00791 47.529C3.17077 47.5966 3.32736 47.6818 3.49272 47.7432C6.34271 48.8005 9.27662 48.887 12.2268 48.3621C13.2766 48.1754 14.2976 47.7607 15.2898 47.3486C15.603 47.2183 15.9299 46.7824 15.985 46.4429C16.094 45.7714 16.0176 45.0699 16.0176 44.3019V44.3032ZM2.02827 34.2788V35.5753C2.02827 37.0674 2.12849 37.2139 3.53156 37.7752C3.65934 37.8265 3.78962 37.8704 3.92116 37.913C6.56569 38.7824 9.27412 38.8575 11.985 38.4115C13.1138 38.2261 14.2049 37.7726 15.286 37.3705C15.5767 37.2628 15.9399 36.9158 15.975 36.6414C16.0702 35.896 16.0076 35.1306 16.0076 34.2813C13.7188 35.2684 11.4288 35.6843 9.02983 35.6831C6.62958 35.6831 4.33832 35.2734 2.02827 34.2788ZM2.09967 49.3279C1.99319 52.0664 1.53594 52.1052 4.26441 52.9972C6.87512 53.8503 9.5873 53.8641 12.2732 53.3555C13.3217 53.1576 14.3327 52.7279 15.3311 52.3282C15.613 52.2155 15.9462 51.8547 15.9813 51.5728C16.0727 50.8425 16.0126 50.0933 16.0126 49.3004C11.3374 51.1644 6.71728 51.1707 2.09967 49.3279ZM2.03077 24.322C2.03077 25.1212 1.99695 25.8315 2.04956 26.5368C2.0671 26.7698 2.25627 27.0818 2.45671 27.1908C3.07431 27.5277 3.7132 27.8597 4.38342 28.0602C6.74609 28.7642 9.16638 28.8143 11.5942 28.5036C12.887 28.3383 14.1661 28.0652 15.2998 27.3774C15.5817 27.2058 15.9412 26.9076 15.975 26.6308C16.069 25.8866 16.0076 25.1237 16.0076 24.3245C11.3186 26.1848 6.71101 26.1911 2.02952 24.3232L2.03077 24.322ZM2.10343 29.3517C1.66998 31.7119 2.07086 32.3921 4.30199 33.0423C6.78868 33.7676 9.33049 33.8628 11.8635 33.4306C13.0499 33.229 14.1961 32.7554 15.3361 32.342C15.608 32.2431 15.9462 31.9048 15.9763 31.6442C16.0627 30.8976 16.0063 30.1334 16.0063 29.3229C11.3148 31.1795 6.706 31.1757 2.10343 29.3517ZM16.0164 54.2925C11.3148 56.1654 6.69473 56.1566 2.02952 54.3026C2.02952 55.0291 1.98192 55.6831 2.05082 56.3245C2.08339 56.6327 2.26253 57.041 2.50556 57.1889C3.08809 57.5421 3.72573 57.8378 4.37966 58.0307C6.80246 58.746 9.27662 58.7899 11.7633 58.4479C13.0186 58.275 14.2563 58.0032 15.3449 57.3217C15.6293 57.1438 15.9462 56.798 15.9876 56.4936C16.0828 55.7983 16.0176 55.0805 16.0176 54.2925H16.0164ZM9.68502 23.7056C10.3941 23.6054 11.7959 23.4952 13.1514 23.1845C14.032 22.9828 14.8638 22.5218 15.6844 22.1134C16.0915 21.9104 16.0953 21.5234 15.6982 21.2728C15.1858 20.9508 14.6471 20.6602 14.0909 20.4209C13.8967 20.337 13.5835 20.3771 13.3869 20.4798C10.4392 22.0207 7.50149 22.0207 4.55755 20.4798C4.41098 20.4034 4.193 20.2994 4.07775 20.3545C3.4614 20.6489 2.84881 20.9584 2.27255 21.3242C1.92304 21.5446 1.98943 21.8779 2.31389 22.0959C2.67092 22.3364 3.04173 22.5719 3.4376 22.736C5.21649 23.4726 7.0956 23.6455 9.68627 23.7056H9.68502Z" fill="#D53029"/>
<path d="M21.0098 44.1688C21.0098 40.1224 21.0298 36.0761 20.9972 32.0297C20.9885 30.9023 21.4482 30.103 22.3364 29.4917C23.7395 28.5271 25.343 28.1224 26.9928 27.8994C29.9593 27.4973 32.8983 27.5925 35.7645 28.5559C36.2105 28.7062 36.6415 28.9091 37.0611 29.1246C38.3903 29.8061 39.0292 30.8246 39.0192 32.398C38.969 40.274 38.9741 48.15 39.0154 56.026C39.0229 57.5004 38.399 58.455 37.1801 59.1365C35.7959 59.9107 34.285 60.2652 32.7316 60.4619C29.7777 60.8365 26.8638 60.6924 24.0314 59.694C23.5879 59.5374 23.1582 59.3257 22.7473 59.0952C21.5735 58.4375 20.9634 57.5079 20.986 56.0723C21.0498 52.1061 21.0085 48.1375 21.0085 44.17L21.0098 44.1688ZM29.9869 33.7309C31.0642 33.6207 32.1591 33.5956 33.2127 33.3752C34.2425 33.1597 35.2697 32.8277 36.228 32.393C37.2403 31.9345 37.2052 31.4672 36.2143 30.9185C35.8547 30.7194 35.4701 30.5515 35.0793 30.4262C32.1942 29.4954 29.2578 29.4691 26.3151 30.0504C25.457 30.2195 24.6252 30.5703 23.8159 30.916C23.5052 31.0488 23.2872 31.4008 23.0279 31.6526C23.2948 31.9207 23.5278 32.2414 23.8372 32.4431C24.1779 32.6649 24.5813 32.8014 24.9709 32.9342C26.5945 33.4904 28.2744 33.6645 29.9881 33.7297L29.9869 33.7309ZM36.996 39.3106C32.3007 41.1685 27.6768 41.1647 23.0555 39.3307C22.7774 41.9802 23.0968 42.4625 25.6274 43.129C28.109 43.7817 30.6295 43.8531 33.1375 43.3758C34.2437 43.1653 35.3135 42.7206 36.3646 42.2947C36.6414 42.1819 36.9258 41.7648 36.9672 41.4553C37.0574 40.7776 36.9947 40.0786 36.9947 39.3119L36.996 39.3106ZM23.0455 44.3166C22.8363 47.0163 23.0981 47.4384 25.4582 48.0811C28.0301 48.7814 30.6433 48.8628 33.249 48.3529C34.2976 48.1475 35.3148 47.7353 36.312 47.3319C36.6014 47.2142 36.9233 46.8208 36.9647 46.5177C37.0611 45.8074 36.9947 45.0758 36.9947 44.3078C32.322 46.1544 27.6994 46.1769 23.0455 44.3166ZM23.068 49.32C22.7022 51.8268 23.068 52.4143 25.4733 53.0758C28.0652 53.7886 30.6997 53.8575 33.3229 53.3363C34.3702 53.1284 35.3774 52.6924 36.3746 52.2878C36.6364 52.1826 36.9358 51.8268 36.9647 51.5574C37.0461 50.8258 36.9922 50.0792 36.9922 49.2962C32.3107 51.1653 27.6869 51.1691 23.0668 49.3188L23.068 49.32ZM23.0104 34.3147V35.5324C23.0104 37.082 23.1068 37.2223 24.5863 37.7986C24.8068 37.8838 25.0285 37.9652 25.2553 38.0303C27.8021 38.772 30.3965 38.8509 32.986 38.4062C34.1147 38.2132 35.2033 37.7585 36.2869 37.3589C36.565 37.2562 36.9221 36.9317 36.9509 36.6761C37.0386 35.9132 36.9822 35.1328 36.9822 34.3172C32.2907 36.1725 27.6869 36.1738 23.0091 34.3135L23.0104 34.3147ZM23.0542 54.3122C22.8024 56.9192 23.1144 57.4127 25.3467 58.0429C27.742 58.7181 30.1748 58.7845 32.6227 58.4688C33.8967 58.3047 35.1557 58.0291 36.2731 57.3539C36.5563 57.1822 36.9208 56.8878 36.9546 56.6122C37.0486 55.8656 36.9872 55.1002 36.9872 54.2972C32.3095 56.1537 27.7006 56.165 23.053 54.311L23.0542 54.3122Z" fill="#D53029"/>
<path d="M41.983 46.619C41.983 43.4032 41.9992 40.1874 41.9729 36.9704C41.9642 35.9219 42.3914 35.1502 43.2144 34.5601C44.6688 33.5179 46.3513 33.1107 48.08 32.8777C50.9864 32.4856 53.8652 32.5996 56.6738 33.5241C57.1386 33.677 57.5909 33.8862 58.0268 34.1091C59.351 34.7869 60.0124 35.7916 59.9974 37.3713C59.9397 43.6651 59.9623 49.9588 59.9848 56.2526C59.9886 57.3688 59.5489 58.1868 58.6644 58.8069C57.4067 59.6901 55.9686 60.0935 54.4815 60.339C51.282 60.8677 48.1164 60.7712 45.0259 59.6939C44.5461 59.526 44.08 59.2955 43.6391 59.0399C42.5129 58.3873 41.9329 57.4665 41.9604 56.0885C42.023 52.9328 41.9805 49.7747 41.9805 46.619H41.983ZM51.2795 38.6528C53.0008 38.6416 55.0027 38.4612 56.8593 37.5755C57.2752 37.3776 57.5946 36.9742 57.9592 36.666C57.5959 36.3578 57.2789 35.8981 56.8593 35.769C55.5501 35.3644 54.2185 34.941 52.8655 34.7869C50.4014 34.505 47.9347 34.6366 45.5783 35.5398C45.0898 35.7264 44.64 36.0283 44.2016 36.3215C43.9159 36.5119 43.9134 36.8163 44.2016 37.008C44.64 37.2999 45.091 37.5968 45.5783 37.791C47.3084 38.48 49.1311 38.6528 51.2795 38.6528ZM57.9704 39.3118C53.2914 41.1784 48.6576 41.1658 43.9873 39.3143C43.9873 39.6588 43.9873 39.9344 43.9873 40.2087C43.9873 42.1593 44.1013 42.3171 45.9817 42.9522C46.0556 42.9773 46.1333 42.9961 46.2085 43.0186C48.8116 43.7765 51.4587 43.8642 54.1057 43.3807C55.1931 43.1815 56.2467 42.7518 57.2827 42.3422C57.5721 42.2282 57.8978 41.8361 57.9391 41.5341C58.0356 40.8226 57.9704 40.0897 57.9704 39.313V39.3118ZM57.9704 44.2726C55.703 45.2535 53.3929 45.6732 50.9726 45.6757C48.5561 45.677 46.2523 45.2485 43.9873 44.2714C43.9873 45.0343 43.9435 45.7083 44.0074 46.3722C44.0349 46.6616 44.2103 47.0525 44.4408 47.1853C45.066 47.5448 45.7337 47.8743 46.4252 48.0684C48.992 48.7875 51.6078 48.8652 54.2147 48.3578C55.2645 48.1536 56.2842 47.7465 57.2777 47.3381C57.5758 47.2153 57.8928 46.7957 57.9391 46.4737C58.0393 45.7809 57.9704 45.0631 57.9704 44.2739V44.2726ZM57.9679 49.2999C53.2902 51.1677 48.6663 51.1715 44.0437 49.3199C43.6792 51.8204 44.0487 52.4117 46.4402 53.0744C48.7954 53.7271 51.1881 53.796 53.5984 53.4715C54.8749 53.2999 56.1314 53.0318 57.2489 52.3603C57.542 52.1849 57.8965 51.8592 57.9366 51.5636C58.0356 50.8345 57.9692 50.0828 57.9692 49.2986L57.9679 49.2999ZM43.9873 54.2921C43.9873 55.0049 43.9397 55.6738 44.0086 56.3315C44.04 56.6372 44.2229 57.0418 44.4659 57.1896C45.0484 57.5417 45.6861 57.8398 46.3387 58.0315C48.7603 58.7455 51.2332 58.7906 53.7186 58.4499C54.9726 58.2783 56.2078 58.0027 57.299 57.3274C57.5733 57.1571 57.904 56.8439 57.9379 56.5633C58.0281 55.8342 57.9679 55.0863 57.9679 54.2983C53.2839 56.1636 48.6613 56.1661 43.9873 54.2933V54.2921Z" fill="#D53029"/>
<path d="M19.4038 13.3621C19.8135 12.9738 20.2657 12.5441 20.7229 12.1094L30.929 22.2841C33.6299 19.5782 36.272 16.9324 38.8764 14.323C42.8175 18.2641 46.6935 22.1401 50.582 26.0286C50.1749 26.4244 49.7251 26.8604 49.2265 27.3427C45.8354 23.949 42.4242 20.5353 38.9942 17.1028C36.3246 19.7736 33.6901 22.4082 31.0743 25.0264L19.4038 13.3634V13.3621Z" fill="#D53029"/>
</svg>
