<svg width="60" height="61" viewBox="0 0 60 61" fill="none" xmlns="http://www.w3.org/2000/svg">
<path d="M49.9536 49.8034C48.4664 51.0569 46.7372 50.9735 45.0213 50.9368C45.6055 53.6474 43.474 55.5652 41.0889 54.981C40.6883 55.4684 40.3645 55.9892 39.9221 56.3748C39.2128 56.9957 38.3415 57.1592 37.4034 57.019C37.2349 56.994 36.9511 57.0741 36.8743 57.1976C35.6542 59.2173 33.91 59.6162 31.882 58.2792C31.7902 58.4027 31.6934 58.5246 31.6049 58.6531C30.4849 60.2855 28.3484 60.5526 26.8813 59.2089C26.5374 58.8951 26.2687 58.795 25.8014 58.9319C24.2474 59.3892 22.9472 58.6898 22.0175 56.9773C19.3736 57.0975 18.3087 56.3681 17.863 54.1348C15.805 53.5372 15.2608 52.9931 14.8953 51.3373C14.0808 50.8633 13.3998 50.4611 12.7121 50.0705C12.5936 50.0037 12.45 49.947 12.3165 49.9453C11.5687 49.9336 10.8226 49.9403 10.0448 49.9403C9.87124 51.4792 9.11847 52.5391 7.58621 52.8729C7.04708 52.9898 6.4679 52.9314 5.90707 52.9364C4.92896 52.9447 3.94919 52.9514 2.97108 52.9364C1.33033 52.9097 0.0234076 51.6411 0.0167311 49.9987C-0.00329839 45.2934 -0.00329839 40.5882 0.0167311 35.8829C0.0234076 34.3023 1.27525 33.0221 2.86426 32.9653C4.278 32.9152 5.69676 32.9252 7.11218 32.9653C8.20879 32.997 9.07674 33.5228 9.5975 34.4925C9.80281 34.8748 10.0365 34.9966 10.4237 34.9415C10.4437 34.9382 10.4654 34.9415 10.4855 34.9415C12.5902 34.7963 14.7317 35.2971 16.8064 34.6277C18.8044 33.9835 20.8073 33.3492 22.7769 32.6281C24.169 32.1191 25.566 31.9071 27.0482 31.9304C30.505 31.9822 33.9617 31.9037 37.4185 31.9722C38.4383 31.9922 39.4865 32.2209 40.4613 32.5363C42.536 33.2107 44.5406 34.1086 46.6337 34.7095C47.6986 35.015 48.8904 34.8848 50.027 34.9215C50.1255 34.9249 50.2574 34.7179 50.3308 34.586C50.9517 33.4877 51.8998 32.9553 53.1483 32.9486C54.3985 32.9403 55.647 32.9336 56.8971 32.9486C58.7265 32.972 59.9934 34.2438 59.9967 36.0749C60.0051 40.655 60.0051 45.2367 59.9967 49.8168C59.9934 51.6812 58.7198 52.9314 56.8421 52.938C55.6753 52.943 54.5103 52.938 53.3436 52.938C51.3356 52.938 50.219 51.9432 49.9553 49.8018L49.9536 49.8034ZM33.8465 45.1299C33.9784 45.3502 34.0635 45.5822 34.2221 45.7424C36.4387 47.9724 38.6636 50.194 40.8886 52.4156C41.0505 52.5775 41.2057 52.7578 41.396 52.8763C41.8767 53.1751 42.3607 53.1383 42.768 52.7427C43.1753 52.3488 43.2387 51.8698 42.9499 51.3774C42.8465 51.2021 42.6896 51.0553 42.5427 50.9084C39.8053 48.1677 37.0663 45.4303 34.3256 42.693C34.2004 42.5678 34.0602 42.4543 33.915 42.3274C32.8284 43.2321 31.7818 44.1217 30.7153 44.9863C28.9577 46.4151 26.6176 46.2415 25.2439 44.5958C23.8502 42.9266 24.1122 40.5732 25.8648 39.1027C27.7626 37.5103 29.6671 35.9247 31.5749 34.344C31.6934 34.2455 31.8586 34.2021 32.0022 34.132C31.9504 34.0703 31.897 34.0085 31.8453 33.9451C29.8073 33.9451 27.7676 33.9367 25.7296 33.9534C25.3624 33.9568 24.9835 34.0235 24.6346 34.1387C22.3813 34.8748 20.1263 35.6042 17.8914 36.392C16.7547 36.7926 15.6197 36.9996 14.4113 36.9562C12.9625 36.9061 11.5087 36.9445 10.0448 36.9445V47.9006H11.6522C12.0478 47.1312 12.2915 46.4051 12.7405 45.8459C13.3747 45.0548 14.1359 44.3571 14.8903 43.6711C16.4559 42.249 18.7794 42.6612 19.7591 44.529C19.9327 44.8611 20.0796 44.9663 20.4652 44.8945C22.0892 44.5874 23.6165 45.5956 24.0204 47.1996C24.0705 47.3982 24.1172 47.5985 24.1673 47.8055C25.9366 48.0542 26.9063 49.0974 27.1617 50.8049C28.749 51.0453 29.7372 51.8832 30.0893 53.4338C30.1277 53.6023 30.2512 53.7676 30.3764 53.8944C31.2677 54.7991 32.1657 55.6988 33.0687 56.5917C33.6462 57.1609 34.2905 57.211 34.7746 56.7436C35.2803 56.2546 35.2319 55.602 34.6294 54.9944C33.5745 53.9295 32.5196 52.8629 31.4463 51.8164C31.0641 51.4425 30.6251 51.127 30.2195 50.7915C30.8137 50.184 31.2477 49.74 31.7268 49.2493C32.7866 50.3108 33.8265 51.3557 34.8697 52.3989C35.6492 53.1801 36.427 53.9646 37.2165 54.734C37.557 55.0662 38.016 55.2264 38.4099 54.9527C38.7154 54.7407 39.0358 54.3501 39.0759 54.0096C39.1126 53.6891 38.8623 53.2552 38.6102 52.9965C36.6891 51.0319 34.7345 49.0974 32.7917 47.1529C32.6348 46.996 32.4845 46.8307 32.3326 46.6705C32.81 46.1848 33.2457 45.7424 33.8482 45.1315L33.8465 45.1299ZM34.0869 39.5817C35.1668 40.8753 36.4687 41.6781 38.1195 41.7933C39.7669 41.9085 41.1473 41.2542 42.3774 40.1759C42.8181 40.7267 43.2137 41.2208 43.6076 41.7132C42.1037 43.1002 40.3845 43.7662 38.3281 43.8263C38.5401 44.0516 38.6736 44.2018 38.8155 44.3437C39.9772 45.5071 41.1957 46.6204 42.2823 47.8505C43.0384 48.7068 43.8513 48.9789 44.9813 48.9789C46.6721 48.9789 48.2494 48.8587 49.5964 47.6903C49.8768 47.4466 50.0087 47.2447 50.007 46.8741C49.992 43.7528 49.9986 40.6299 49.997 37.5087C49.997 37.3301 49.9736 37.1515 49.9586 36.9428C49.4729 36.9428 49.0356 36.9178 48.6033 36.9478C47.3965 37.033 46.2665 36.7926 45.1398 36.3453C43.3439 35.6342 41.5162 35.0033 39.6952 34.359C37.3884 33.5428 35.2703 33.905 33.3725 35.4523C32.0172 36.5573 30.6835 37.6856 29.3399 38.8056C28.5571 39.4582 27.7509 40.0875 26.9981 40.7735C25.9132 41.7616 26.2854 43.4574 27.6574 43.8697C28.3601 44.08 28.9577 43.8597 29.5051 43.4007C31.0024 42.1438 32.5079 40.897 34.0886 39.5817H34.0869ZM8.00516 43.0001C8.00516 40.7301 8.0085 38.4601 8.00516 36.19C8.00349 35.3288 7.6463 34.9549 6.80673 34.9465C5.59828 34.9365 4.38984 34.9349 3.18306 34.9465C2.3752 34.9549 2.00967 35.3304 2.00967 36.1483C2.00466 40.6883 2.00466 45.2284 2.00967 49.7684C2.00967 50.5829 2.37687 50.9318 3.20476 50.9368C4.37148 50.9434 5.53819 50.9401 6.70324 50.9368C7.67968 50.9351 8.00349 50.6096 8.00516 49.6198C8.0085 47.4116 8.00516 45.205 8.00516 42.9967V43.0001ZM51.9983 42.9366C51.9983 45.2067 51.9949 47.4767 51.9999 49.7467C52.0016 50.5729 52.3588 50.9318 53.1733 50.9368C54.3818 50.9451 55.5902 50.9434 56.797 50.9368C57.6466 50.9318 57.9938 50.5779 57.9954 49.7066C57.9988 45.2083 57.9988 40.71 57.9954 36.2117C57.9954 35.2904 57.6399 34.9482 56.6952 34.9449C55.5702 34.9399 54.4452 34.9399 53.3202 34.9449C52.3388 34.9482 51.9983 35.2837 51.9983 36.2518C51.9949 38.4801 51.9983 40.7084 51.9983 42.9366ZM22.2795 47.8873C21.9841 47.5468 21.7654 47.1662 21.4383 46.9492C21.0093 46.6638 20.5503 46.8307 20.1948 47.1796C19.2183 48.1393 18.2469 49.1057 17.2888 50.0822C16.7631 50.618 16.7497 51.2706 17.2204 51.7363C17.6894 52.1986 18.337 52.1786 18.8762 51.6495C19.8242 50.7198 20.7673 49.7834 21.6886 48.8287C21.9056 48.6033 22.0325 48.2879 22.2778 47.8873H22.2795ZM25.2789 50.8399C24.9651 50.5061 24.7298 50.1372 24.3943 49.9303C23.9503 49.6565 23.5063 49.8652 23.1558 50.214C22.1944 51.1671 21.2313 52.1185 20.2866 53.0866C19.7608 53.6257 19.7558 54.285 20.2365 54.7457C20.6938 55.1847 21.3381 55.173 21.8522 54.6706C22.8203 53.7242 23.7817 52.7711 24.7198 51.7947C24.9368 51.5694 25.0486 51.2439 25.2806 50.8383L25.2789 50.8399ZM18.2736 45.891C17.9965 45.5538 17.7979 45.1816 17.4875 44.9663C17.0685 44.6742 16.5961 44.7977 16.2323 45.1466C15.5713 45.7808 14.9237 46.4285 14.2861 47.0844C13.762 47.6235 13.7503 48.2795 14.2277 48.7419C14.6967 49.1992 15.3443 49.1675 15.8884 48.6384C16.501 48.0442 17.1119 47.4483 17.6928 46.824C17.9081 46.5937 18.0349 46.2816 18.2736 45.891ZM24.8767 57.1743C25.2389 57.0157 25.5093 56.969 25.6762 56.8121C26.429 56.0977 27.1784 55.3733 27.8794 54.6072C28.28 54.1698 28.1915 53.5423 27.7759 53.1433C27.3603 52.7444 26.7444 52.6843 26.3054 53.0933C25.5593 53.7843 24.8132 54.4887 24.1639 55.2698C23.9536 55.5235 23.9136 56.0793 24.0371 56.4048C24.1606 56.7253 24.5896 56.9289 24.8783 57.1776L24.8767 57.1743ZM29.5836 55.9608C29.0395 56.4916 28.5287 56.9923 28.0096 57.4998C28.3151 57.9154 28.7557 58.2175 29.2665 57.9988C29.602 57.8553 29.9425 57.4998 30.0726 57.1593C30.2713 56.6368 29.9375 56.2195 29.5836 55.9608Z" fill="#D53029"/>
<path d="M14.0323 29.8973V27.9645H15.0054V27.2635C15.0054 24.244 14.9904 21.2262 15.0171 18.2068C15.0238 17.4974 14.9053 16.8632 14.5464 16.2489C14.2142 15.6797 13.9539 15.0705 13.6367 14.4279C14.4663 14.0924 15.2491 13.7736 16.0353 13.4598C18.8527 12.3315 21.6669 11.1965 24.491 10.0899C24.8866 9.93463 25.0268 9.75102 25.0135 9.3254C24.9868 8.34896 24.9217 7.35583 25.0485 6.39441C25.3523 4.08435 26.7393 2.67227 28.991 2.02965V0H30.9823V2.01964C33.2556 2.66392 34.6393 4.076 34.9498 6.38273C35.0733 7.30409 35.0199 8.25382 34.9865 9.18853C34.9681 9.69928 35.125 9.93463 35.6174 10.1282C39.0441 11.4669 42.4558 12.8456 45.8708 14.2143C46.0211 14.2743 46.1629 14.3545 46.3532 14.4463C46.2431 14.6733 46.1679 14.8869 46.0461 15.0705C45.1348 16.4425 44.9161 17.9447 44.9729 19.5738C45.0613 22.1109 44.9962 24.653 44.9962 27.1934V27.9144C45.3384 27.9328 45.6388 27.9495 45.966 27.9678V29.8973H14.0323ZM43.5541 15.4828C43.4673 15.4277 43.4172 15.386 43.3605 15.3643C39.0408 13.6367 34.7211 11.9059 30.3931 10.2C30.141 10.1015 29.7771 10.1333 29.5168 10.2351C26.963 11.2365 24.4226 12.2647 21.8755 13.2846C20.0662 14.009 18.2535 14.7317 16.4542 15.4494C16.4809 15.9885 16.8281 15.9485 17.1636 15.9485C22.907 15.9468 28.6505 15.9485 34.3939 15.9485C37.2248 15.9485 40.0539 15.9451 42.8848 15.9518C43.2203 15.9518 43.519 15.9501 43.5524 15.4828H43.5541ZM33.0002 9.05834C33.0002 8.27885 33.0169 7.57615 32.9969 6.87345C32.9535 5.3679 31.8101 4.12941 30.333 3.96584C28.8274 3.79893 27.3769 4.77036 27.1132 6.28926C26.9613 7.16388 27.0849 8.08691 27.0849 9.0333C27.9177 8.70448 28.7373 8.35563 29.5769 8.06688C29.8406 7.97674 30.1894 7.97841 30.4531 8.06688C31.291 8.35563 32.1089 8.70448 32.9986 9.05667L33.0002 9.05834ZM17.0484 17.9748V27.8927H18.9729V17.9748H17.0484ZM21.0476 17.9748V27.8927H22.9738V17.9748H21.0476ZM26.983 17.9965H25.0368V27.9027H26.983V17.9965ZM29.0477 17.9731V27.8911H30.9706V17.9731H29.0477ZM34.9614 27.9128V17.9948H33.0353V27.9128H34.9614ZM38.9607 27.9128V17.9948H37.0345V27.9128H38.9607ZM41.0471 17.9731V27.8911H42.9699V17.9731H41.0471Z" fill="#D53029"/>
</svg>
